<?xml version="1.0" encoding="utf-8"?>
<!-- Generator: Adobe Illustrator 16.0.0, SVG Export Plug-In . SVG Version: 6.00 Build 0)  -->
<!DOCTYPE svg PUBLIC "-//W3C//DTD SVG 1.1//EN" "http://www.w3.org/Graphics/SVG/1.1/DTD/svg11.dtd">
<svg version="1.1" id="Layer_1" xmlns="http://www.w3.org/2000/svg" xmlns:xlink="http://www.w3.org/1999/xlink" x="0px" y="0px"
	 width="59.979px" height="96.502px" viewBox="0 0 59.979 96.502" enable-background="new 0 0 59.979 96.502" xml:space="preserve">
<g>
	<g>
		<rect fill="#004996" width="59.979" height="78.55"/>
		<g>
			<path fill="none" stroke="#000000" stroke-width="0.085" d="M29.431,17.452"/>
			<path fill="none" stroke="#000000" stroke-width="0.085" d="M30.713,17.452"/>
		</g>
		<line fill="#004996" stroke="#B99F6D" stroke-width="1.592" x1="51.868" y1="24.348" x2="59.979" y2="24.348"/>
		<line fill="#004996" stroke="#B99F6D" stroke-width="1.592" x1="56.415" y1="27.79" x2="59.979" y2="27.79"/>
		<line fill="#004996" stroke="#B99F6D" stroke-width="1.592" x1="56.415" y1="31.23" x2="59.979" y2="31.23"/>
		<line fill="#004996" stroke="#B99F6D" stroke-width="1.592" x1="56.415" y1="34.672" x2="59.979" y2="34.672"/>
		<line fill="#004996" stroke="#B99F6D" stroke-width="1.592" x1="56.415" y1="38.114" x2="59.979" y2="38.114"/>
		<line fill="#004996" stroke="#B99F6D" stroke-width="1.592" x1="53.709" y1="41.556" x2="59.979" y2="41.556"/>
		<line fill="#004996" stroke="#B99F6D" stroke-width="1.592" x1="56.415" y1="44.997" x2="59.979" y2="44.997"/>
		<line fill="#004996" stroke="#B99F6D" stroke-width="1.592" x1="56.415" y1="48.438" x2="59.979" y2="48.438"/>
		<line fill="#004996" stroke="#B99F6D" stroke-width="1.592" x1="56.415" y1="51.881" x2="59.979" y2="51.881"/>
		<line fill="#004996" stroke="#B99F6D" stroke-width="1.592" x1="56.415" y1="55.322" x2="59.979" y2="55.322"/>
		<line fill="#004996" stroke="#B99F6D" stroke-width="1.592" x1="51.868" y1="58.763" x2="59.979" y2="58.763"/>
		<circle fill="none" stroke="#B99F6D" stroke-width="0.5307" cx="29.989" cy="41.802" r="18.251"/>
		<line fill="#004996" stroke="#B99F6D" stroke-width="1.592" x1="8.112" y1="24.348" x2="0" y2="24.348"/>
		<line fill="#004996" stroke="#B99F6D" stroke-width="1.592" x1="3.563" y1="27.79" x2="0" y2="27.79"/>
		<line fill="#004996" stroke="#B99F6D" stroke-width="1.592" x1="3.563" y1="31.23" x2="0" y2="31.23"/>
		<line fill="#004996" stroke="#B99F6D" stroke-width="1.592" x1="3.563" y1="34.672" x2="0" y2="34.672"/>
		<line fill="#004996" stroke="#B99F6D" stroke-width="1.592" x1="3.563" y1="38.114" x2="0" y2="38.114"/>
		<line fill="#004996" stroke="#B99F6D" stroke-width="1.592" x1="6.268" y1="41.556" x2="0" y2="41.556"/>
		<line fill="#004996" stroke="#B99F6D" stroke-width="1.592" x1="3.563" y1="44.997" x2="0" y2="44.997"/>
		<line fill="#004996" stroke="#B99F6D" stroke-width="1.592" x1="3.563" y1="48.438" x2="0" y2="48.438"/>
		<line fill="#004996" stroke="#B99F6D" stroke-width="1.592" x1="3.563" y1="51.881" x2="0" y2="51.881"/>
		<line fill="#004996" stroke="#B99F6D" stroke-width="1.592" x1="3.563" y1="55.322" x2="0" y2="55.322"/>
		<line fill="#004996" stroke="#B99F6D" stroke-width="1.592" x1="8.112" y1="58.763" x2="0" y2="58.763"/>
		<circle fill="none" stroke="#B99F6D" stroke-width="2.5713" cx="29.989" cy="41.802" r="17.688"/>
		<line fill="none" stroke="#B99F6D" stroke-width="2.6533" x1="23.598" y1="33.443" x2="23.598" y2="50.405"/>
		<polyline fill="none" stroke="#B99F6D" stroke-width="2.6533" points="19.972,36.931 28.084,41.972 19.972,47.01 		"/>
		<line fill="none" stroke="#B99F6D" stroke-width="2.6533" x1="36.38" y1="33.443" x2="36.38" y2="50.405"/>
		<polyline fill="none" stroke="#B99F6D" stroke-width="2.6533" points="40.006,36.931 31.894,41.972 40.006,47.01 		"/>
		<path fill="#B99F6D" d="M13.203,66.854c0-1.2,0.022-1.801,0.022-2.601c0-1.179-0.022-1.924-0.045-2.291
			c0.301,0.033,0.612,0.056,0.912,0.056c0.301,0,0.612-0.022,0.913-0.056c-0.145,1.445-0.156,2.602-0.156,3.891
			c0,2.715,0.778,3.159,2.224,3.159c1.779,0,1.901-1.924,1.901-3.991c0-1.024-0.033-2.036-0.09-3.059
			c0.189,0.033,0.379,0.056,0.567,0.056c0.189,0,0.367-0.022,0.556-0.056c-0.066,0.655-0.144,2.246-0.144,4.17
			c0,2.578-1.123,3.646-3.28,3.646C14.682,69.778,13.203,68.945,13.203,66.854z"/>
		<path fill="#B99F6D" d="M25.608,66.144c0,1.601,0,2.792,0.089,3.492c-0.244-0.023-0.544-0.057-0.912-0.057
			c-0.367,0-0.667,0.033-0.912,0.057c0.067-0.98,0.089-1.836,0.089-3.08v-1.514c0-1.244-0.022-2.101-0.089-3.079
			c0.245,0.022,0.545,0.056,0.912,0.056c0.367,0,0.667-0.033,0.912-0.056c-0.089,0.59-0.089,2.112-0.089,3.547
			c1-1.178,2.447-2.979,2.835-3.547c0.211,0.022,0.411,0.056,0.623,0.056c0.199,0,0.411-0.033,0.667-0.056
			c-0.5,0.5-2.291,2.479-2.869,3.202c0.957,1.445,2.436,3.68,3.036,4.471c-0.433-0.023-0.756-0.057-1.079-0.057
			s-0.645,0.033-0.967,0.057c-0.733-1.168-1.49-2.336-2.224-3.492H25.608z"/>
		<path fill="#B99F6D" d="M39.348,69.636c-0.356-0.023-0.668-0.057-0.979-0.057c-0.312,0-0.635,0.033-0.945,0.057
			c-0.233-0.758-0.49-1.524-0.768-2.28c-0.478-0.012-0.945-0.022-1.423-0.022c-0.39,0-0.767,0.011-1.157,0.022
			c-0.299,0.756-0.544,1.512-0.756,2.28c-0.178-0.023-0.344-0.057-0.522-0.057c-0.177,0-0.344,0.033-0.556,0.057
			c0.545-1.235,2.213-5.193,3.169-7.728c0.145,0.021,0.278,0.055,0.423,0.055s0.277-0.034,0.423-0.055
			C37.202,64.442,38.502,67.822,39.348,69.636z M36.401,66.699c-0.321-0.901-0.633-1.778-0.989-2.646
			c-0.377,0.868-0.722,1.745-1.046,2.646H36.401z"/>
		<path fill="#B99F6D" d="M45.996,63.463c-0.234-0.633-0.667-0.955-1.345-0.955c-0.679,0-1.156,0.468-1.156,1.001
			c0,1.645,3.379,1.233,3.379,3.758c0,1.489-1.178,2.512-2.945,2.512c-0.801,0-1.468-0.232-1.791-0.478
			c0.145-0.511,0.244-0.912,0.323-1.412h0.21c0.123,0.646,0.635,1.201,1.535,1.201c0.867,0,1.301-0.512,1.301-1.135
			c0-1.679-3.312-1.233-3.312-3.758c0-1.533,1.178-2.379,2.5-2.379c0.801,0,1.402,0.211,1.823,0.546
			c-0.132,0.344-0.21,0.611-0.354,1.099H45.996z"/>
		<g>
			<g>
				<g>
					<g>
						<path fill="#B99F6D" stroke="#1D1D1B" stroke-width="0.7498" d="M30.832,9.473c0.881-0.602,0.756-1.481,0.756-1.481
							c0-0.651-0.377-1.213-0.922-1.484l-0.014-0.043C30.29,6.123,30.327,4.87,30.327,4.87s0.183-0.077,0.459,0.049
							c0,0,0.387,0.147,0.387,0.396h0.239V3.916h-0.239c0,0.25-0.387,0.396-0.387,0.396h-0.1l-0.359,0.006
							c0,0-0.129,0.055-0.129-0.289l0.049-0.459c0,0,0.147-0.387,0.396-0.387V2.945h-1.402v0.238c0.252,0,0.399,0.387,0.399,0.387
							l0.022,0.459l0,0c0,0.344-0.132,0.289-0.132,0.289l-0.339-0.006H29.07c0,0-0.386-0.146-0.386-0.396h-0.236v1.399h0.236
							c0-0.249,0.386-0.396,0.386-0.396l0.105-0.045c0,0,0.171-0.024,0.355-0.004c0,0,0.009,1.288-0.324,1.594L29.168,6.52
							c-0.532,0.276-0.896,0.83-0.896,1.472c0,0-0.075,1.106,0.789,1.481"/>
					</g>
				</g>
				<circle fill="#FFFFFF" stroke="#1D1D1B" stroke-width="0.7498" cx="19.373" cy="13.747" r="0.622"/>
				<circle fill="#FFFFFF" stroke="#1D1D1B" stroke-width="0.7498" cx="19.418" cy="12.071" r="0.622"/>
				<circle fill="#FFFFFF" stroke="#1D1D1B" stroke-width="0.7498" cx="20.011" cy="10.565" r="0.622"/>
				<circle fill="#FFFFFF" stroke="#1D1D1B" stroke-width="0.7498" cx="21.198" cy="9.378" r="0.622"/>
				<circle fill="#FFFFFF" stroke="#1D1D1B" stroke-width="0.7498" cx="22.643" cy="8.668" r="0.622"/>
				<circle fill="#FFFFFF" stroke="#1D1D1B" stroke-width="0.7498" cx="24.422" cy="8.54" r="0.622"/>
				<circle fill="#FFFFFF" stroke="#1D1D1B" stroke-width="0.7498" cx="26.086" cy="9.004" r="0.621"/>
				<circle fill="#FFFFFF" stroke="#1D1D1B" stroke-width="0.7498" cx="27.699" cy="9.533" r="0.622"/>
				<path fill="#FFFFFF" stroke="#1D1D1B" stroke-width="0.7498" d="M20.366,15.105c-0.095-0.33-0.435-0.535-0.765-0.439
					c-0.33,0.097-0.519,0.441-0.423,0.771c0.096,0.33,0.477,0.52,0.808,0.423"/>
				<path fill="#FFFFFF" stroke="#1D1D1B" stroke-width="0.7498" d="M39.588,15.099c0.097-0.33,0.436-0.534,0.765-0.438
					c0.33,0.096,0.519,0.441,0.424,0.771c-0.096,0.329-0.478,0.519-0.808,0.423"/>
				<path fill="#FFEC00" stroke="#1D1D1B" stroke-width="0.7498" d="M34.021,9.646"/>
				<path fill="#B99F6D" stroke="#1D1D1B" stroke-width="0.7498" d="M30.833,9.459h0.521l-0.001,0.821
					c0.007,0,0.426-0.006,0.989-0.104l0.416-0.086c0.395-0.092,0.826-0.225,1.254-0.43l0.398-0.188
					c0.277-0.11,0.68-0.228,1.176-0.279l0.286-0.022c0.353-0.012,0.743,0.023,1.163,0.121l0.326,0.089c0,0,0.616,0.21,0.645,0.239
					c0.023,0.013,0.166,0.091,0.36,0.237l0.2,0.162c0.473,0.392,1.138,1.074,1.328,2.064l0.021,0.08
					c0.041,0.258,0.06,0.534,0.031,0.833c0.004,0.068,0.039,0.602-0.158,1.29c0,0-0.174,0.827-0.203,0.868l0.657,1.308l-2.626,6.526
					c0,0-7.017-3.071-15.297-0.079l-2.609-6.441l0.657-1.307c0,0-0.82-2.605,0.005-3.956c0,0,0.789-1.632,2.683-1.943
					c0,0,1.092-0.249,2.176,0.104c0,0,0.731,0.292,0.937,0.387c0.207,0.094,0.833,0.411,2.394,0.541L28.559,9.46h0.499"/>
				<path fill="#FFEC00" stroke="#1D1D1B" stroke-width="0.7498" d="M37.442,9.402"/>
				<path fill="#E95123" stroke="#1D1D1B" stroke-width="0.7498" d="M28.564,14.035l-0.002-3.02c-0.06,0-1.55-0.114-2.915-0.773
					l-0.009-0.006l-0.008-0.005c-0.064-0.039-1.449-0.833-3.413,0.088c-0.061,0.036-1.574,0.93-1.445,2.684l0.004,0.021
					l-0.004,0.022c0,0.009-0.045,0.953,0.428,1.865l0.191,0.311c0,0-0.524,0.626-0.438,1.394c0,0-0.163,1.208,0.551,2.175
					c0,0,0.946,1.912,2.651,0.547c0,0,1.111-0.937,0.128-1.875c0,0-0.596-0.384-0.81,0.17c0,0-0.086,0.385,0.17,0.513
					c0,0-0.725,0.212-1.023-0.513c0,0-0.341-0.895,0.767-1.108c0,0,0.683,0.086,0.556-0.427c0,0-0.342-1.15,0.17-1.876
					c0,0,0.726,0.299,0.94,1.578c0,0,0,0.64,0.596,0.214c1.152-0.341,1.194,0.426,1.194,0.426c0.257,0.81-0.639,1.193-0.639,1.193
					c0.085-0.34-0.042-0.639-0.042-0.639c-0.427-0.342-0.769,0.213-0.769,0.213c0.085,1.15,0.683,1.577,0.683,1.577
					c0.596,0.641,1.32,0.512,1.32,0.512c0.811-0.042,0.896-0.213,0.896-0.213c1.364-0.938,1.066-1.919,1.066-1.919
					c-0.213,0-0.469,0.085-0.469,0.085c-0.852,0.3-1.279,1.066-1.279,1.066v0.427h-0.255v-3.752h0.298
					c0.043,1.107,1.194,1.278,1.194,1.278h0.555v-0.682c-0.171-0.725-1.024-1.108-1.024-1.108h-0.426v-0.389h4.047v0.389h-0.426
					c0,0-0.853,0.384-1.024,1.108v0.682h0.554c0,0,1.151-0.171,1.194-1.278h0.299v3.752H32.34v-0.427c0,0-0.428-0.767-1.28-1.066
					c0,0-0.256-0.085-0.469-0.085c0,0-0.298,0.981,1.065,1.919c0,0,0.086,0.171,0.896,0.213c0,0,0.725,0.129,1.321-0.512
					c0,0,0.597-0.427,0.683-1.577c0,0-0.342-0.555-0.768-0.213c0,0-0.129,0.299-0.043,0.639c0,0-0.896-0.384-0.639-1.193
					c0,0,0.043-0.767,1.193-0.426c0.598,0.426,0.598-0.214,0.598-0.214c0.213-1.279,0.938-1.578,0.938-1.578
					c0.511,0.726,0.17,1.876,0.17,1.876c-0.129,0.513,0.555,0.427,0.555,0.427c1.107,0.214,0.768,1.108,0.768,1.108
					c-0.299,0.725-1.023,0.513-1.023,0.513c0.256-0.128,0.17-0.513,0.17-0.513c-0.213-0.554-0.809-0.17-0.809-0.17
					c-0.98,0.938,0.127,1.875,0.127,1.875c1.706,1.365,2.65-0.568,2.65-0.568c0.559-0.591,0.559-2.161,0.559-2.161
					c0.084-0.767-0.439-1.393-0.439-1.393l0.191-0.311c0.473-0.912,0.428-1.856,0.428-1.864l-0.003-0.022l0.003-0.021
					c0.129-1.754-1.384-2.647-1.443-2.683c-1.965-0.922-3.352-0.128-3.414-0.089l-0.008,0.006l-0.01,0.005
					c-1.364,0.66-2.91,0.794-2.971,0.794v3.031"/>
				<circle fill="#FFFFFF" stroke="#1D1D1B" stroke-width="0.7498" cx="40.583" cy="13.741" r="0.622"/>
				<circle fill="#FFFFFF" stroke="#1D1D1B" stroke-width="0.7498" cx="40.537" cy="12.065" r="0.622"/>
				<circle fill="#FFFFFF" stroke="#1D1D1B" stroke-width="0.7498" cx="39.944" cy="10.558" r="0.622"/>
				<circle fill="#FFFFFF" stroke="#1D1D1B" stroke-width="0.7498" cx="38.756" cy="9.372" r="0.622"/>
				<circle fill="#FFFFFF" stroke="#1D1D1B" stroke-width="0.7498" cx="37.313" cy="8.663" r="0.622"/>
				<circle fill="#FFFFFF" stroke="#1D1D1B" stroke-width="0.7498" cx="35.532" cy="8.533" r="0.621"/>
				<circle fill="#FFFFFF" stroke="#1D1D1B" stroke-width="0.7498" cx="33.868" cy="8.998" r="0.622"/>
				<circle fill="#FFFFFF" stroke="#1D1D1B" stroke-width="0.7498" cx="32.256" cy="9.527" r="0.622"/>
				<path fill="#B99F6D" stroke="#1D1D1B" stroke-width="0.7498" d="M38.576,18.545c0,0-0.31-0.426-0.853,0.086
					c0,0-0.426,0.342-0.683,0.796h-0.31l1.59-3.696l0.059,0.37c0,0-0.23,1.053,0,1.449c0,0,0.225,0.346,0.509,0.118"/>
				<path fill="#FFFFFF" stroke="#1D1D1B" stroke-width="0.7498" d="M31.062,8.267c0.098,0.022,0.346,0.054,0.36-0.216
					c0.008-0.159-0.014-0.34-0.176-0.396l-0.426-0.045h-0.712h0.111V6.515c0-0.13-0.155-0.202-0.155-0.202h-0.208
					c-0.106,0-0.139,0.202-0.139,0.202v1.095h-0.664l-0.426,0.045c-0.166,0.057-0.215,0.237-0.215,0.396
					c0,0.171,0.239,0.258,0.396,0.216C28.808,8.267,29.941,8.156,31.062,8.267z"/>
				<circle fill="#FFFFFF" stroke="#1D1D1B" stroke-width="0.7498" cx="29.956" cy="4.661" r="0.396"/>
				<circle fill="#FFFFFF" stroke="#1D1D1B" stroke-width="0.7498" cx="29.939" cy="13.494" r="0.395"/>
				<circle fill="#FFFFFF" stroke="#1D1D1B" stroke-width="0.7498" cx="29.939" cy="12.551" r="0.395"/>
				<circle fill="#FFFFFF" stroke="#1D1D1B" stroke-width="0.7498" cx="29.939" cy="9.597" r="0.395"/>
				<circle fill="#FFFFFF" stroke="#1D1D1B" stroke-width="0.7498" cx="29.939" cy="10.59" r="0.395"/>
				<circle fill="#FFFFFF" stroke="#1D1D1B" stroke-width="0.7498" cx="29.939" cy="11.571" r="0.395"/>
				<line fill="none" stroke="#1D1D1B" stroke-width="0.7498" x1="29.109" y1="9.655" x2="29.108" y2="14.102"/>
				<line fill="none" stroke="#1D1D1B" stroke-width="0.7498" x1="30.721" y1="9.655" x2="30.72" y2="14.102"/>
				
					<rect x="37.432" y="21.128" transform="matrix(-0.3177 -0.9482 0.9482 -0.3177 29.4741 64.4539)" fill="#E95123" stroke="#1D1D1B" stroke-width="0.7498" width="0.99" height="0.99"/>
				
					<rect x="21.564" y="21.1" transform="matrix(0.3179 -0.9481 0.9481 0.3179 -5.427 35.6463)" fill="#E95123" stroke="#1D1D1B" stroke-width="0.7498" width="0.991" height="0.99"/>
				<path fill="none" d="M28.576,12.229c-0.064,0.026-2.979-0.31-3.432-0.528c-0.451-0.219-1.212-0.232-1.69,0.426L23.391,12.1
					c0,0-1.368-0.478-2.554,0.568c0,0-0.085,0.041-0.079,0.061c0.006,0.019,0,0.883,0.103,1.257s0.4,1.046,0.438,1.109
					c0.039,0.065,0.092,0.127,0.092,0.127l-0.079,0.105c0,0-0.117,0.161-0.136,0.2c-0.019,0.038-0.245,0.4-0.232,1.07
					c0.014,0.671,0.02,0.8,0.02,0.8l0.058,0.367l0.148,0.42l0.2,0.394l0.148,0.238l0.239,0.342l0.173,0.213
					c0,0,0.258,0.206,0.278,0.22c0.02,0.013,0.296,0.213,0.613,0.219c0.316,0.007,0.877,0.02,1.444-0.606
					c0.569-0.625,0.421-1.155,0.271-1.438c-0.161-0.303-0.787-0.728-1.058-0.161c-0.131,0.276,0.123,0.497,0.154,0.523
					c0.033,0.025-0.433,0.093-0.677-0.071c-0.297-0.2-0.445-0.555-0.361-0.878c0,0-0.023-0.234,0.316-0.489
					c0.051-0.039,0.135-0.059,0.135-0.059l0.149-0.064l0.104-0.039l0.087-0.003c0,0,0.183,0.003,0.254-0.016
					c0.071-0.02,0.167-0.039,0.187-0.071c0.019-0.031,0.09-0.064,0.104-0.116c0.013-0.052,0.027-0.1,0.019-0.161
					c-0.008-0.062-0.051-0.239-0.051-0.239s-0.156-0.831-0.014-1.218c0.142-0.387,0.207-0.479,0.207-0.479l0.021-0.003l0.05,0.017
					c0,0,0.761,0.483,0.884,1.542c0.032,0.28,0,0.077,0,0.077s0.097,0.567,0.587,0.155l0.181-0.04c0,0,0.239-0.058,0.386-0.052
					c0.149,0.008,0.194,0.04,0.22,0.046s0.303,0.058,0.407,0.354c0.103,0.297,0.045,0.497,0.045,0.497l-0.11,0.335l-0.193,0.226
					l-0.2,0.161l-0.165,0.093c0,0,0.081-0.39-0.022-0.557c-0.104-0.168-0.104-0.155-0.143-0.168
					c-0.038-0.013-0.167-0.045-0.167-0.045l-0.084,0.032l-0.09,0.025l-0.097,0.046l-0.077,0.071l-0.071,0.076l-0.033,0.052
					l-0.032,0.098l0.025,0.167c0,0,0.148,1.045,0.749,1.438c0.599,0.394,0.658,0.438,1.147,0.438c0.49,0,0.49-0.052,0.49-0.052
					l0.058-0.013l0.077-0.006l0.143-0.046c0,0,0.251-0.104,0.29-0.174c0.039-0.071,0.987-0.612,1.013-1.49
					c0.013-0.445-0.022-0.363-0.022-0.363s-0.997-0.007-1.726,1.086c-0.026,0.039-0.022,0.065-0.022,0.065v0.427l-0.268-0.015
					l0.012-3.737h0.298l-0.007,0.08l0.026,0.064l0.02,0.116l0.032,0.097c0,0,0.219,0.78,1.09,0.909
					c0.597,0.089,0.567,0.007,0.567,0.007l0.021-0.677c0,0,0,0-0.008-0.04c-0.008-0.039-0.032-0.109-0.032-0.109l-0.045-0.083
					l-0.064-0.117l-0.103-0.135l-0.097-0.148l-0.245-0.207l-0.239-0.167l-0.19-0.102c-0.156-0.032-0.426,0-0.426,0v-0.389L32,14.087
					v0.388c0,0-0.27-0.03-0.426,0l-0.189,0.103l-0.24,0.167l-0.245,0.207L30.804,15.1l-0.104,0.135l-0.064,0.116l-0.046,0.084
					c0,0-0.024,0.07-0.032,0.109c-0.008,0.04-0.008,0.04-0.008,0.04l0.021,0.676c0,0-0.029,0.082,0.568-0.006
					c0.871-0.129,1.089-0.909,1.089-0.909l0.033-0.097l0.019-0.116l0.026-0.065l-0.008-0.08h0.299l0.012,3.737l-0.268,0.016v-0.427
					c0,0,0.004-0.027-0.023-0.065c-0.728-1.093-1.725-1.086-1.725-1.086s-0.035-0.082-0.023,0.363
					c0.026,0.878,0.974,1.419,1.013,1.49c0.039,0.07,0.29,0.174,0.29,0.174l0.144,0.045l0.076,0.007l0.058,0.013
					c0,0,0,0.051,0.49,0.051c0.491,0,0.548-0.044,1.147-0.438c0.6-0.393,0.75-1.438,0.75-1.438l0.025-0.167l-0.032-0.097
					L34.5,17.111l-0.071-0.077l-0.077-0.07l-0.098-0.046l-0.09-0.025l-0.084-0.032c0,0-0.129,0.032-0.168,0.044
					c-0.039,0.014-0.039,0-0.141,0.169c-0.104,0.167-0.023,0.557-0.023,0.557l-0.165-0.093l-0.2-0.161L33.19,17.15l-0.109-0.336
					c0,0-0.058-0.199,0.045-0.496c0.104-0.297,0.381-0.349,0.406-0.355c0.025-0.006,0.072-0.038,0.22-0.045
					c0.149-0.006,0.388,0.052,0.388,0.052l0.18,0.039c0.49,0.413,0.587-0.154,0.587-0.154s-0.032,0.202,0-0.078
					c0.122-1.058,0.884-1.541,0.884-1.541l0.051-0.016l0.021,0.002c0,0,0.063,0.091,0.207,0.478c0.14,0.387-0.015,1.219-0.015,1.219
					s-0.043,0.177-0.051,0.239c-0.008,0.062,0.006,0.11,0.02,0.161c0.013,0.052,0.084,0.084,0.104,0.115
					c0.02,0.033,0.115,0.053,0.186,0.072c0.072,0.019,0.254,0.016,0.254,0.016l0.09,0.003l0.102,0.039l0.148,0.064
					c0,0,0.084,0.02,0.136,0.058c0.339,0.255,0.316,0.49,0.316,0.49c0.084,0.322-0.064,0.678-0.36,0.878
					c-0.244,0.164-0.71,0.097-0.678,0.07c0.032-0.025,0.287-0.246,0.154-0.522c-0.271-0.567-0.896-0.142-1.058,0.162
					c-0.15,0.282-0.296,0.812,0.271,1.438c0.568,0.626,1.129,0.613,1.445,0.606c0.316-0.006,0.594-0.206,0.611-0.219
					c0.021-0.014,0.278-0.22,0.278-0.22l0.175-0.213l0.238-0.342l0.148-0.239l0.2-0.393l0.148-0.419l0.058-0.369
					c0,0,0.007-0.129,0.02-0.799c0.013-0.671-0.213-1.031-0.232-1.07s-0.135-0.2-0.135-0.2l-0.08-0.106c0,0,0.054-0.062,0.092-0.126
					c0.039-0.064,0.336-0.735,0.439-1.109c0,0,0.098-0.758,0.092-0.861c-0.005-0.104,0.02-0.349,0.02-0.349l-0.1-0.112
					c-1.186-1.045-2.553-0.567-2.553-0.567l-0.064,0.025c-0.479-0.658-1.239-0.645-1.689-0.426c-0.453,0.219-3.395,0.562-3.46,0.536
					l0.011,1.885l-0.002-0.036l-2.804,0.03L28.576,12.229z"/>
				<path fill="#B99F6D" stroke="#1D1D1B" stroke-width="0.7498" d="M21.378,18.552c0,0,0.312-0.427,0.853,0.085
					c0,0,0.427,0.343,0.683,0.796h0.311l-1.59-3.695l-0.059,0.37c0,0,0.231,1.053,0,1.449c0,0-0.253,0.341-0.537,0.113"/>
				
					<rect x="29.42" y="19.954" transform="matrix(-0.7076 -0.7067 0.7067 -0.7076 36.6875 56.1908)" fill="#004996" stroke="#1D1D1B" stroke-width="0.7498" width="1.101" height="1.1"/>
				<path fill="#008E5A" stroke="#1D1D1B" stroke-width="0.7498" d="M35.023,20.445l-1.343-0.169
					c-0.314-0.041-0.598,0.142-0.629,0.408c-0.033,0.268,0.191,0.516,0.504,0.556l1.346,0.172c0.314,0.039,0.597-0.144,0.632-0.409
					C35.565,20.734,35.338,20.487,35.023,20.445z"/>
				<path fill="#008E5A" stroke="#1D1D1B" stroke-width="0.7498" d="M24.995,20.403l1.344-0.171c0.313-0.04,0.596,0.144,0.628,0.41
					c0.034,0.268-0.192,0.516-0.504,0.555l-1.346,0.172c-0.313,0.039-0.597-0.143-0.631-0.41
					C24.453,20.692,24.681,20.443,24.995,20.403z"/>
				<circle fill="#FFFFFF" stroke="#1D1D1B" stroke-width="0.7498" cx="29.973" cy="16.752" r="0.622"/>
				<circle fill="#FFFFFF" stroke="#1D1D1B" stroke-width="0.7498" cx="24.71" cy="16.855" r="0.56"/>
				<circle fill="#FFFFFF" stroke="#1D1D1B" stroke-width="0.7498" cx="35.151" cy="16.821" r="0.56"/>
				<g>
					<path fill="#004996" d="M22.217,10.319c1.964-0.921,3.349-0.127,3.413-0.088l0.008,0.005l0.01,0.006
						c1.364,0.659,2.854,0.773,2.914,0.773l0.014,1.214c-0.064,0.025-2.979-0.31-3.432-0.529c-0.45-0.219-1.211-0.231-1.689,0.426
						l-0.065-0.025c0,0-1.367-0.478-2.554,0.567l-0.069-0.039C20.768,12.629,20.751,11.276,22.217,10.319z"/>
					<path fill="#004996" d="M37.739,10.313c-1.965-0.922-3.352-0.128-3.414-0.089l-0.008,0.006l-0.01,0.005
						c-1.364,0.66-2.91,0.794-2.971,0.794l0.029,1.193c0.064,0.026,2.98-0.31,3.432-0.528c0.451-0.22,1.211-0.232,1.689,0.426
						l0.064-0.026c0,0,1.367-0.478,2.553,0.568l0.066,0.024C39.17,12.687,39.219,11.224,37.739,10.313z"/>
				</g>
				<path fill="none" stroke="#1D1D1B" stroke-width="0.7498" d="M28.567,14.025l-0.002-3.019c-0.061,0-1.551-0.114-2.915-0.773
					l-0.01-0.006l-0.008-0.005c-0.063-0.039-1.448-0.833-3.413,0.088c-0.061,0.035-1.574,0.929-1.444,2.683l0.002,0.021
					l-0.002,0.022c0,0.009-0.046,0.951,0.427,1.864l0.192,0.312c0,0-0.524,0.625-0.438,1.393c0,0-0.163,1.208,0.549,2.176
					c0,0,0.948,1.912,2.652,0.547c0,0,1.11-0.938,0.128-1.876c0,0-0.597-0.383-0.811,0.171c0,0-0.085,0.384,0.17,0.512
					c0,0-0.724,0.213-1.023-0.512c0,0-0.341-0.896,0.768-1.108c0,0,0.683,0.085,0.555-0.426c0,0-0.342-1.152,0.171-1.877
					c0,0,0.726,0.298,0.94,1.577c0,0,0,0.641,0.596,0.214c1.151-0.341,1.194,0.427,1.194,0.427c0.256,0.81-0.639,1.193-0.639,1.193
					c0.084-0.341-0.043-0.64-0.043-0.64c-0.426-0.341-0.767,0.214-0.767,0.214c0.085,1.15,0.683,1.576,0.683,1.576
					c0.596,0.641,1.32,0.513,1.32,0.513c0.812-0.043,0.896-0.214,0.896-0.214c1.365-0.938,1.066-1.918,1.066-1.918
					c-0.213,0-0.469,0.085-0.469,0.085c-0.853,0.299-1.279,1.065-1.279,1.065v0.428h-0.255v-3.753h0.297
					c0.043,1.109,1.194,1.279,1.194,1.279h0.555v-0.683c-0.171-0.725-1.023-1.107-1.023-1.107h-0.426V14.08H32v0.389h-0.426
					c0,0-0.854,0.383-1.024,1.107v0.683h0.554c0,0,1.152-0.17,1.194-1.279h0.299v3.753h-0.256v-0.428c0,0-0.428-0.767-1.28-1.065
					c0,0-0.256-0.085-0.469-0.085c0,0-0.298,0.98,1.066,1.918c0,0,0.085,0.171,0.896,0.214c0,0,0.725,0.128,1.321-0.513
					c0,0,0.597-0.426,0.683-1.576c0,0-0.341-0.555-0.768-0.214c0,0-0.129,0.299-0.043,0.64c0,0-0.896-0.384-0.639-1.193
					c0,0,0.043-0.768,1.194-0.427c0.597,0.427,0.597-0.214,0.597-0.214c0.213-1.279,0.938-1.577,0.938-1.577
					c0.51,0.725,0.17,1.877,0.17,1.877c-0.129,0.511,0.555,0.426,0.555,0.426c1.108,0.213,0.768,1.108,0.768,1.108
					c-0.299,0.725-1.022,0.512-1.022,0.512c0.255-0.128,0.17-0.512,0.17-0.512c-0.214-0.554-0.812-0.171-0.812-0.171
					c-0.979,0.938,0.129,1.876,0.129,1.876c1.705,1.365,2.65-0.568,2.65-0.568c0.561-0.592,0.559-2.161,0.559-2.161
					c0.085-0.767-0.438-1.394-0.438-1.394l0.19-0.31c0.475-0.913,0.428-1.856,0.428-1.865l-0.002-0.022l0.002-0.021
					c0.129-1.755-1.384-2.647-1.443-2.683c-1.965-0.922-3.351-0.128-3.414-0.089l-0.008,0.005l-0.01,0.006
					c-1.365,0.66-2.91,0.793-2.971,0.793v3.032"/>
				<g>
					<path fill="none" stroke="#1D1D1B" stroke-width="0.7498" d="M28.576,12.229c-0.064,0.025-2.979-0.31-3.432-0.529
						c-0.45-0.219-1.211-0.231-1.689,0.426l-0.065-0.025c0,0-1.367-0.478-2.554,0.567"/>
					<path fill="none" stroke="#1D1D1B" stroke-width="0.7498" d="M39.104,12.662c-1.186-1.046-2.553-0.568-2.553-0.568
						l-0.064,0.026c-0.479-0.658-1.238-0.646-1.689-0.426c-0.451,0.219-3.367,0.555-3.432,0.528"/>
				</g>
			</g>
		</g>
		<g>
			<path fill="none" stroke="#000000" stroke-width="0.085" d="M29.456,17.266"/>
			<path fill="none" stroke="#000000" stroke-width="0.085" d="M30.734,17.266"/>
		</g>
		<path fill="#B99F6D" d="M17.934,72.981c0-0.245,0-0.477-0.02-0.567c-0.251,0-0.792,0.039-1.178,0.084
			c0.02-0.097,0.032-0.187,0.032-0.283s-0.013-0.187-0.032-0.283c0.585,0.02,0.875,0.032,1.673,0.032
			c0.799,0,1.088-0.013,1.635-0.032c-0.02,0.097-0.032,0.187-0.032,0.283s0.013,0.187,0.032,0.283
			c-0.348-0.045-0.888-0.084-1.146-0.084c-0.013,0.091-0.013,0.322-0.013,0.567v1.608c0,0.722,0.013,1.218,0.051,1.784
			c-0.141-0.013-0.315-0.032-0.528-0.032s-0.386,0.02-0.527,0.032c0.038-0.566,0.051-1.062,0.051-1.784V72.981z"/>
		<path fill="#B99F6D" d="M20.697,73.715c0-0.721-0.013-1.217-0.052-1.783c0.38,0.006,0.767,0.032,1.146,0.032
			c0.631,0,1.171-0.013,1.346-0.032c-0.014,0.078-0.026,0.154-0.026,0.271c0,0.135,0.012,0.193,0.026,0.29
			c-0.49-0.032-1.263-0.078-1.455-0.078c-0.032,0.471-0.032,0.934-0.032,1.404c0.56-0.014,0.972-0.026,1.461-0.052
			c-0.026,0.147-0.032,0.206-0.032,0.289c0,0.07,0.012,0.13,0.032,0.265c-0.49-0.039-0.973-0.059-1.461-0.059
			c0,0.271-0.007,0.547-0.007,0.824c0,0.271,0.007,0.548,0.019,0.805c0.483,0,0.979-0.026,1.475-0.083
			c-0.014,0.09-0.026,0.154-0.026,0.29c0,0.134,0.012,0.198,0.026,0.276c-0.232-0.007-0.535-0.032-1.127-0.032
			c-1.049,0-1.223,0.02-1.365,0.032c0.039-0.566,0.052-1.062,0.052-1.784V73.715z"/>
		<path fill="#B99F6D" d="M25.874,72.8c-0.135-0.366-0.386-0.553-0.779-0.553c-0.392,0-0.669,0.271-0.669,0.579
			c0,0.953,1.957,0.714,1.957,2.177c0,0.861-0.683,1.454-1.706,1.454c-0.464,0-0.85-0.135-1.037-0.277
			c0.084-0.295,0.142-0.527,0.187-0.816h0.123c0.07,0.373,0.366,0.695,0.888,0.695c0.502,0,0.753-0.297,0.753-0.658
			c0-0.971-1.918-0.714-1.918-2.175c0-0.889,0.683-1.378,1.448-1.378c0.464,0,0.811,0.123,1.057,0.315
			c-0.078,0.2-0.123,0.354-0.207,0.637H25.874z"/>
		<path fill="#B99F6D" d="M27.956,72.981c0-0.245,0-0.477-0.02-0.567c-0.251,0-0.792,0.039-1.178,0.084
			c0.02-0.097,0.032-0.187,0.032-0.283s-0.013-0.187-0.032-0.283c0.585,0.02,0.875,0.032,1.674,0.032
			c0.798,0,1.088-0.013,1.635-0.032c-0.02,0.097-0.032,0.187-0.032,0.283s0.013,0.187,0.032,0.283
			c-0.348-0.045-0.888-0.084-1.146-0.084c-0.013,0.091-0.013,0.322-0.013,0.567v1.608c0,0.722,0.013,1.218,0.052,1.784
			c-0.142-0.013-0.315-0.032-0.527-0.032c-0.213,0-0.387,0.02-0.529,0.032c0.039-0.566,0.052-1.062,0.052-1.784V72.981z"/>
		<path fill="#B99F6D" d="M30.802,73.715c0-0.721-0.012-1.217-0.051-1.783c0.141,0.013,0.315,0.032,0.527,0.032
			c0.213,0,0.386-0.02,0.528-0.032c-0.039,0.566-0.052,1.062-0.052,1.783v0.875c0,0.722,0.013,1.218,0.052,1.784
			c-0.143-0.013-0.315-0.032-0.528-0.032c-0.212,0-0.386,0.02-0.527,0.032c0.039-0.566,0.051-1.062,0.051-1.784V73.715z"/>
		<path fill="#B99F6D" d="M32.946,71.932c0.098,0.02,0.193,0.032,0.29,0.032s0.192-0.013,0.29-0.032
			c0.926,1.022,1.848,2.041,2.793,3.064c0-1.023,0-2.775-0.045-3.064c0.097,0.02,0.193,0.032,0.29,0.032s0.192-0.013,0.29-0.032
			c-0.104,1.873-0.104,2.73-0.104,4.442c-0.09-0.02-0.174-0.032-0.264-0.032s-0.174,0.013-0.251,0.032
			c-0.882-1.043-1.823-2.087-2.813-3.129c-0.014,0.482-0.014,1.017-0.014,1.5c0,1.03,0.02,1.39,0.039,1.629
			c-0.104-0.02-0.205-0.032-0.303-0.032c-0.096,0-0.199,0.013-0.296,0.032c0.032-0.188,0.129-1.849,0.129-3.161
			C32.978,72.633,32.953,72.241,32.946,71.932z"/>
		<path fill="#B99F6D" d="M41.607,72.891c-0.271-0.386-0.683-0.644-1.269-0.644c-0.799,0-1.623,0.663-1.623,2.015
			c0,1.023,0.574,1.797,1.564,1.797c0.219,0,0.6-0.046,0.702-0.116C41,75.84,41,75.679,41,75.491c0-0.695-0.038-0.983-0.045-1.107
			c0.084,0.013,0.213,0.032,0.477,0.032c0.31,0,0.438-0.02,0.521-0.032c-0.031,0.136-0.051,0.671-0.051,1.082
			c0,0.271,0.006,0.611,0.02,0.708c-0.561,0.16-1.152,0.283-1.719,0.283c-1.481,0-2.543-0.844-2.543-2.156
			c0-1.635,1.152-2.453,2.664-2.453c0.651,0,1.088,0.142,1.553,0.387c-0.071,0.219-0.143,0.438-0.181,0.656H41.607z"/>
	</g>
	<rect x="17.132" y="83.574" fill="none" width="25.714" height="12.928"/>
	<text transform="matrix(1 0 0 1 17.1323 92.334)" fill="#1A1A1A" font-family="'Raleway-Regular'" font-size="12">2577</text>
</g>
</svg>
