<?xml version="1.0" encoding="utf-8"?>
<!-- Generator: Adobe Illustrator 16.0.0, SVG Export Plug-In . SVG Version: 6.00 Build 0)  -->
<!DOCTYPE svg PUBLIC "-//W3C//DTD SVG 1.1//EN" "http://www.w3.org/Graphics/SVG/1.1/DTD/svg11.dtd">
<svg version="1.1" id="Layer_1" xmlns="http://www.w3.org/2000/svg" xmlns:xlink="http://www.w3.org/1999/xlink" x="0px" y="0px"
	 width="74px" height="76.5px" viewBox="0 0 74 76.5" enable-background="new 0 0 74 76.5" xml:space="preserve">
<g>
	<g>
		<polygon fill-rule="evenodd" clip-rule="evenodd" fill="#FFFFFF" points="61.395,56.022 61.401,56.014 61.439,56.014 
			61.395,56.022 		"/>
		<polygon fill-rule="evenodd" clip-rule="evenodd" fill="#FFFFFF" points="61.395,56.022 61.401,56.014 61.439,56.014 
			61.395,56.022 		"/>
		<path fill-rule="evenodd" clip-rule="evenodd" fill="#D4AC00" stroke="#1D1D1B" d="M19.878,2.441
			c0.803-0.519,1.5-1.268,2.143-1.241c-0.106,3.089-1.107,4.659-1.544,5.9c-0.545,2.009-4.277,4.045-4.044,4.633
			c1.49-0.724,2.598-1.16,4.088-1.928c0.027-0.491,0.233-1.081,0.545-1.624c3.66-4.51,9.061-1.625,11.667-4.018
			c0.026,0.053,0.026,0.125-0.054,0.259c-4.866,5.714-6.49,5.892-11.972,5.659c-1.856,1.295-3.713,1.545-4.455,2.401
			c0.25-0.026,0.509-0.054,0.741-0.054c1.652-0.205,3.687-1.57,4.357-1.473c3.856,0.215,5.713,0.804,7.285,2.732
			c-1.42-0.304-2.911,0.285-4.375,0.517c-2.008,0.465-5.847,0.358-7.624-1.24c-1.652,0.188-1.312,1.393-1.696,1.759
			c-1.134,1.776-2.679,2.651-3.349,3.909c0.741,0.18,1.518-0.642,2.286-1.284c3.481-3.144,7.338-2.394,10.016-1.009
			c-1.643,0.106-4.991,2.499-6.026,2.605c-1.312,0.697-4.5,0.51-5.892,0.099c-1.473,2.321-2.294,4.768-2.91,6.775
			c2.241-1.723,2.267-3.169,3.143-3.705c3.651-2.374,5.276-2.427,7.927-1.855c-0.536,0.303-0.67,0.231-1.75,1.204
			c-0.518,0.491-1.393,1.322-2.062,1.938c-1.928,1.901-4.169,2.883-6.82,2.599c-0.134,0.106-0.259,0.259-0.385,0.437
			c0.233,2.786-0.625,5.356-0.463,6.83c0.714-0.438,0.848-1.421,1.178-2.269c0.339-1.009,0.625-1.964,0.955-2.375
			c2.036-2.445,5.535-3.963,6.803-3.606c-2.036,2.144-2.294,3.974-3.455,5.259c-1.367,2.365-4.348,2.803-5.276,3.499
			c0.491,2.884,1.053,4.893,1.616,7.267c0.598-2.65,0.107-3.526,0.571-5.23c0.384-1.955,3.759-5.224,5.482-5.455
			c-1.259,2.598-1.589,6.739-2.705,7.927c-0.67,1.571-2.929,1.911-3.036,3.116c1.161,2.115,2.419,3.865,3.428,5.82
			c0.054-0.107,0.071-0.232,0.071-0.384c-0.276-1.938-1.259-3.482-0.901-4.999c0.884-3.089,1.16-4.17,3.633-6.178
			c-0.356,2.981,0.081,4.169,0.054,5.303c-0.054,2.678-0.178,3.525-1.884,5.767c-2.08,1.446,1.545,1.804,1.938,2.58
			c1.286,1.053,1.848,1.929,2.473,2.954c-0.598-1.544-2.375-3.623-2.214-4.48c-0.313-2.901,0.357-5.838,1.776-7.052
			c-0.106,1.187,0.714,2.759,1.179,4.195c0.75,2.58,1.268,3.66,0.258,6.65c-0.151,0.92-1.231,0.642,0.153,1.875
			c2.865,1.445,4.436,2.008,5.722,2.909c0.054-0.097,0.027-0.231-0.152-0.491c-1.161-1.312-1.732-1.57-2.294-2.106
			c-2.625-3.222-2.581-5.998-1.447-8.729c0,0.151,0.054,0.304,0.161,0.535c0.643,1.294,1.437,2.089,2.187,3.142
			c1.616,1.982,2.598,4.999,1.928,7.554c0.107,1.437,2.5,1.409,4.277,1.231c1.258-0.18,2.366,0.82,2.883,0.41
			c-0.33-0.723-0.384-0.491-0.956-0.821c-0.437-0.179-1.079-0.438-1.598-0.696c-2.856-0.67-5.375-6.9-4.374-8.239
			c0.107,0.231,0.232,0.438,0.572,0.75c0.33,0.329,0.821,0.767,1.383,1.205c3.508,1.802,5.517,6.383,5.535,8.373
			c1.964,1.589,4.07,0.384,3.893-1.599c-0.125-2.624,4.043-6.186,5.847-7.292c0.464-0.385,0.536-0.536,1.232-1.465
			c0.723,2.24-0.644,4.429-1.491,5.793c-0.723,2.35-5.946,2.831-5.356,4.375c1.723-1.384,4.329-0.535,5.696-0.715
			c0.41-0.053,0.562-0.053,1.518-1.133c-0.312-2.24-0.599-4.356,1.463-7.24c1.75-2.035,2.393-4.249,2.965-3.884
			c0.821,2.447,0.285,3.651,0.08,5.125c0,2.214-3.169,3.964-4.178,5.864c2.062-1.258,4.383-2.24,6.025-3.035
			c0.08-0.106,0.16-0.231,0.205-0.357c-0.33-2.034-1.134-2.659-0.82-5.149c0.106-2.241,2.088-5.749,1.883-7.133
			c2.34,2.955,1.822,5.329,1.795,6.847c0,1.544-1.848,3.677-2.232,4.686c0.875-1.392,2.286-3.043,3.366-3.552
			c1.91-0.339,1.884-1.241,0.981-2.089c-2.339-3.143-1.775-4.043-1.775-6.722c0.053-1.054,0.312-2.5-0.081-4.223
			c3.634,3.169,3.784,5.41,3.634,7.828c-0.412,1.93-0.902,2.295-0.795,3.785c0.768-1.544,1.518-2.758,2.42-4.142
			c0.15-0.776,1.409-1.599,0.848-2.116c-1.259-1.312-2.705-2.079-3.268-3.498c-1.598-3.482-0.804-3.812-2.321-7.188
			c2.321,0.671,3.964,2.731,5.07,4.428c1.241,2.473,0.231,3.812,0.981,6.187c0.286-0.393,0.18-0.42,0.286-0.831
			c0.482-2.517,0.902-4.578,1.179-5.069c0.929-1.054-0.357-1.749-1.67-2.089c-4.223-1.438-4.893-6.258-6.953-7.981
			c0.696-0.098,1.723,0.125,2.938,0.671c5.017,1.981,4.507,6.23,6.025,7.65c0.054-1.5-0.285-3.116-0.411-4.356
			c-0.366-1.18,1.026-3.581-1.964-2.982c-2.982,0.464-6.768-4.643-9.142-5.669c3.865-0.849,5.874,0.519,7.731,1.571
			c1.803,1.831,2.293,3.606,3.374,3.937c-0.188-1.231-1.241-2.954-1.651-3.963c-0.518-1.928-1.215-3.526-2.366-2.651
			c-3.347,1.545-8.444-2.5-10.944-2.803c1.365-1.009,2.42-0.875,3.32-1.036c1.001-0.179,3.554-0.259,5.205,0.83
			c1.777,0.974,2.231,2.393,3.883,2.491c-0.438-0.946-2.445-2.625-2.937-3.214c-0.411-0.393-1.544-3.25-2.214-2.473
			c-2.598,1.598-3.24,1.643-5.893,1.491c-2.348-0.18-4.249-0.956-6.105-0.821c3.633-3.196,5.642-2.5,7.722-2.625
			c2.419,0.821,3.535,1.589,4.714,1.438c-1.955-1.393-3.321-1.438-4.553-2.393c-2.884,0.615-5.125,0.356-7.499-1.518
			c-1.179-1.803-6.82-2.5-5.535-2.758c3.785-1.286,4.634-1.055,6.775-1.027c2.938,0.536,4.294,0.465,6.053,3.553
			c1.152,3.32,3.474,2.419,4.705,3.499c-0.276-0.901-1.491-1.258-2.009-1.829c-3.419-3.188-3.499-7.106-3.964-8.83
			c1.366,0.385,2.856,1.546,4.071,2.857c1.518,1.75,2.553,3.938,2.419,5.714c-0.536,1.963,0.724,3.784,1.571,5.355
			c1.625,1.856,2.16,2.009,3.062,3.455c0-0.232-0.045-0.464-0.232-0.777c-3.857-4.373-2.91-8.472-2.723-11.632
			c4.195,3.884,4.937,8.285,3.143,11.427c0.973,1.883-0.215,2.446,1.027,4.865c0.588,0.857,1.312,3.633,1.436,2.429
			c-0.669-1.473-1.079-3.348-1.123-4.437c0.044-2.339,0.82-4.991,1.793-7.231c1.732,2.393,1.366,2.544,1.786,4.276
			c0.276,2.749,0.509,3.473-0.884,6.258c-1.411,1.285-1.054,2.884-1.411,3.526c-0.616,1-0.134,1.874-0.054,3.062
			c0.312,1.419,0.152,3.606,0.518,3.089c0.232-2.49-0.053-4.375,0.491-5.82c1.107-2.599,1.776-3.598,3.731-5.973
			c0.822,2.759,0.643,3.713,0.304,5.463c-0.481,4.348-4.268,5.044-4.606,7.517c-0.357,0.67-0.545,0.179-0.82,1.519
			c-0.162,0.544-0.367,1.598-0.545,2.472c-0.179,0.902-0.33,1.626-0.49,2.349c1.213-1.295,0.642-1.981,1.062-2.758
			c0.973-2.009,0.589-2.295,3.624-5.045c0.724-0.598,1.83-1.445,2.938-2.24c0,3.445-1.027,5.82-3.188,8.034
			c-1.321,1.517-3.428,1.134-4.178,2.419c-2.625,2.447-3.883,5.41-4.223,6.793c1.366-1.106,1.57-2.392,2.295-3.187
			c1.285-1.598,2.062-2.169,4.659-3.428c0.849-0.356,2.134-0.848,3.429-1.286c-0.107,0.616-0.286,1.054-0.465,1.465
			c-2.99,5.303-5.793,6.231-8.99,6.105c-0.615,1.259-1.901,0.617-3.168,1.394c-1.393,0.687-3.062,2.829-3.035,3.811
			c0.125,0.019,0.285,0.072,0.464,0.126c3.526-4.043,7.57-4.098,11.355-4.303c-0.152,0.205-0.286,0.438-0.518,0.776
			c-5.125,5.589-7.954,4.169-11.999,3.991c-3.018,1.57-5.043,1.954-6.23,3.195c0.098,0.017,0.205,0.045,0.285,0.099
			c2.009-0.67,2.928-1.366,4.294-1.599c1.679-0.509,6.159,0.161,7.964,0.669c-2.473,2.116-4.821,2.679-6.57,2.759
			c-2.777,0.536-4.375-1.339-6.589-1.339c-3.169,1.696-4.847-0.312-6.884,1.205c5.384-0.715,7.759,0.107,12.008,2.5
			c-3.25,1.624-6.16,1.133-8.088,0.643c-2.241-0.045-3.812-4.088-5.303-2.366c1.107,0.259,2.518,1.803,2.928,2.991
			c-0.098,0-0.179-0.027-0.303-0.161c-0.135-0.125-0.312-0.357-0.492-0.589c-0.82-1.75-3.758-2.115-4.428-1.83
			c-2.062,0.384-2.268,2.419-2.883,2.553c0.071-1.366,1.982-2.99,2.571-2.91c-0.588-0.179-0.768-0.804-1.517-0.16
			c-1.777,1.909-2.419,2.035-3.633,2.499c-2.625,0.697-5.918,0.644-8.213-0.616c5-2.678,7.036-3.32,11.954-2.419
			c-0.027-0.054-0.054-0.08-0.188-0.179c-2.366-1.188-3.786-0.231-5.169-0.464c-0.42,0.232-1.678-1.187-2.429-0.724
			c-3.008,1.884-4.499,1.545-6.382,1.394c-1.518-0.027-5.018-1.598-5.848-2.679c3.741-0.901,6.722-1.419,9.712-0.205
			c1.081,0.464,3.375,1.83,2.366,0.589c-2.856-1.651-4.454-2.062-6.052-2.937c-2.419,0.312-3.937,0.777-5.82,0.285
			c-0.563-0.054-2.679-1.187-3.348-1.651c-0.589-0.384-2.955-2.57-2.981-3.24c2.188,0.125,5.249,0.384,6.874,1.106
			c2.036,0.466,3.705,3.5,5.044,2.99c-2.544-4.614-4.482-3.508-6.588-5.149c-1.884,0.205-3.812-0.313-5.928-2.116
			c-2.259-2.32-3.009-3.606-3.366-5.437c1.545,0.571,2.982,1.089,4.018,1.598c1.205,0.696,2.214,1.107,3.294,2.24
			c1.929,2.17,2.036,3.456,3.062,4.099c-0.331-1.474-1.463-3.115-2.062-4.125c-1.803-3.624-4.66-3.374-6.08-4.812
			c-3.116-2.91-3.678-6.642-3.473-8.292c2.911,2.319,5,3.427,6.151,6.257c0.857,1.232,0.697,3.963,1.419,3.606
			c-0.464-2.446-0.901-4.304-1.026-4.865c-2.142-3.893-2.062-3.169-2.91-3.919c-3.375-4.07-3.044-6.723-2.268-10.346
			c1.517,1.643,2.321,2.927,2.991,4.142c1.571,1.929,0.875,5.919,1.491,7.954c0.054-4.294,1.107-4.579-0.054-8.312
			c0.081-0.643-1.205-1.544-1.597-2.678c-1.259-3.249-0.59-7.187,1.312-9.48c0.777,1.651,1.312,3.374,1.598,4.768
			c0.75,2.105-0.562,5.847-0.669,7.052c0.08-0.081,0.161-0.33,0.259-0.67c0.848-2.134,2.062-3.633,1.517-5.534
			c0.93-1.49-0.589-2.651-0.41-4.071c-0.081-3.704,0.803-5.534,3.964-8.73c0.366,1.91,0.188,3.74,0.205,5.231
			c-0.071,2.393-1.981,4.99-3.16,7.213c0.152-0.393,0.464-0.696,1.259-1.499c0.518-0.492,1.232-1.206,1.67-1.804
			c0.83-1.134,1.089-2.268,1.883-3.759C15.067,8.234,16.924,4.627,19.878,2.441L19.878,2.441z"/>
		<path fill-rule="evenodd" clip-rule="evenodd" fill="#D4AC00" stroke="#1D1D1B" d="M24.03,20.491
			c0.41-0.356,0.696-0.49,1.285-0.75c0.312-0.151,0.723-0.304,1.089-0.385c0.358-0.07,0.67-0.07,1-0.097
			c0.312,0,0.643,0,0.955,0.044c0.616,0.161,1.232,0.465,1.928,0.599c0.027-0.161,0.107-0.312,0.232-0.385
			c0.107-0.053,0.232-0.053,0.286,0.045c0.08,0.106,0.053,0.286,0.053,0.697c0,0.437,0,1.106,0.027,1.598
			c0,0.491,0.045,0.821,0,1.009c-0.054,0.178-0.188,0.223-0.259,0.178c-0.08-0.054-0.134-0.204-0.161-0.365
			c-0.044-0.152-0.071-0.276-0.151-0.536c-0.098-0.259-0.259-0.599-0.438-0.875c-0.151-0.285-0.33-0.491-0.518-0.696
			c-0.179-0.205-0.357-0.384-0.51-0.518c-0.258-0.205-0.437-0.259-0.776-0.33c-0.33-0.027-0.616-0.055-0.973,0
			c-0.446,0.125-1.009,0.438-1.268,0.616c-0.125,0.098-0.179,0.179-0.232,0.259c-0.053,0.045-0.098,0.125-0.286,0.384
			c-0.152,0.259-0.455,0.723-0.669,1.231c-0.384,0.929-0.482,1.938-0.509,2.58c0,0.589,0.027,1.16,0.206,1.928
			c0.178,0.696,0.491,1.34,0.847,1.831c0.312,0.465,0.616,0.749,0.901,0.848c0.438,0.231,0.903,0.366,1.465,0.411
			c0.464,0.026,0.955,0,1.267-0.152c0.152-0.054,0.331-0.125,0.465-0.179c0.259-0.107,0.464-0.231,0.714-0.615
			c0.107-0.16,0.232-0.312,0.366-0.643c0.151-0.34,0.33-0.831,0.491-1.34c0.072,0.019,0.152,0.098,0.152,0.25
			c0.026,0.188,0,0.437-0.08,0.777c-0.179,0.722-0.616,1.49-1.285,1.901c-0.331,0.204-0.75,0.393-1.134,0.517
			c-0.697,0.206-1.205,0.232-1.776,0.107c-0.259-0.054-0.589-0.107-0.902-0.16c-0.643-0.125-1.258-0.411-1.749-0.821
			c-0.233-0.178-0.465-0.357-0.616-0.545c-0.34-0.438-0.491-0.768-0.724-1.356c-0.107-0.312-0.232-0.75-0.286-1.09
			c-0.071-0.33-0.125-0.589-0.125-0.795c-0.026-0.204-0.026-0.339,0-0.463c0-0.126,0.027-0.259,0.027-0.545
			c0.027-0.25,0.027-0.669,0.098-1.125c0.134-0.856,0.491-1.678,0.955-2.268C23.646,20.956,23.851,20.696,24.03,20.491L24.03,20.491
			z"/>
		<path fill-rule="evenodd" clip-rule="evenodd" fill="#D4AC00" stroke="#1D1D1B" d="M41.902,35.426
			c0.285-0.33,0.669-0.616,0.981-0.768c0.276-0.151,0.536-0.178,0.795-0.205c0.259,0,0.518-0.026,0.776,0.054
			c0.465,0.071,1,0.455,1.411,0.455c0.16,0,0.259-0.072,0.339-0.179c0.071-0.071,0.152-0.151,0.205-0.258
			c0.054,0.312,0.099,0.651,0.099,0.928c0.026,0.16,0.026,0.259,0,0.67c0,0.393-0.026,1.079-0.071,1.75
			c-0.054-0.02-0.107-0.046-0.161-0.153c-0.044-0.098-0.099-0.259-0.151-0.437c-0.125-0.616-0.49-1.339-0.822-1.75
			c-0.178-0.205-0.259-0.312-0.518-0.465c-0.41-0.23-0.794-0.312-0.981-0.205c-0.179,0.054-0.438,0.125-0.67,0.26
			c-0.151,0.071-0.276,0.178-0.384,0.303c-0.098,0.161-0.152,0.34-0.205,0.519c-0.08,0.179-0.125,0.384-0.151,0.518
			c0,0.286,0.053,0.535,0.285,0.999c0.125,0.259,0.304,0.518,0.741,0.831c0.411,0.303,1.08,0.643,1.518,0.875
			c0.419,0.258,0.625,0.41,0.83,0.535c0.357,0.232,0.741,0.544,0.974,0.982c0.188,0.356,0.339,0.75,0.41,1.026
			c0.026,0.259-0.045,0.393-0.045,0.954c0,0.26-0.026,0.617-0.178,1.001c-0.135,0.392-0.366,0.776-0.652,1.089
			c-0.509,0.615-1.026,0.741-1.437,0.821c-0.572,0.152-0.902,0.205-1.625,0.054c-0.26-0.054-0.536-0.161-0.849-0.26
			c-0.285-0.133-0.544-0.285-0.749-0.285c-0.18-0.027-0.277,0.054-0.357,0.134c-0.08,0.072-0.134,0.126-0.206,0.151
			c-0.079,0.027-0.151,0.027-0.205-0.259c-0.054-0.285-0.054-0.874-0.026-1.445c0.026-0.562,0.053-1.125,0.125-1.67
			c0.054,0,0.106,0.027,0.16,0.125c0.045,0.08,0.099,0.231,0.18,0.438c0.07,0.232,0.178,0.519,0.285,0.777
			c0.098,0.259,0.205,0.518,0.303,0.722c0.135,0.206,0.232,0.357,0.384,0.492c0.135,0.151,0.286,0.276,0.491,0.438
			c0.205,0.124,0.491,0.25,0.75,0.304c0.518,0.079,1.027-0.099,1.42-0.51c0.151-0.214,0.303-0.464,0.41-0.696
			c0.205-0.437,0.179-0.929,0.045-1.366c-0.152-0.464-0.18-0.955-0.741-1.365c-0.106-0.134-0.231-0.232-0.518-0.384
			c-0.259-0.188-0.644-0.419-0.982-0.598c-0.304-0.179-0.562-0.305-0.794-0.465c-0.232-0.152-0.438-0.33-0.562-0.482
			c-0.205-0.285-0.232-0.392-0.438-0.856c-0.08-0.205-0.16-0.481-0.188-0.822c-0.026-0.329,0-0.695,0.135-1.105
			C41.385,36.257,41.59,35.791,41.902,35.426L41.902,35.426z"/>
		<path fill-rule="evenodd" clip-rule="evenodd" fill="#D4AC00" stroke="#1D1D1B" d="M32.23,43.421
			c-0.026-0.125-0.16-0.15-0.205-0.098c-0.133,0.098-0.133,0.33-0.232,0.509c-0.134,0.259-0.366,0.366-0.625,0.464
			c-0.304,0.134-0.794,0.179-1.259,0.134c-0.258-0.053-0.517-0.134-0.696-0.205c-0.152-0.08-0.259-0.16-0.331-0.259
			c0.357-0.205,0.714-0.438,1.026-0.695c0.34-0.233,0.589-0.465,0.849-0.751c0.464-0.536,0.803-1.41,0.981-2.214
			c0.08-0.356,0.099-0.669,0.08-1.106c-0.026-0.411-0.106-0.93-0.231-1.34c-0.107-0.438-0.259-0.75-0.42-1.026
			c-0.356-0.598-0.643-0.901-1.151-1.339c-0.259-0.205-0.625-0.464-1.009-0.67c-0.411-0.178-0.848-0.312-1.286-0.366
			c-0.464-0.025-0.902,0-1.286,0.081c-0.392,0.08-0.723,0.206-0.955,0.312c-0.491,0.206-0.643,0.303-0.928,0.562
			c-0.152,0.125-0.331,0.312-0.518,0.518c-0.152,0.178-0.331,0.357-0.508,0.616c-0.393,0.562-0.697,1.339-0.804,2.008
			c-0.098,0.776-0.152,1.419,0.026,2.117c0.081,0.355,0.232,0.794,0.465,1.178c0.205,0.384,0.517,0.775,0.821,1.08
			c0.312,0.312,0.625,0.544,0.982,0.749c0.384,0.179,0.794,0.34,1.053,0.411c0.491,0.205,0.643,0.079,0.955,0.231
			c0.259,0.18,0.411,0.616,0.875,0.929c0.206,0.152,0.517,0.285,0.821,0.357c0.339,0.08,0.651,0.08,0.929,0.08
			c0.437-0.026,0.803-0.08,1.187-0.205c0.33-0.179,0.589-0.356,0.901-0.696c0.152-0.206,0.312-0.465,0.384-0.75
			C32.23,43.787,32.257,43.555,32.23,43.421z M28.312,43.68c-0.384-0.33-0.821-0.643-1.134-0.82
			c-0.723-0.394-1.009-0.206-1.491-0.233c-0.206,0-0.366,0.054-0.518,0.072c-0.572-0.821-0.795-1.589-0.822-2.49
			c-0.027-0.312-0.053-0.625-0.08-0.902c0-0.597,0.08-1.16,0.285-1.884c0.125-0.383,0.303-0.768,0.509-1.133
			c0.187-0.331,0.392-0.644,0.625-0.875c0.464-0.464,1.133-0.669,1.696-0.616c0.259,0.054,0.518,0.125,0.696,0.206
			c0.464,0.231,0.723,0.312,1.081,0.874c0.107,0.151,0.179,0.33,0.286,0.518c0.098,0.179,0.206,0.411,0.303,0.616
			c0.259,0.438,0.339,1.08,0.366,1.723c0.071,0.724,0.071,1.393-0.08,2.089c-0.098,0.589-0.286,1.312-0.821,2.036
			C28.954,43.188,28.642,43.475,28.312,43.68z"/>
		<polygon fill-rule="evenodd" clip-rule="evenodd" fill="#1D1D1B" points="36.519,31.48 51.018,31.48 51.018,32.355 36.519,32.355 
			36.519,47.28 35.644,47.28 35.644,32.355 21.146,32.355 21.146,31.48 35.644,31.48 35.644,17.411 36.519,17.411 36.519,31.48 		
			"/>
		<polygon fill-rule="evenodd" clip-rule="evenodd" fill="#D4AC00" stroke="#1D1D1B" points="40.771,25.256 42.472,28.305 
			47.678,18.977 49.548,19.003 42.579,30.379 38.535,25.22 40.771,25.256 		"/>
	</g>
	
		<text transform="matrix(1 0 0 1 0.7539 75.5518)" fill="#1D1D1B" stroke="#1D1D1B" font-family="'TimesNewRomanPSMT'" font-size="6.4948">Certificate No. GB2001075</text>
	
		<text transform="matrix(1 0 0 1 24.1113 69.248)" fill="#1D1D1B" stroke="#1D1D1B" font-family="'TimesNewRomanPSMT'" font-size="6.8366">ISO 9001 </text>
</g>
</svg>
