<?xml version="1.0" encoding="utf-8"?>
<!-- Generator: Adobe Illustrator 16.0.0, SVG Export Plug-In . SVG Version: 6.00 Build 0)  -->
<!DOCTYPE svg PUBLIC "-//W3C//DTD SVG 1.1//EN" "http://www.w3.org/Graphics/SVG/1.1/DTD/svg11.dtd">
<svg version="1.1" id="Layer_1" xmlns="http://www.w3.org/2000/svg" xmlns:xlink="http://www.w3.org/1999/xlink" x="0px" y="0px"
	 width="62px" height="62px" viewBox="0 0 62 62" enable-background="new 0 0 62 62" xml:space="preserve">
<g>
	<g>
		<g>
			<defs>
				<rect id="SVGID_1_" x="15.943" y="15.35" width="30.757" height="31.3"/>
			</defs>
			<clipPath id="SVGID_2_">
				<use xlink:href="#SVGID_1_"  overflow="visible"/>
			</clipPath>
			<path clip-path="url(#SVGID_2_)" fill="#FF5E15" d="M44.649,34.714c-1.817,0.111-4.209,1.929-6.514,2.973
				c-2.827,1.278-7.228,0.251-7.228,0.251c0.681-0.319,3.438-0.977,3.992-1.221c2.954-1.299,2.701-4.007,1.296-3.984
				c-1.857,0.031-2.949,0.488-6.654,0.994c-2.81,0.381-6.133,0.241-7.727,0.85c-2.25,0.859-5.872,6.642-5.872,6.642l5.602,5.429
				c0,0,3.469-3.415,5.155-3.415c3.848,0,4.002-0.054,7.573-0.245c1.52-0.082,1.835-0.145,2.704-0.438
				c4.629-1.564,9.6-5.732,9.69-6.233C46.879,35.154,45.608,34.654,44.649,34.714L44.649,34.714z M44.649,34.714"/>
			<path clip-path="url(#SVGID_2_)" fill="#FF5E15" d="M21.546,30.782c0.154,0.099,0.347,0.114,0.513,0.04
				c2.999-1.347,6.038-1.347,9.037,0c0.14,0.062,0.302,0.062,0.441,0c2.999-1.347,6.039-1.347,9.037,0
				c0.069,0.03,0.146,0.046,0.22,0.046c0.104,0,0.205-0.029,0.294-0.086c0.152-0.1,0.245-0.269,0.245-0.452V16.918
				c0-0.368-0.312-0.49-0.32-0.495c-1.608-0.723-3.26-1.089-4.904-1.089c-1.446,0-2.898,0.286-4.323,0.847v6.584
				c0,0.259-0.209,0.469-0.469,0.469c-0.258,0-0.469-0.21-0.469-0.469v-6.584c-1.424-0.561-2.876-0.847-4.323-0.847
				c-1.644,0-3.295,0.367-4.904,1.089c-0.009,0.004-0.32,0.165-0.32,0.495V30.33C21.3,30.513,21.393,30.682,21.546,30.782
				L21.546,30.782z M22.377,27.783c1.367-0.541,2.761-0.816,4.147-0.816c1.566,0,3.144,0.35,4.683,1.043
				c0.069,0.031,0.149,0.031,0.22,0c1.538-0.693,3.116-1.043,4.682-1.043c1.387,0,2.779,0.275,4.146,0.816v1.741
				c-1.385-0.522-2.794-0.786-4.201-0.786c-1.588,0-3.182,0.337-4.737,1.004c-1.556-0.667-3.148-1.004-4.738-1.004
				c-1.406,0-2.815,0.264-4.201,0.786V27.783z M22.377,27.783"/>
		</g>
	</g>
	<circle fill="none" stroke="#FF5E15" stroke-width="3" stroke-miterlimit="10" cx="31" cy="31" r="29"/>
</g>
</svg>
