<?xml version="1.0" encoding="utf-8"?>
<!-- Generator: Adobe Illustrator 16.0.0, SVG Export Plug-In . SVG Version: 6.00 Build 0)  -->
<!DOCTYPE svg PUBLIC "-//W3C//DTD SVG 1.1//EN" "http://www.w3.org/Graphics/SVG/1.1/DTD/svg11.dtd">
<svg version="1.1" id="Layer_1" xmlns="http://www.w3.org/2000/svg" xmlns:xlink="http://www.w3.org/1999/xlink" x="0px" y="0px"
	 width="62px" height="62px" viewBox="0 0 62 62" enable-background="new 0 0 62 62" xml:space="preserve">
<g>
	<g>
		<path fill="#FF5E15" d="M41.902,18.492v18.59c0,2.511-2.033,4.561-4.543,4.561H17.968v0.186c0,2.573,2.092,4.661,4.666,4.661
			h18.72c2.57,0,4.635-2.085,4.635-4.655V23.118C45.988,20.736,44.234,18.774,41.902,18.492L41.902,18.492z M41.902,18.492"/>
		<path fill="#FF5E15" d="M39.161,37.082v-20.33c0-0.998-0.804-1.827-1.802-1.827H35.75v7.243c0,0.255-0.157,0.486-0.392,0.583
			c-0.234,0.095-0.506,0.042-0.688-0.136l-1.898-1.903c-0.248-0.244-0.646-0.244-0.892,0l-1.902,1.903
			c-0.179,0.178-0.44,0.234-0.675,0.136c-0.234-0.101-0.377-0.328-0.377-0.583v-7.243H17.029c-0.996,0-1.799,0.829-1.799,1.827
			v20.33c0,0.995,0.803,1.818,1.799,1.818h20.33C38.357,38.9,39.161,38.077,39.161,37.082L39.161,37.082z M39.161,37.082"/>
	</g>
	<circle fill="none" stroke="#FF5E15" stroke-width="3" stroke-miterlimit="10" cx="31" cy="30.708" r="29"/>
</g>
</svg>
