<?xml version="1.0" encoding="utf-8"?>
<!-- Generator: Adobe Illustrator 16.0.0, SVG Export Plug-In . SVG Version: 6.00 Build 0)  -->
<!DOCTYPE svg PUBLIC "-//W3C//DTD SVG 1.1//EN" "http://www.w3.org/Graphics/SVG/1.1/DTD/svg11.dtd">
<svg version="1.1" id="Layer_1" xmlns="http://www.w3.org/2000/svg" xmlns:xlink="http://www.w3.org/1999/xlink" x="0px" y="0px"
	 width="62px" height="62px" viewBox="0 0 62 62" enable-background="new 0 0 62 62" xml:space="preserve">
<g>
	<g>
		<path fill="#FF5E15" d="M29.001,36.924c-0.498,0-0.901,0.402-0.901,0.9s0.403,0.901,0.901,0.901h3.998
			c0.498,0,0.9-0.403,0.9-0.901s-0.402-0.9-0.9-0.9H29.001z M29.001,36.924"/>
		<path fill="#FF5E15" d="M31,22.248c2.034,0,3.962,0.69,5.519,1.96l4.7-4.701C38.4,16.994,34.806,15.62,31,15.62
			c-3.806,0-7.4,1.374-10.218,3.887l4.7,4.7C27.037,22.938,28.965,22.248,31,22.248L31,22.248z M31,22.248"/>
		<path fill="#FF5E15" d="M42.493,20.781l-4.701,4.7c0.565,0.692,1.016,1.459,1.34,2.274c1.007,0.282,1.834,0.52,2.273,0.647
			c0.559,0.162,1.059,0.507,1.408,0.973c0.35,0.465,0.541,1.042,0.541,1.623c0,0.583-0.191,1.159-0.541,1.624
			c-0.35,0.466-0.85,0.811-1.408,0.973c-0.439,0.128-1.267,0.365-2.273,0.646c-0.434,1.09-1.09,2.091-1.944,2.945
			c-0.352,0.352-0.352,0.922,0,1.273l2.75,2.75c-2.39,2.094-5.518,3.365-8.938,3.365s-6.547-1.271-8.937-3.365l2.749-2.75
			c0.353-0.352,0.353-0.922,0-1.273c-1.652-1.652-2.562-3.852-2.562-6.188c0-2.033,0.69-3.962,1.958-5.518l-4.7-4.7
			c-2.512,2.818-3.886,6.412-3.886,10.218c0,4.106,1.598,7.967,4.5,10.871l0.005,0.005c2.905,2.904,6.766,4.504,10.874,4.504
			s7.97-1.6,10.874-4.504c0,0,0-0.002,0.001-0.002c0.001-0.002,0.003-0.002,0.005-0.003c2.9-2.904,4.499-6.765,4.499-10.871
			C46.379,27.193,45.005,23.6,42.493,20.781L42.493,20.781z M42.493,20.781"/>
		<path fill="#FF5E15" d="M41.552,30.999c0-0.4-0.264-0.753-0.648-0.864c-1.41-0.41-8.514-2.45-9.903-2.45
			c-1.828,0-3.314,1.487-3.314,3.314s1.486,3.315,3.314,3.315c1.39,0,8.493-2.041,9.903-2.449
			C41.288,31.754,41.552,31.4,41.552,30.999L41.552,30.999z M41.552,30.999"/>
	</g>
	<circle fill="none" stroke="#FF5E15" stroke-width="3" stroke-miterlimit="10" cx="31" cy="31" r="29"/>
</g>
</svg>
