<?xml version="1.0" encoding="utf-8"?>
<!-- Generator: Adobe Illustrator 16.0.0, SVG Export Plug-In . SVG Version: 6.00 Build 0)  -->
<!DOCTYPE svg PUBLIC "-//W3C//DTD SVG 1.1//EN" "http://www.w3.org/Graphics/SVG/1.1/DTD/svg11.dtd">
<svg version="1.1" id="Layer_1" xmlns="http://www.w3.org/2000/svg" xmlns:xlink="http://www.w3.org/1999/xlink" x="0px" y="0px"
	 width="62px" height="62px" viewBox="0 0 62 62" enable-background="new 0 0 62 62" xml:space="preserve">
<g>
	<g>
		<path fill="#FF5E15" d="M37.439,27.347c-0.51,1.687-1.703,3.219-3.464,4.4l-0.319,2.5c-0.101,0.783-0.626,1.436-1.385,1.705
			c-0.219,0.073-0.445,0.111-0.677,0.111c-0.55,0-1.068-0.213-1.456-0.594l-1.676-1.64c-0.835,0.131-1.692,0.198-2.555,0.198
			c-0.029,0-0.056-0.004-0.084-0.004c-0.006,0.092-0.021,0.184-0.021,0.277c0,2.149,1.417,4.07,3.645,5.357l0.411,3.219
			c0.027,0.209,0.168,0.383,0.367,0.453c0.197,0.068,0.418,0.018,0.566-0.127l2.242-2.194c0.967,0.204,1.994,0.314,3.059,0.314
			c5.68,0,10.287-3.145,10.287-7.022C46.379,30.737,42.482,27.799,37.439,27.347L37.439,27.347z M36.092,35.659
			c-0.751,0-1.358-0.607-1.358-1.357c0-0.749,0.607-1.356,1.358-1.356c0.749,0,1.355,0.607,1.355,1.356
			C37.447,35.052,36.841,35.659,36.092,35.659L36.092,35.659z M40.002,35.659c-0.752,0-1.357-0.607-1.357-1.357
			c0-0.749,0.605-1.356,1.357-1.356c0.748,0,1.356,0.607,1.356,1.356C41.359,35.052,40.751,35.659,40.002,35.659L40.002,35.659z
			 M40.002,35.659"/>
		<path fill="#FF5E15" d="M28.967,32.188l2.24,2.191c0.105,0.104,0.245,0.158,0.388,0.158c0.062,0,0.121-0.011,0.181-0.029
			c0.197-0.07,0.34-0.246,0.366-0.453l0.411-3.219c2.227-1.289,3.645-3.21,3.645-5.357c0-3.879-4.607-7.023-10.289-7.023
			c-5.681,0-10.287,3.144-10.287,7.023c0,3.878,4.606,7.022,10.287,7.022C26.973,32.501,28,32.391,28.967,32.188L28.967,32.188z
			 M29.818,24.12c0.752,0,1.358,0.607,1.358,1.356c0,0.75-0.606,1.357-1.358,1.357c-0.75,0-1.356-0.606-1.356-1.357
			C28.462,24.728,29.068,24.12,29.818,24.12L29.818,24.12z M21.998,26.833c-0.749,0-1.357-0.606-1.357-1.357
			c0-0.749,0.608-1.356,1.357-1.356c0.751,0,1.358,0.607,1.358,1.356C23.356,26.227,22.75,26.833,21.998,26.833L21.998,26.833z
			 M24.553,25.477c0-0.749,0.606-1.356,1.355-1.356c0.751,0,1.358,0.607,1.358,1.356c0,0.75-0.607,1.357-1.358,1.357
			C25.159,26.833,24.553,26.227,24.553,25.477L24.553,25.477z M24.553,25.477"/>
	</g>
	<circle fill="none" stroke="#FF5E15" stroke-width="3" stroke-miterlimit="10" cx="31" cy="30.908" r="29"/>
</g>
</svg>
