<?xml version="1.0" encoding="utf-8"?>
<!-- Generator: Adobe Illustrator 16.0.0, SVG Export Plug-In . SVG Version: 6.00 Build 0)  -->
<!DOCTYPE svg PUBLIC "-//W3C//DTD SVG 1.1//EN" "http://www.w3.org/Graphics/SVG/1.1/DTD/svg11.dtd">
<svg version="1.1" xmlns="http://www.w3.org/2000/svg" xmlns:xlink="http://www.w3.org/1999/xlink" x="0px" y="0px" width="1024px"
	 height="512px" viewBox="0 0 1024 512" enable-background="new 0 0 1024 512" xml:space="preserve">
<g id="background">
	<rect fill="#005288" stroke="#005288" width="1024" height="512"/>
</g>
<g id="molecules">
	<g>
		<defs>
			<rect id="SVGID_1_" width="1024" height="512"/>
		</defs>
		<clipPath id="SVGID_2_">
			<use xlink:href="#SVGID_1_"  overflow="visible"/>
		</clipPath>
		<g clip-path="url(#SVGID_2_)">
			<path opacity="0.2" fill="#0567A7" d="M977.311,114.999c5.538,1.631,8.693,7.43,7.049,12.954
				c-1.646,5.522-7.467,8.676-13.007,7.046c-5.535-1.631-8.691-7.429-7.046-12.952C965.952,116.524,971.774,113.37,977.311,114.999z
				"/>
			<path opacity="0.2" fill="#0567A7" d="M1008.384,9.889c5.539,1.63,8.693,7.431,7.049,12.955
				c-1.645,5.521-7.467,8.676-13.007,7.045c-5.535-1.631-8.691-7.43-7.046-12.953S1002.85,8.258,1008.384,9.889z"/>
			<polygon opacity="0.2" fill="#0567A7" points="1003.166,28.579 977.187,115.796 975.894,115.416 1001.872,28.199 			"/>
			<polygon opacity="0.2" fill="#0567A7" points="1032.591,134.883 983.563,126.394 983.795,125.071 1032.825,133.559 			"/>
			<path opacity="0.2" fill="#0567A7" d="M931.761,114.683c-2.902-1.441-4.077-4.955-2.63-7.849c1.45-2.894,4.977-4.074,7.878-2.634
				c2.902,1.441,4.077,4.955,2.628,7.849C938.188,114.941,934.663,116.122,931.761,114.683z"/>
			
				<rect x="938.735" y="115.246" transform="matrix(-0.9408 -0.3389 0.3389 -0.9408 1809.8425 547.2375)" opacity="0.2" fill="#0567A7" width="27.918" height="0.755"/>
			<path opacity="0.2" fill="#0567A7" d="M965.671,9.509c-1.689,5.512-7.535,8.623-13.06,6.948
				c-5.524-1.673-8.636-7.497-6.949-13.008c1.69-5.509,7.538-8.62,13.06-6.947C964.248-1.823,967.358,4,965.671,9.509z"/>
			<path opacity="0.2" fill="#0567A7" d="M954.832,77.143c-1.689,5.511-7.535,8.62-13.062,6.946
				c-5.523-1.674-8.633-7.497-6.945-13.007c1.687-5.509,7.533-8.62,13.058-6.946C953.409,65.808,956.518,71.634,954.832,77.143z"/>
			<polygon opacity="0.2" fill="#0567A7" points="997.152,19.16 964.871,9.381 965.268,8.096 997.545,17.874 			"/>
			<polygon opacity="0.2" fill="#0567A7" points="945.209,64.496 954.181,15.674 955.507,15.915 946.535,64.737 			"/>
			
				<ellipse transform="matrix(0.2553 0.9669 -0.9669 0.2553 764.5958 -821.2774)" opacity="0.2" fill="#0567A7" cx="915.437" cy="85.705" rx="5.853" ry="5.873"/>
			
				<rect x="919.723" y="79.977" transform="matrix(-0.9312 0.3646 -0.3646 -0.9312 1821.5261 -183.1477)" opacity="0.2" fill="#0567A7" width="16.654" height="0.754"/>
			<path opacity="0.2" fill="#0567A7" d="M922.345,24.927c3.082,0.994,4.772,4.292,3.771,7.369
				c-1.001,3.077-4.312,4.766-7.398,3.772c-3.086-0.994-4.774-4.292-3.771-7.369C915.948,25.623,919.259,23.933,922.345,24.927z"/>
			
				<rect x="921.617" y="18.347" transform="matrix(-0.7841 0.6206 -0.6206 -0.7841 1680.8196 -547.2186)" opacity="0.2" fill="#0567A7" width="27.933" height="0.753"/>
			
				<rect x="1005.741" y="38.432" transform="matrix(0.6033 0.7975 -0.7975 0.6033 435.459 -797.8103)" opacity="0.2" fill="#0567A7" width="27.866" height="0.756"/>
			<path opacity="0.2" fill="#0567A7" d="M932.748,166.559c5.758,0.454,10.049,5.475,9.585,11.216
				c-0.463,5.74-5.507,10.026-11.266,9.576c-5.76-0.455-10.051-5.479-9.586-11.217C921.944,170.393,926.99,166.104,932.748,166.559z
				"/>
			<polygon opacity="0.2" fill="#0567A7" points="937.206,169.471 968.008,130.442 969.067,131.274 938.264,170.302 			"/>
			
				<rect x="1009.771" y="1.206" transform="matrix(0.8341 -0.5516 0.5516 0.8341 169.9653 568.4166)" opacity="0.2" fill="#0567A7" width="40.41" height="0.869"/>
		</g>
		<g opacity="0.2" clip-path="url(#SVGID_2_)">
			<path fill="#0567A7" d="M615.128,421.158c-7.498-0.11-13.481-6.261-13.361-13.734c0.119-7.474,6.295-13.441,13.795-13.331
				c7.499,0.114,13.48,6.264,13.361,13.737C628.805,415.304,622.629,421.271,615.128,421.158z"/>
			<path fill="#0567A7" d="M526.613,432.062c-7.498-0.111-13.481-6.261-13.362-13.736c0.118-7.474,6.296-13.442,13.796-13.33
				c7.498,0.111,13.482,6.264,13.361,13.734C540.289,426.207,534.112,432.175,526.613,432.062z"/>
			<path fill="#0567A7" d="M665.799,348.001c-7.5-0.111-13.482-6.261-13.363-13.735c0.118-7.474,6.296-13.442,13.793-13.329
				c7.5,0.112,13.483,6.261,13.364,13.735C679.474,342.147,673.297,348.113,665.799,348.001z"/>
			
				<rect x="555.919" y="478.272" transform="matrix(-0.016 0.9999 -0.9999 -0.016 1103.8378 -128.066)" fill="#0567A7" width="118.038" height="1.75"/>
			
				<rect x="538.928" y="412.312" transform="matrix(-0.995 0.0997 -0.0997 -0.995 1180.8373 767.3476)" fill="#0567A7" width="64.629" height="1.744"/>
			<polygon fill="#0567A7" points="659.775,344.594 623.138,397.685 621.695,396.695 658.334,343.608 			"/>
			<path fill="#0567A7" d="M554.108,491.996c-4.211-0.062-7.57-3.517-7.502-7.711c0.067-4.197,3.534-7.548,7.744-7.484
				c4.21,0.064,7.569,3.516,7.502,7.712C561.786,488.709,558.318,492.058,554.108,491.996z"/>
			<path fill="#0567A7" d="M495.268,390.059c-2.158-3.601-0.976-8.266,2.64-10.42c3.615-2.153,8.296-0.98,10.455,2.621
				c2.158,3.602,0.976,8.266-2.639,10.42C502.106,394.833,497.427,393.66,495.268,390.059z"/>
			
				<rect x="502.236" y="399.422" transform="matrix(-0.6094 -0.7929 0.7929 -0.6094 508.5643 1050.3744)" fill="#0567A7" width="21.568" height="0.982"/>
			<path fill="#0567A7" d="M700.639,337.678c2.917,1.063,4.414,4.281,3.345,7.191c-1.071,2.906-4.302,4.401-7.219,3.337
				c-2.917-1.062-4.414-4.281-3.346-7.189C694.49,338.108,697.721,336.613,700.639,337.678z"/>
			
				<rect x="677.887" y="339.891" transform="matrix(0.9726 0.2326 -0.2326 0.9726 97.9375 -150.179)" fill="#0567A7" width="15.948" height="0.722"/>
			<polygon fill="#0567A7" points="550.728,490.084 530.158,519.889 529.349,519.333 549.918,489.531 			"/>
			<path fill="#0567A7" d="M580.346,372.836c-0.139,4.194-3.666,7.483-7.875,7.349c-4.207-0.136-7.503-3.646-7.364-7.841
				c0.141-4.194,3.664-7.485,7.874-7.348C577.188,365.131,580.485,368.642,580.346,372.836z"/>
			<polygon fill="#0567A7" points="578.365,376.173 607.892,397.16 607.319,397.958 577.795,376.97 			"/>
			<path fill="#0567A7" d="M681.283,502.825c-7.312-1.657-11.883-8.911-10.215-16.2c1.672-7.288,8.954-11.852,16.265-10.193
				c7.312,1.659,11.885,8.913,10.217,16.202C695.878,499.922,688.595,504.485,681.283,502.825z"/>
			<polygon fill="#0567A7" points="676.101,498.251 629.226,542.626 628.02,541.361 674.897,496.986 			"/>
			<path fill="#0567A7" d="M767.708,496.321c-7.496-0.28-13.338-6.562-13.048-14.033c0.288-7.469,6.597-13.295,14.092-13.016
				c7.494,0.282,13.336,6.564,13.048,14.035C781.512,490.776,775.201,496.604,767.708,496.321z"/>
			
				<rect x="707.178" y="553.417" transform="matrix(-0.0386 0.9993 -0.9993 -0.0386 1349.6799 -189.9215)" fill="#0567A7" width="118.044" height="1.749"/>
			
				<rect x="691.699" y="486.488" transform="matrix(-0.997 0.0773 -0.0773 -0.997 1483.5217 917.3149)" fill="#0567A7" width="64.629" height="1.745"/>
			<path fill="#0567A7" d="M825.131,482.167c4.115,0.883,6.729,4.925,5.84,9.025c-0.89,4.104-4.948,6.713-9.065,5.828
				c-4.115-0.882-6.729-4.925-5.839-9.027C816.958,483.892,821.016,481.283,825.131,482.167z"/>
			
				<rect x="780.346" y="487.181" transform="matrix(0.9953 0.0965 -0.0965 0.9953 50.7924 -74.7852)" fill="#0567A7" width="36.276" height="0.979"/>
			<path fill="#0567A7" d="M851.312,506.744c3.678-2.042,8.321-0.729,10.368,2.938c2.049,3.664,0.728,8.293-2.956,10.336
				c-3.678,2.044-8.319,0.729-10.369-2.936C846.31,513.416,847.632,508.788,851.312,506.744z"/>
			<path fill="#0567A7" d="M807.155,417.259c-7.392,1.27-14.412-3.672-15.681-11.037c-1.269-7.367,3.696-14.367,11.089-15.639
				c7.394-1.271,14.414,3.671,15.681,11.038C819.513,408.987,814.548,415.989,807.155,417.259z"/>
			<polygon fill="#0567A7" points="800.605,415.021 774.431,473.931 772.832,473.228 799.006,414.316 			"/>
			<path fill="#0567A7" d="M778.864,321.044c-4.661,1.353-9.537-1.315-10.892-5.959c-1.354-4.645,1.329-9.507,5.99-10.86
				c4.66-1.354,9.537,1.316,10.892,5.961C786.208,314.829,783.527,319.69,778.864,321.044z"/>
			<path fill="#0567A7" d="M726.182,344.581c-4.662,1.352-9.537-1.315-10.892-5.961c-1.354-4.644,1.328-9.506,5.988-10.859
				c4.663-1.354,9.539,1.314,10.892,5.959C733.524,338.364,730.844,343.227,726.182,344.581z"/>
			<path fill="#0567A7" d="M796.24,266.191c-4.663,1.354-9.539-1.314-10.893-5.96c-1.354-4.645,1.329-9.505,5.989-10.858
				c4.661-1.355,9.538,1.314,10.893,5.958C803.581,259.977,800.901,264.837,796.24,266.191z"/>
			
				<rect x="751.626" y="356.372" transform="matrix(0.2799 0.96 -0.96 0.2799 911.4639 -501.2166)" fill="#0567A7" width="76.396" height="1.133"/>
			
				<rect x="729.277" y="323.873" transform="matrix(-0.9221 0.3871 -0.3871 -0.9221 1567.4764 333.2132)" fill="#0567A7" width="41.818" height="1.129"/>
			
				<rect x="764.206" y="284.383" transform="matrix(0.3004 -0.9538 0.9538 0.3004 277.4443 948.1546)" fill="#0567A7" width="41.706" height="1.133"/>
			<path fill="#0567A7" d="M698.765,324.552c-2.022-1.817-2.184-4.924-0.358-6.944c1.826-2.018,4.945-2.179,6.969-0.362
				c2.024,1.817,2.184,4.927,0.357,6.944C703.907,326.208,700.787,326.372,698.765,324.552z"/>
			
				<rect x="704.643" y="326.961" transform="matrix(-0.8158 -0.5784 0.5784 -0.8158 1102.8795 1005.8421)" fill="#0567A7" width="13.972" height="0.634"/>
			<path fill="#0567A7" d="M815.824,253.197c2.007,0.104,3.549,1.811,3.442,3.813c-0.105,2-1.821,3.539-3.828,3.432
				c-2.009-0.102-3.55-1.81-3.443-3.809C812.102,254.631,813.817,253.092,815.824,253.197z"/>
			
				<rect x="802.01" y="257.359" transform="matrix(0.998 -0.0627 0.0627 0.998 -14.5633 51.1183)" fill="#0567A7" width="10.326" height="0.467"/>
			<path fill="#0567A7" d="M748.114,297.761c0.715,2.619-0.839,5.323-3.47,6.037c-2.629,0.714-5.341-0.832-6.055-3.451
				c-0.713-2.619,0.838-5.322,3.469-6.037C744.687,293.597,747.399,295.142,748.114,297.761z"/>
			
				<rect x="746.83" y="303.871" transform="matrix(-0.9493 -0.3143 0.3143 -0.9493 1383.0569 831.4062)" fill="#0567A7" width="23.468" height="0.634"/>
			<path fill="#0567A7" d="M857.419,347.229c-7.483-0.483-13.15-6.923-12.657-14.384c0.493-7.459,6.963-13.111,14.444-12.626
				c7.484,0.484,13.152,6.925,12.657,14.384C871.372,342.062,864.903,347.715,857.419,347.229z"/>
			<polygon fill="#0567A7" points="851.575,343.529 812.325,394.729 810.934,393.671 850.185,342.47 			"/>
			<path fill="#0567A7" d="M892.73,338.652c2.861,1.206,4.195,4.498,2.979,7.349c-1.212,2.852-4.515,4.184-7.375,2.976
				c-2.861-1.208-4.193-4.498-2.98-7.349C886.568,338.777,889.872,337.443,892.73,338.652z"/>
			<polygon fill="#0567A7" points="885.395,343.073 870.09,338.597 870.296,337.905 885.602,342.38 			"/>
			<path fill="#0567A7" d="M889.931,253.814c-4.425-1.982-6.397-7.166-4.405-11.579c1.992-4.414,7.196-6.383,11.622-4.4
				c4.426,1.981,6.398,7.165,4.405,11.578C899.561,253.828,894.357,255.797,889.931,253.814z"/>
			<path fill="#0567A7" d="M834.546,237.689c-4.428-1.982-6.399-7.165-4.409-11.579c1.995-4.413,7.198-6.384,11.625-4.402
				c4.426,1.982,6.397,7.166,4.404,11.579C844.174,237.702,838.972,239.672,834.546,237.689z"/>
			<polygon fill="#0567A7" points="858.654,322.852 890.124,253.164 891.157,253.628 859.69,323.314 			"/>
			
				<rect x="845.011" y="237.299" transform="matrix(-0.9535 -0.3013 0.3013 -0.9535 1619.9177 725.5696)" fill="#0567A7" width="41.802" height="1.13"/>
			
				<ellipse transform="matrix(-0.9914 0.131 -0.131 -0.9914 1682.8004 297.4229)" fill="#0567A7" cx="831.617" cy="204.066" rx="4.935" ry="4.918"/>
			
				<rect x="827.764" y="214.788" transform="matrix(-0.2446 -0.9696 0.9696 -0.2446 830.3445 1077.1001)" fill="#0567A7" width="13.946" height="0.633"/>
			<path fill="#0567A7" d="M881.694,216.202c-1.161,2.457-4.102,3.513-6.565,2.357c-2.466-1.157-3.523-4.084-2.36-6.543
				c1.162-2.457,4.101-3.512,6.566-2.357C881.799,210.816,882.857,213.745,881.694,216.202z"/>
			
				<rect x="873.753" y="227.536" transform="matrix(-0.5186 -0.855 0.855 -0.5186 1149.7999 1103.1135)" fill="#0567A7" width="23.414" height="0.635"/>
		</g>
		<g clip-path="url(#SVGID_2_)">
			<g>
				<path fill="#0567A7" d="M1012.886,149.111c0.658,4.338-2.324,8.39-6.662,9.048c-4.34,0.661-8.394-2.323-9.052-6.661
					c-0.659-4.339,2.323-8.391,6.662-9.052C1008.173,141.789,1012.226,144.771,1012.886,149.111z"/>
				
					<rect x="1009.508" y="160.856" transform="matrix(-0.9064 -0.4224 0.4224 -0.9064 1892.449 741.9937)" fill="#0567A7" width="37.816" height="1.025"/>
				<circle fill="#0567A7" cx="1010.924" cy="264.857" r="7.947"/>
				<circle fill="#0567A7" cx="961.662" cy="264.335" r="7.946"/>
				<circle fill="#0567A7" cx="972.291" cy="181.54" r="7.947"/>
				
					<rect x="932.015" y="222.13" transform="matrix(0.1294 -0.9916 0.9916 0.1294 620.8561 1152.3896)" fill="#0567A7" width="69.306" height="1.024"/>
				
					<rect x="968.762" y="263.535" transform="matrix(0.9999 0.0145 -0.0145 0.9999 3.9362 -14.3065)" fill="#0567A7" width="37.816" height="1.024"/>
				<path fill="#0567A7" d="M928.473,261.641c-2.352-0.738-3.658-3.241-2.92-5.593c0.738-2.349,3.242-3.658,5.596-2.917
					c2.349,0.736,3.656,3.24,2.917,5.592C933.327,261.072,930.824,262.379,928.473,261.641z"/>
				
					<rect x="933.68" y="259.569" transform="matrix(-0.9822 -0.188 0.188 -0.9822 1822.8954 692.6132)" fill="#0567A7" width="21.229" height="0.577"/>
				<circle fill="#0567A7" cx="933.351" cy="177.373" r="7.947"/>
				<circle fill="#0567A7" cx="933.382" cy="229.557" r="7.946"/>
				
					<rect x="940.557" y="179.198" transform="matrix(0.9906 0.137 -0.137 0.9906 33.6074 -128.9115)" fill="#0567A7" width="25.645" height="1.024"/>
				
					<rect x="914.53" y="202.871" transform="matrix(-0.0222 0.9998 -0.9998 -0.0222 1157.5251 -725.3022)" fill="#0567A7" width="37.816" height="1.024"/>
				<path fill="#0567A7" d="M914.533,245.86c-2.254,0.998-4.888-0.021-5.885-2.274c-0.997-2.256,0.021-4.889,2.273-5.884
					c2.255-0.999,4.889,0.021,5.885,2.274C917.805,242.229,916.785,244.864,914.533,245.86z"/>
				
					<rect x="915.216" y="235.966" transform="matrix(-0.862 0.507 -0.507 -0.862 1835.6467 -27.3246)" fill="#0567A7" width="12.654" height="0.573"/>
				<path fill="#0567A7" d="M910.574,195.223c2.434,0.38,4.1,2.661,3.719,5.096c-0.379,2.436-2.661,4.102-5.094,3.721
					c-2.437-0.38-4.1-2.662-3.72-5.095C905.858,196.511,908.14,194.843,910.574,195.223z"/>
				
					<rect x="909.146" y="188.692" transform="matrix(-0.6755 0.7374 -0.7374 -0.6755 1680.4001 -361.5665)" fill="#0567A7" width="21.229" height="0.575"/>
				<circle fill="#0567A7" cx="995.688" cy="204.211" r="4.462"/>
				
					<rect x="974.665" y="193.792" transform="matrix(0.7205 0.6935 -0.6935 0.7205 409.9682 -628.9996)" fill="#0567A7" width="21.228" height="0.575"/>
				
					<rect x="973.17" y="164.551" transform="matrix(0.736 -0.677 0.677 0.736 149.3632 712.765)" fill="#0567A7" width="30.707" height="0.664"/>
			</g>
			<g>
				<circle fill="#0567A7" cx="674.651" cy="326.807" r="4.965"/>
				<circle fill="#0567A7" cx="648.007" cy="371.653" r="4.966"/>
				
					<rect x="639.777" y="349.157" transform="matrix(-0.5125 0.8587 -0.8587 -0.5125 1300.524 -39.3537)" fill="#0567A7" width="43.311" height="0.64"/>
				<circle fill="#0567A7" cx="691.194" cy="338.698" r="2.788"/>
				
					<rect x="676.867" y="333.505" transform="matrix(0.8267 0.5626 -0.5626 0.8267 306.1538 -326.7151)" fill="#0567A7" width="13.269" height="0.359"/>
				<circle fill="#0567A7" cx="669.307" cy="383.706" r="4.966"/>
				<circle fill="#0567A7" cx="682.241" cy="353.772" r="4.966"/>
				<circle fill="#0567A7" cx="683.086" cy="413.253" r="4.966"/>
				
					<rect x="650.388" y="377.075" transform="matrix(-0.8547 -0.5191 0.5191 -0.8547 1025.2469 1041.7297)" fill="#0567A7" width="16.023" height="0.641"/>
				
					<rect x="663.896" y="368.448" transform="matrix(0.4175 -0.9087 0.9087 0.4175 58.522 828.8239)" fill="#0567A7" width="23.63" height="0.638"/>
				
					<rect x="664.497" y="398.252" transform="matrix(0.4242 0.9056 -0.9056 0.4242 750.3636 -382.9486)" fill="#0567A7" width="23.632" height="0.64"/>
				<path fill="#0567A7" d="M697.097,349.098c1.538-0.012,2.799,1.225,2.811,2.767c0.012,1.538-1.226,2.797-2.765,2.81
					c-1.541,0.011-2.799-1.225-2.812-2.766C694.32,350.369,695.557,349.111,697.097,349.098z"/>
				
					<rect x="686.736" y="352.69" transform="matrix(0.9924 -0.1231 0.1231 0.9924 -38.1911 87.7244)" fill="#0567A7" width="7.908" height="0.359"/>
				<circle fill="#0567A7" cx="674.353" cy="421.988" r="2.057"/>
				
					<rect x="674.664" y="418.306" transform="matrix(-0.6937 0.7203 -0.7203 -0.6937 1448.998 220.644)" fill="#0567A7" width="5.834" height="0.265"/>
				<circle fill="#0567A7" cx="688.287" cy="376.764" r="2.789"/>
				
					<rect x="673.348" y="380.247" transform="matrix(0.9128 -0.4083 0.4083 0.9128 -96.0669 310.8047)" fill="#0567A7" width="13.267" height="0.356"/>
				<circle fill="#0567A7" cx="700.269" cy="307.831" r="4.966"/>
				
					<rect x="675.567" y="317.273" transform="matrix(0.7935 -0.6085 0.6085 0.7935 -51.3386 483.8828)" fill="#0567A7" width="23.631" height="0.642"/>
				<circle fill="#0567A7" cx="633.307" cy="391.565" r="4.939"/>
				
					<rect x="633.039" y="381.347" transform="matrix(-0.5838 0.8119 -0.8119 -0.5838 1324.5054 84.1495)" fill="#0567A7" width="15.29" height="0.416"/>
				<circle fill="#0567A7" cx="682.971" cy="445.151" r="4.967"/>
				
					<rect x="671.809" y="428.675" transform="matrix(-0.0346 0.9994 -0.9994 -0.0346 1136.0093 -239.3807)" fill="#0567A7" width="23.63" height="0.64"/>
				<path fill="#0567A7" d="M704.148,457.688c-0.734-2.641,0.81-5.382,3.453-6.117c2.643-0.733,5.38,0.81,6.113,3.45
					c0.738,2.644-0.808,5.382-3.449,6.118S704.887,460.33,704.148,457.688z"/>
				<path fill="#0567A7" d="M714.749,474.979c2.647-0.718,5.374,0.849,6.091,3.497c0.716,2.648-0.853,5.372-3.5,6.088
					c-2.646,0.718-5.373-0.849-6.088-3.495C710.534,478.421,712.102,475.694,714.749,474.979z"/>
				<circle fill="#0567A7" cx="746.056" cy="467.013" r="4.966"/>
				<circle fill="#0567A7" cx="705.649" cy="510.671" r="4.965"/>
				
					<rect x="704.488" y="467.36" transform="matrix(-0.2609 -0.9654 0.9654 -0.2609 446.9119 1277.5219)" fill="#0567A7" width="16.024" height="0.641"/>
				
					<rect x="719.17" y="473.051" transform="matrix(0.929 -0.3701 0.3701 0.929 -123.2902 304.1581)" fill="#0567A7" width="23.631" height="0.641"/>
				
					<rect x="699.053" y="495.049" transform="matrix(-0.3173 0.9483 -0.9483 -0.3173 1406.202 -21.5786)" fill="#0567A7" width="23.63" height="0.642"/>
				<path fill="#0567A7" d="M760.034,473.873c1.124,1.053,1.184,2.818,0.13,3.941c-1.053,1.123-2.816,1.181-3.938,0.127
					c-1.127-1.052-1.183-2.814-0.13-3.938S758.911,472.821,760.034,473.873z"/>
				
					<rect x="748.844" y="472.006" transform="matrix(0.8036 0.5951 -0.5951 0.8036 428.8148 -355.2788)" fill="#0567A7" width="7.905" height="0.361"/>
				<circle fill="#0567A7" cx="693.299" cy="510.977" r="2.058"/>
				
					<rect x="695.17" y="510.499" transform="matrix(-0.999 0.0437 -0.0437 -0.999 1417.8174 990.2756)" fill="#0567A7" width="5.834" height="0.265"/>
				<circle fill="#0567A7" cx="734.577" cy="487.835" r="2.788"/>
				
					<rect x="719.406" y="484.576" transform="matrix(0.9426 0.3338 -0.3338 0.9426 203.4668 -214.5577)" fill="#0567A7" width="13.267" height="0.358"/>
				<circle fill="#0567A7" cx="730.861" cy="419.156" r="4.966"/>
				<circle fill="#0567A7" cx="702.962" cy="402.273" r="4.966"/>
				<circle fill="#0567A7" cx="762.008" cy="409.52" r="4.966"/>
				
					<rect x="715.113" y="428.783" transform="matrix(-0.6306 0.7761 -0.7761 -0.6306 1512.1464 138.4353)" fill="#0567A7" width="16.026" height="0.641"/>
				
					<rect x="705.116" y="410.46" transform="matrix(-0.8435 -0.5372 0.5372 -0.8435 1100.991 1142.3743)" fill="#0567A7" width="23.634" height="0.638"/>
				
					<rect x="734.725" y="413.914" transform="matrix(0.9548 -0.2971 0.2971 0.9548 -89.3667 240.5334)" fill="#0567A7" width="23.634" height="0.642"/>
				<path fill="#0567A7" d="M700.354,386.92c0.197-1.527,1.594-2.604,3.121-2.409c1.526,0.197,2.604,1.596,2.409,3.122
					c-0.198,1.526-1.596,2.604-3.121,2.409C701.232,389.844,700.154,388.446,700.354,386.92z"/>
				
					<rect x="699.264" y="393.599" transform="matrix(0.0126 -0.9999 0.9999 0.0126 300.6117 1091.9795)" fill="#0567A7" width="7.907" height="0.359"/>
				<circle fill="#0567A7" cx="769.476" cy="419.359" r="2.057"/>
				
					<rect x="763.48" y="415.545" transform="matrix(0.6197 0.7849 -0.7849 0.6197 617.7441 -443.4236)" fill="#0567A7" width="5.834" height="0.266"/>
				<circle fill="#0567A7" cx="726.566" cy="399.407" r="2.789"/>
				
					<rect x="722.43" y="407.956" transform="matrix(-0.2804 -0.9599 0.9599 -0.2804 541.7497 1222.3949)" fill="#0567A7" width="13.265" height="0.357"/>
				<circle fill="#0567A7" cx="716.261" cy="437.36" r="2.787"/>
				
					<rect x="706.34" y="445.641" transform="matrix(0.3567 -0.9342 0.9342 0.3567 42.1612 952.8712)" fill="#0567A7" width="13.267" height="0.361"/>
				
					<rect x="685.792" y="450.877" transform="matrix(-0.9107 -0.413 0.413 -0.9107 1142.4167 1149.0845)" fill="#0567A7" width="19.189" height="0.415"/>
				<path fill="#0567A7" d="M610.926,414.743c1.25,1.258,1.246,3.293-0.012,4.545c-1.26,1.25-3.295,1.245-4.546-0.012
					c-1.252-1.262-1.246-3.295,0.012-4.547C607.64,413.479,609.674,413.482,610.926,414.743z"/>
				<path fill="#0567A7" d="M627.726,427.52c1.25,1.256,1.244,3.294-0.016,4.543c-1.257,1.252-3.294,1.248-4.544-0.013
					c-1.253-1.257-1.245-3.294,0.012-4.544C624.439,426.252,626.472,426.26,627.726,427.52z"/>
				
					<rect x="606.552" y="404.702" transform="matrix(0.7091 -0.7051 0.7051 0.7091 -104.9874 555.3296)" fill="#0567A7" width="28.03" height="0.416"/>
				
					<rect x="609.39" y="423.146" transform="matrix(0.782 0.6233 -0.6233 0.782 398.4153 -292.3058)" fill="#0567A7" width="15.296" height="0.413"/>
				<circle fill="#0567A7" cx="654.857" cy="419.208" r="1.803"/>
				<circle fill="#0567A7" cx="631.718" cy="414.053" r="1.804"/>
				
					<rect x="645.845" y="415.481" transform="matrix(0.782 0.6233 -0.6233 0.782 400.803 -314.6304)" fill="#0567A7" width="8.587" height="0.233"/>
				<circle fill="#0567A7" cx="624.317" cy="439.425" r="1.804"/>
				
					<rect x="622.141" y="435.117" transform="matrix(-0.1187 0.9929 -0.9929 -0.1187 1131.0199 -133.3751)" fill="#0567A7" width="5.116" height="0.231"/>
				
					<rect x="633.193" y="412.826" transform="matrix(-0.9809 0.1945 -0.1945 -0.9809 1343.1042 694.0406)" fill="#0567A7" width="8.588" height="0.233"/>
				<circle fill="#0567A7" cx="610.059" cy="430.013" r="1.804"/>
				
					<rect x="604.759" y="424.108" transform="matrix(0.1775 0.9841 -0.9841 0.1775 918.4429 -250.4496)" fill="#0567A7" width="8.584" height="0.231"/>
				<circle fill="#0567A7" cx="644.67" cy="411.166" r="3.214"/>
				
					<rect x="632.035" y="401.76" transform="matrix(0.4818 0.8763 -0.8763 0.4818 683.6829 -352.243)" fill="#0567A7" width="15.292" height="0.415"/>
				<circle fill="#0567A7" cx="718.782" cy="372.559" r="4.941"/>
				
					<rect x="702.026" y="380.817" transform="matrix(0.7245 -0.6892 0.6892 0.7245 -67.1274 594.0872)" fill="#0567A7" width="15.295" height="0.413"/>
				<circle fill="#0567A7" cx="747.742" cy="352.144" r="3.215"/>
				<circle fill="#0567A7" cx="733.612" cy="336.468" r="3.215"/>
				
					<rect x="719.766" y="361.607" transform="matrix(-0.8278 0.5611 -0.5611 -0.8278 1544.1881 249.6293)" fill="#0567A7" width="28.031" height="0.416"/>
				
					<rect x="733.031" y="344.144" transform="matrix(-0.6524 -0.7579 0.7579 -0.6524 962.8898 1130.3546)" fill="#0567A7" width="15.296" height="0.412"/>
				<circle fill="#0567A7" cx="702.746" cy="341.393" r="1.804"/>
				<circle fill="#0567A7" cx="724.522" cy="350.759" r="1.805"/>
				
					<rect x="702.418" y="345.702" transform="matrix(-0.6526 -0.7577 0.7577 -0.6526 905.8336 1106.9904)" fill="#0567A7" width="8.587" height="0.233"/>
				<circle fill="#0567A7" cx="736.511" cy="327.205" r="1.805"/>
				
					<rect x="732.798" y="331.135" transform="matrix(0.3011 -0.9536 0.9536 0.3011 198.0771 932.7562)" fill="#0567A7" width="5.118" height="0.232"/>
				
					<rect x="714.354" y="350.661" transform="matrix(1 -0.0088 0.0088 1 -3.0444 6.3071)" fill="#0567A7" width="8.586" height="0.232"/>
				<path fill="#0567A7" d="M749.757,340.614c-0.835,0.543-1.954,0.31-2.497-0.525c-0.545-0.833-0.309-1.951,0.525-2.497
					c0.834-0.544,1.953-0.31,2.496,0.525C750.829,338.952,750.593,340.069,749.757,340.614z"/>
				
					<rect x="744.394" y="344.861" transform="matrix(0.0085 -1 1 0.0085 397.3355 1090.6946)" fill="#0567A7" width="8.586" height="0.232"/>
				
					<rect x="668.448" y="514.253" transform="matrix(-0.9578 0.2876 -0.2876 -0.9578 1479.7664 811.7955)" fill="#0567A7" width="23.633" height="0.641"/>
				<circle fill="#0567A7" cx="711.261" cy="351.188" r="3.214"/>
				
					<rect x="706.803" y="360.945" transform="matrix(-0.3105 -0.9506 0.9506 -0.3105 592.9664 1152.4253)" fill="#0567A7" width="15.296" height="0.414"/>
				<circle fill="#0567A7" cx="741.156" cy="376.694" r="3.213"/>
				
					<rect x="723.266" y="374.349" transform="matrix(0.98 0.1988 -0.1988 0.98 89.0722 -137.8564)" fill="#0567A7" width="15.294" height="0.413"/>
			</g>
			<g>
				<circle fill="#0567A7" cx="1012.878" cy="136.674" r="2.71"/>
				<path fill="#0567A7" d="M1015.535,105.613c1.49,0.13,2.595,1.443,2.462,2.936c-0.13,1.489-1.444,2.593-2.933,2.462
					c-1.493-0.129-2.596-1.443-2.467-2.934C1012.729,106.585,1014.044,105.482,1015.535,105.613z"/>
				
					<rect x="1002.162" y="122.222" transform="matrix(0.0871 -0.9962 0.9962 0.0871 803.7648 1121.8684)" fill="#0567A7" width="23.633" height="0.35"/>
				<circle fill="#0567A7" cx="1001.926" cy="134.769" r="1.521"/>
				
					<rect x="1003.276" y="135.303" transform="matrix(-0.9893 -0.146 0.146 -0.9893 1983.2344 416.3574)" fill="#0567A7" width="7.241" height="0.196"/>
				<path fill="#0567A7" d="M1004.668,107.714c-0.141,1.489-1.464,2.583-2.952,2.44c-1.492-0.141-2.582-1.464-2.444-2.953
					c0.144-1.492,1.468-2.584,2.957-2.443C1003.718,104.901,1004.811,106.225,1004.668,107.714z"/>
				<path fill="#0567A7" d="M1005.437,125.493c-0.143,1.489-1.465,2.583-2.953,2.441c-1.492-0.143-2.586-1.465-2.444-2.955
					c0.144-1.491,1.467-2.582,2.957-2.441C1004.485,122.68,1005.578,124.003,1005.437,125.493z"/>
				<circle fill="#0567A7" cx="988.175" cy="96.223" r="2.71"/>
				
					<rect x="1004.457" y="107.789" transform="matrix(0.9955 0.0947 -0.0947 0.9955 14.7496 -95.0098)" fill="#0567A7" width="8.743" height="0.349"/>
				
					<rect x="995.932" y="116.142" transform="matrix(0.0204 0.9998 -0.9998 0.0204 1098.1769 -888.2305)" fill="#0567A7" width="12.895" height="0.351"/>
				
					<rect x="988.548" y="101.65" transform="matrix(-0.7764 -0.6302 0.6302 -0.7764 1703.3927 807.9098)" fill="#0567A7" width="12.895" height="0.348"/>
				<circle fill="#0567A7" cx="995.879" cy="129.701" r="1.521"/>
				
					<rect x="996.645" y="127.591" transform="matrix(-0.8396 0.5432 -0.5432 -0.8396 1906.7834 -307.6071)" fill="#0567A7" width="4.315" height="0.196"/>
				<circle fill="#0567A7" cx="990.388" cy="89.856" r="1.122"/>
				
					<rect x="988.055" y="92.296" transform="matrix(0.3107 -0.9505 0.9505 0.3107 594.3656 1004.3353)" fill="#0567A7" width="3.184" height="0.143"/>
				<circle fill="#0567A7" cx="994.3" cy="115.381" r="1.521"/>
				
					<rect x="993.889" y="111.511" transform="matrix(-0.6436 0.7654 -0.7654 -0.6436 1724.9036 -580.0397)" fill="#0567A7" width="7.24" height="0.195"/>
				<circle fill="#0567A7" cx="1004.809" cy="152.086" r="2.709"/>
				
					<rect x="1002.37" y="144.052" transform="matrix(-0.449 0.8936 -0.8936 -0.449 1590.6042 -692.4551)" fill="#0567A7" width="12.895" height="0.349"/>
				<circle fill="#0567A7" cx="1017.782" cy="95.036" r="2.696"/>
				
					<rect x="1012.367" y="101.594" transform="matrix(0.1715 -0.9852 0.9852 0.1715 741.9543 1085.7294)" fill="#0567A7" width="8.345" height="0.227"/>
				<circle fill="#0567A7" cx="980.647" cy="80.53" r="2.711"/>
				
					<rect x="977.72" y="88.445" transform="matrix(-0.4045 -0.9145 0.9145 -0.4045 1301.2681 1024.5078)" fill="#0567A7" width="12.895" height="0.35"/>
				<circle fill="#0567A7" cx="965.232" cy="81.202" r="2.71"/>
				<circle fill="#0567A7" cx="956.169" cy="71.393" r="2.709"/>
				<circle fill="#0567A7" cx="944.464" cy="84.797" r="2.709"/>
				<circle fill="#0567A7" cx="953.925" cy="53.743" r="2.709"/>
				
					<rect x="956.414" y="76.314" transform="matrix(0.6556 0.7551 -0.7551 0.6556 388.6536 -699.1569)" fill="#0567A7" width="8.744" height="0.347"/>
				
					<rect x="943.907" y="77.914" transform="matrix(-0.6748 0.738 -0.738 -0.6748 1649.2668 -570.5966)" fill="#0567A7" width="12.895" height="0.349"/>
				
					<rect x="948.554" y="62.326" transform="matrix(-0.1278 -0.9918 0.9918 -0.1278 1015.0176 1017.6619)" fill="#0567A7" width="12.896" height="0.349"/>
				<circle fill="#0567A7" cx="936.42" cy="83.3" r="1.521"/>
				
					<rect x="937.768" y="83.76" transform="matrix(-0.9826 -0.1858 0.1858 -0.9826 1847.8999 340.8992)" fill="#0567A7" width="4.312" height="0.195"/>
				<circle fill="#0567A7" cx="959.918" cy="50.658" r="1.123"/>
				
					<rect x="956.059" y="51.893" transform="matrix(0.8802 -0.4746 0.4746 0.8802 90.0719 460.7471)" fill="#0567A7" width="3.182" height="0.145"/>
				<circle fill="#0567A7" cx="945.15" cy="71.84" r="1.521"/>
				
					<rect x="946.455" y="71.224" transform="matrix(-0.9939 0.1105 -0.1105 -0.9939 1902.2141 37.245)" fill="#0567A7" width="7.24" height="0.194"/>
				<circle fill="#0567A7" cx="963.309" cy="104.686" r="2.71"/>
				<circle fill="#0567A7" cx="981.025" cy="106.343" r="2.709"/>
				<path fill="#0567A7" d="M950.924,114.19c1.456,0.342,2.359,1.801,2.02,3.258c-0.347,1.456-1.805,2.36-3.26,2.016
					c-1.459-0.342-2.361-1.803-2.018-3.258C948.008,114.75,949.469,113.847,950.924,114.19z"/>
				
					<rect x="960.369" y="97.786" transform="matrix(0.2294 -0.9733 0.9733 0.2294 648.1289 1014.5191)" fill="#0567A7" width="8.746" height="0.349"/>
				
					<rect x="965.694" y="105.313" transform="matrix(0.9933 0.1158 -0.1158 0.9933 18.7535 -111.8557)" fill="#0567A7" width="12.895" height="0.349"/>
				
					<rect x="950.331" y="110.657" transform="matrix(-0.7298 0.6836 -0.6836 -0.7298 1730.847 -462.3408)" fill="#0567A7" width="12.895" height="0.351"/>
				<circle fill="#0567A7" cx="984.516" cy="113.746" r="1.522"/>
				
					<rect x="980.763" y="110.477" transform="matrix(0.4239 0.9057 -0.9057 0.4239 666.4327 -826.5454)" fill="#0567A7" width="4.313" height="0.195"/>
				<circle fill="#0567A7" cx="944.295" cy="113.77" r="1.122"/>
				
					<rect x="945.092" y="114.773" transform="matrix(-0.8995 -0.437 0.437 -0.8995 1748.002 631.8441)" fill="#0567A7" width="3.183" height="0.143"/>
				<circle fill="#0567A7" cx="970.115" cy="113.364" r="1.522"/>
				
					<rect x="963.195" y="109.573" transform="matrix(0.6709 0.7416 -0.7416 0.6709 399.5283 -680.8628)" fill="#0567A7" width="7.239" height="0.196"/>
				<circle fill="#0567A7" cx="966.15" cy="92.273" r="1.521"/>
				
					<rect x="962.133" y="87.238" transform="matrix(0.0862 0.9963 -0.9963 0.0862 969.5222 -882.3502)" fill="#0567A7" width="7.24" height="0.196"/>
				
					<rect x="967.902" y="80.455" transform="matrix(0.9997 -0.0253 0.0253 0.9997 -1.7253 24.6187)" fill="#0567A7" width="10.472" height="0.227"/>
				<circle fill="#0567A7" cx="1023.843" cy="76.675" r="1.754"/>
				<path fill="#0567A7" d="M1011.974,76.051c-0.913-0.321-1.395-1.322-1.075-2.236c0.323-0.916,1.322-1.396,2.234-1.074
					c0.917,0.32,1.396,1.321,1.075,2.235C1013.89,75.891,1012.889,76.371,1011.974,76.051z"/>
				
					<rect x="1013.219" y="85.339" transform="matrix(-0.3308 0.9437 -0.9437 -0.3308 1439.2057 -849.6743)" fill="#0567A7" width="15.295" height="0.227"/>
				
					<rect x="1014.04" y="75.441" transform="matrix(-0.9755 -0.2201 0.2201 -0.9755 1994.8303 373.3541)" fill="#0567A7" width="8.346" height="0.227"/>
				<circle fill="#0567A7" cx="1000.624" cy="86.585" r="0.985"/>
				<circle fill="#0567A7" cx="1013.214" cy="83.615" r="0.985"/>
				
					<rect x="1001.46" y="87.172" transform="matrix(-0.9755 -0.2202 0.2202 -0.9755 1963.7566 393.3645)" fill="#0567A7" width="4.683" height="0.127"/>
				<circle fill="#0567A7" cx="1010.816" cy="69.393" r="0.985"/>
				
					<rect x="1010.228" y="71.479" transform="matrix(-0.3263 -0.9453 0.9453 -0.3263 1274.1271 1051.131)" fill="#0567A7" width="2.792" height="0.127"/>
				
					<rect x="1008.302" y="85.468" transform="matrix(0.7981 -0.6025 0.6025 0.7981 152.4736 626.1429)" fill="#0567A7" width="4.686" height="0.126"/>
				<circle fill="#0567A7" cx="1020.057" cy="70.625" r="0.985"/>
				
					<rect x="1019.586" y="73.165" transform="matrix(-0.5883 -0.8086 0.8086 -0.5883 1563.9097 942.6859)" fill="#0567A7" width="4.684" height="0.126"/>
				<circle fill="#0567A7" cx="1007.541" cy="88.112" r="1.754"/>
				
					<rect x="1008.006" y="91.331" transform="matrix(-0.8155 -0.5787 0.5787 -0.8155 1784.7124 751.7878)" fill="#0567A7" width="8.343" height="0.226"/>
				<path fill="#0567A7" d="M982.721,125.931c-0.681,1.324-2.305,1.847-3.627,1.165c-1.328-0.68-1.849-2.306-1.168-3.629
					c0.68-1.324,2.305-1.847,3.63-1.166C982.879,122.981,983.399,124.607,982.721,125.931z"/>
				
					<rect x="978.613" y="118.261" transform="matrix(-0.3515 0.9362 -0.9362 -0.3515 1439.0798 -760.0749)" fill="#0567A7" width="8.342" height="0.227"/>
				<circle fill="#0567A7" cx="970.956" cy="141.613" r="1.753"/>
				<circle fill="#0567A7" cx="981.623" cy="145.952" r="1.754"/>
				
					<rect x="967.865" y="133.431" transform="matrix(0.5005 -0.8657 0.8657 0.5005 371.6129 911.2095)" fill="#0567A7" width="15.296" height="0.225"/>
				
					<rect x="972.105" y="143.648" transform="matrix(0.9175 0.3978 -0.3978 0.9175 137.7736 -376.5244)" fill="#0567A7" width="8.346" height="0.226"/>
				<circle fill="#0567A7" cx="995.611" cy="136.191" r="0.984"/>
				<circle fill="#0567A7" cx="982.688" cy="136.771" r="0.984"/>
				
					<rect x="990.27" y="134.898" transform="matrix(0.9175 0.3977 -0.3977 0.9175 135.5433 -383.6198)" fill="#0567A7" width="4.685" height="0.128"/>
				<circle fill="#0567A7" cx="982.401" cy="151.19" r="0.984"/>
				
					<rect x="980.61" y="148.865" transform="matrix(0.1451 0.9894 -0.9894 0.1451 986.8792 -844.2948)" fill="#0567A7" width="2.793" height="0.127"/>
				
					<rect x="983.228" y="135.301" transform="matrix(-0.8963 0.4435 -0.4435 -0.8963 1928.9309 -180.4538)" fill="#0567A7" width="4.684" height="0.128"/>
				<circle fill="#0567A7" cx="973.551" cy="148.263" r="0.984"/>
				
					<rect x="969.853" y="145.294" transform="matrix(0.4279 0.9038 -0.9038 0.4279 687.5865 -795.541)" fill="#0567A7" width="4.683" height="0.126"/>
				<circle fill="#0567A7" cx="972" cy="39.863" r="2.71"/>
				
					<rect x="959.018" y="45.617" transform="matrix(0.7367 -0.6762 0.6762 0.7367 223.215 664.8917)" fill="#0567A7" width="12.896" height="0.349"/>
				<circle fill="#0567A7" cx="935.133" cy="26.794" r="2.71"/>
				<circle fill="#0567A7" cx="941.716" cy="11.337" r="2.709"/>
				<circle fill="#0567A7" cx="966.423" cy="25.476" r="2.711"/>
				
					<rect x="942.386" y="18.173" transform="matrix(0.8669 0.4985 -0.4985 0.8669 136.1345 -473.1838)" fill="#0567A7" width="23.635" height="0.351"/>
				
					<rect x="931.971" y="19.395" transform="matrix(-0.3956 0.9184 -0.9184 -0.3956 1327.6089 -834.5621)" fill="#0567A7" width="12.894" height="0.349"/>
				<circle fill="#0567A7" cx="948.058" cy="2.205" r="1.521"/>
				
					<rect x="941.771" y="6.349" transform="matrix(0.5491 -0.8357 0.8357 0.5491 420.8728 793.0137)" fill="#0567A7" width="7.24" height="0.197"/>
				<circle fill="#0567A7" cx="972.809" cy="13.747" r="2.709"/>
				<circle fill="#0567A7" cx="956.36" cy="6.958" r="2.71"/>
				
					<rect x="965.091" y="19.58" transform="matrix(-0.5051 0.8631 -0.8631 -0.5051 1476.1854 -806.9748)" fill="#0567A7" width="8.745" height="0.35"/>
				
					<rect x="958.154" y="10.212" transform="matrix(-0.9154 -0.4026 0.4026 -0.9154 1843.4081 408.209)" fill="#0567A7" width="12.896" height="0.348"/>
				<circle fill="#0567A7" cx="955.2" cy="-1.145" r="1.522"/>
				
					<rect x="953.635" y="2.255" transform="matrix(-0.1396 -0.9902 0.9902 -0.1396 1086.9052 949.1147)" fill="#0567A7" width="4.316" height="0.198"/>
				<circle fill="#0567A7" cx="968.853" cy="3.453" r="1.521"/>
				
					<rect x="967.303" y="7.854" transform="matrix(-0.4232 -0.9061 0.9061 -0.4232 1374.5643 891.0316)" fill="#0567A7" width="7.24" height="0.199"/>
				<circle fill="#0567A7" cx="956.229" cy="29.895" r="1.521"/>
				
					<rect x="957.157" y="27.837" transform="matrix(-0.9161 0.4009 -0.4009 -0.9161 1852.1726 -331.6313)" fill="#0567A7" width="7.241" height="0.196"/>
				
					<rect x="964.321" y="32.649" transform="matrix(0.3445 0.9388 -0.9388 0.3445 666.2892 -888.727)" fill="#0567A7" width="10.471" height="0.227"/>
				<path fill="#0567A7" d="M943.982,39.372c-0.803,0.543-1.892,0.333-2.433-0.469c-0.546-0.802-0.334-1.892,0.466-2.435
					c0.803-0.543,1.895-0.333,2.436,0.469C944.996,37.74,944.785,38.83,943.982,39.372z"/>
				<path fill="#0567A7" d="M935.425,47.08c-0.801,0.543-1.891,0.333-2.436-0.467c-0.541-0.803-0.332-1.894,0.469-2.437
					c0.804-0.542,1.893-0.333,2.435,0.469C936.438,45.446,936.229,46.537,935.425,47.08z"/>
				
					<rect x="940.626" y="45.429" transform="matrix(0.5607 0.8281 -0.8281 0.5607 454.3311 -765.2101)" fill="#0567A7" width="15.295" height="0.225"/>
				
					<rect x="934.573" y="41.661" transform="matrix(-0.7582 0.652 -0.652 -0.7582 1677.7231 -538.6583)" fill="#0567A7" width="8.345" height="0.224"/>
				<circle fill="#0567A7" cx="929.388" cy="44.044" r="0.984"/>
				
					<rect x="930.201" y="44.61" transform="matrix(-0.9536 -0.301 0.301 -0.9536 1806.5361 367.7083)" fill="#0567A7" width="2.792" height="0.128"/>
				<circle fill="#0567A7" cx="935.885" cy="37.356" r="0.984"/>
				
					<rect x="936.745" y="37.34" transform="matrix(-1 -0.009 0.009 -1 1877.8038 83.221)" fill="#0567A7" width="4.686" height="0.127"/>
				<circle fill="#0567A7" cx="989.099" cy="133.407" r="1.754"/>
				
					<rect x="980.99" y="129.158" transform="matrix(0.6936 0.7204 -0.7204 0.6936 394.9968 -670.0786)" fill="#0567A7" width="8.345" height="0.227"/>
				<circle fill="#0567A7" cx="968.353" cy="127.99" r="1.753"/>
				
					<rect x="969.718" y="126.491" transform="matrix(-0.9687 0.2483 -0.2483 -0.9687 1948.7178 7.4407)" fill="#0567A7" width="8.344" height="0.226"/>
			</g>
			<g>
				<path fill="#0567A7" d="M751.993,365.618c-2.679-0.633-4.335-3.316-3.701-5.995c0.636-2.677,3.317-4.333,5.998-3.698
					c2.676,0.633,4.333,3.316,3.698,5.994C757.354,364.599,754.671,366.254,751.993,365.618z"/>
				<circle fill="#0567A7" cx="764.181" cy="366.405" r="2.064"/>
				
					<rect x="756.866" y="364.289" transform="matrix(0.8992 0.4375 -0.4375 0.8992 236.0173 -295.6901)" fill="#0567A7" width="5.855" height="0.266"/>
				<circle fill="#0567A7" cx="793.263" cy="372.853" r="4.983"/>
				
					<rect x="765.542" y="369.142" transform="matrix(0.9791 0.2033 -0.2033 0.9791 91.335 -150.3143)" fill="#0567A7" width="23.713" height="0.641"/>
				<circle fill="#0567A7" cx="773.2" cy="303.789" r="4.982"/>
				<path fill="#0567A7" d="M803.844,301.982c-2.736,0.281-5.184-1.713-5.462-4.45c-0.277-2.737,1.715-5.185,4.45-5.461
					c2.74-0.279,5.185,1.711,5.464,4.448C808.575,299.258,806.583,301.704,803.844,301.982z"/>
				<circle fill="#0567A7" cx="808.752" cy="349.083" r="4.984"/>
				
					<rect x="784.551" y="322.87" transform="matrix(0.1014 0.9948 -0.9948 0.1014 1046.0269 -511.708)" fill="#0567A7" width="43.454" height="0.644"/>
				
					<rect x="775.651" y="300.62" transform="matrix(-0.9766 0.2151 -0.2151 -0.9766 1621.3132 425.4411)" fill="#0567A7" width="23.712" height="0.641"/>
				<circle fill="#0567A7" cx="823.777" cy="296.69" r="2.796"/>
				
					<rect x="807.926" y="297.081" transform="matrix(0.9991 -0.0423 0.0423 0.9991 -11.8544 34.7522)" fill="#0567A7" width="13.31" height="0.362"/>
				<circle fill="#0567A7" cx="833.116" cy="346.029" r="4.983"/>
				<circle fill="#0567A7" cx="825.597" cy="314.187" r="4.982"/>
				
					<rect x="812.517" y="347.16" transform="matrix(-0.9956 0.0938 -0.0938 -0.9956 1670.0979 616.4375)" fill="#0567A7" width="16.08" height="0.644"/>
				
					<rect x="817.47" y="329.846" transform="matrix(-0.2075 -0.9782 0.9782 -0.2075 678.4353 1209.9543)" fill="#0567A7" width="23.709" height="0.644"/>
				<circle fill="#0567A7" cx="836.445" cy="303.758" r="2.798"/>
				
					<rect x="827.893" y="308.219" transform="matrix(0.7227 -0.6911 0.6911 0.7227 17.4956 660.4116)" fill="#0567A7" width="7.933" height="0.361"/>
				<path fill="#0567A7" d="M844.451,331.862c-1.54,0.117-2.884-1.034-3.001-2.575c-0.12-1.543,1.033-2.886,2.573-3.002
					c1.54-0.12,2.886,1.033,3.004,2.574C847.145,330.398,845.99,331.744,844.451,331.862z"/>
				
					<rect x="833.089" y="336.814" transform="matrix(0.4886 -0.8725 0.8725 0.4886 135.4267 905.0363)" fill="#0567A7" width="13.308" height="0.359"/>
				<circle fill="#0567A7" cx="791.215" cy="338.611" r="2.797"/>
				
					<rect x="792.368" y="343.118" transform="matrix(-0.8603 -0.5099 0.5099 -0.8603 1311.3475 1046.0192)" fill="#0567A7" width="13.311" height="0.36"/>
				
					<rect x="791.612" y="361.375" transform="matrix(-0.5612 0.8277 -0.8277 -0.5612 1550.1473 -98.7062)" fill="#0567A7" width="19.256" height="0.417"/>
				<circle fill="#0567A7" cx="765.034" cy="327.475" r="3.225"/>
				<circle fill="#0567A7" cx="744.342" cy="322.974" r="3.225"/>
				
					<rect x="745.257" y="343.32" transform="matrix(-0.3449 0.9386 -0.9386 -0.3449 1343.6876 -250.6853)" fill="#0567A7" width="28.124" height="0.417"/>
				
					<rect x="747.041" y="325.053" transform="matrix(-0.972 -0.2348 0.2348 -0.972 1411.9417 818.6564)" fill="#0567A7" width="15.345" height="0.416"/>
				<circle fill="#0567A7" cx="741.283" cy="313.729" r="1.81"/>
				
					<rect x="740.144" y="317.585" transform="matrix(-0.3114 -0.9503 0.9503 -0.3114 672.0639 1122.415)" fill="#0567A7" width="5.134" height="0.234"/>
				<circle fill="#0567A7" cx="758.239" cy="316.248" r="1.809"/>
				
					<rect x="757.301" y="320.968" transform="matrix(-0.5765 -0.8171 0.8171 -0.5765 938.2751 1128.5072)" fill="#0567A7" width="8.614" height="0.234"/>
			</g>
			<g>
				<path fill="#0567A7" d="M834.273,284.185c-1.466,1.759-1.23,4.373,0.524,5.843c1.754,1.469,4.365,1.234,5.829-0.521
					c1.464-1.759,1.229-4.375-0.523-5.844C838.349,282.194,835.739,282.429,834.273,284.185z"/>
				<path fill="#0567A7" d="M848.254,274.671c1.766,1.455,4.373,1.203,5.824-0.567c1.45-1.77,1.196-4.382-0.569-5.838
					c-1.765-1.455-4.373-1.202-5.824,0.569C846.234,270.603,846.489,273.217,848.254,274.671z"/>
				<path fill="#0567A7" d="M866.673,294.703c1.765,1.455,4.373,1.2,5.826-0.568c1.452-1.769,1.196-4.384-0.57-5.838
					c-1.767-1.455-4.373-1.2-5.824,0.568C864.653,290.635,864.908,293.248,866.673,294.703z"/>
				<path fill="#0567A7" d="M850.952,247.578c1.767,1.456,4.376,1.201,5.827-0.566c1.449-1.77,1.194-4.382-0.57-5.839
					c-1.765-1.456-4.373-1.201-5.825,0.568C848.934,243.509,849.188,246.124,850.952,247.578z"/>
				
					<rect x="837.354" y="279.185" transform="matrix(-0.6343 0.7731 -0.7731 -0.6343 1595.4681 -195.789)" fill="#0567A7" width="13.372" height="0.534"/>
				
					<rect x="850.174" y="281.212" transform="matrix(0.6934 0.7205 -0.7205 0.6934 466.4695 -533.3808)" fill="#0567A7" width="19.72" height="0.534"/>
				
					<rect x="842.43" y="257.55" transform="matrix(0.1007 -0.9949 0.9949 0.1007 509.9322 1079.8065)" fill="#0567A7" width="19.737" height="0.533"/>
				<circle fill="#0567A7" cx="881.524" cy="288.882" r="2.327"/>
				
					<rect x="872.902" y="289.731" transform="matrix(0.9773 -0.2119 0.2119 0.9773 -41.5321 192.284)" fill="#0567A7" width="6.589" height="0.299"/>
				<path fill="#0567A7" d="M844.896,238.284c-0.888-0.327-1.873,0.13-2.199,1.02c-0.328,0.891,0.127,1.878,1.018,2.206
					c0.887,0.329,1.873-0.129,2.198-1.019C846.242,239.6,845.786,238.612,844.896,238.284z"/>
				
					<rect x="845.389" y="241.694" transform="matrix(-0.8921 -0.4518 0.4518 -0.8921 1494.9451 840.5568)" fill="#0567A7" width="4.867" height="0.222"/>
				<path fill="#0567A7" d="M865.903,270.257c-0.797,1.009-0.63,2.474,0.376,3.272s2.468,0.63,3.266-0.375
					c0.796-1.008,0.628-2.475-0.378-3.271C868.163,269.083,866.701,269.251,865.903,270.257z"/>
				
					<rect x="854.654" y="270.963" transform="matrix(0.9965 0.0842 -0.0842 0.9965 25.8698 -71.4342)" fill="#0567A7" width="11.058" height="0.298"/>
				<path fill="#0567A7" d="M837.901,301.962c-1.023-0.772-2.48-0.57-3.255,0.457c-0.771,1.027-0.567,2.486,0.458,3.261
					c1.022,0.775,2.48,0.569,3.254-0.456C839.131,304.198,838.927,302.738,837.901,301.962z"/>
				
					<rect x="831.369" y="296.103" transform="matrix(-0.0589 0.9983 -0.9983 -0.0589 1181.9209 -521.7629)" fill="#0567A7" width="11.08" height="0.296"/>
				<path fill="#0567A7" d="M822.359,271.571c-2.001-1.082-4.497-0.336-5.578,1.669c-1.08,2.004-0.334,4.508,1.666,5.591
					c2,1.084,4.499,0.337,5.578-1.667C825.104,275.159,824.359,272.655,822.359,271.571z"/>
				
					<rect x="822.584" y="280.886" transform="matrix(-0.8187 -0.5742 0.5742 -0.8187 1346.2688 987.1501)" fill="#0567A7" width="12.756" height="0.345"/>
				<path fill="#0567A7" d="M843.819,223.313c2.232,0.492,4.438-0.925,4.927-3.163c0.487-2.237-0.926-4.449-3.16-4.938
					c-2.231-0.492-4.438,0.924-4.926,3.161C840.172,220.611,841.586,222.823,843.819,223.313z"/>
				
					<rect x="839.8" y="231.551" transform="matrix(-0.3623 -0.9321 0.9321 -0.3623 941.428 1107.7476)" fill="#0567A7" width="19.734" height="0.533"/>
				
					<ellipse transform="matrix(-0.9979 0.0651 -0.0651 -0.9979 1735.4695 350.0145)" fill="#0567A7" cx="862.035" cy="203.267" rx="4.139" ry="4.148"/>
				<path fill="#0567A7" d="M886.006,224.369c-1.196,1.951-0.59,4.505,1.356,5.706s4.495,0.593,5.692-1.356
					c1.198-1.95,0.591-4.504-1.355-5.705C889.753,221.812,887.206,222.419,886.006,224.369z"/>
				<path fill="#0567A7" d="M868.715,245.373c-1.199,1.951-0.592,4.506,1.354,5.708c1.949,1.202,4.495,0.594,5.695-1.356
					c1.196-1.951,0.592-4.504-1.356-5.708C872.461,242.817,869.912,243.423,868.715,245.373z"/>
				<path fill="#0567A7" d="M913.157,223.377c-1.195,1.95-0.589,4.505,1.356,5.705c1.946,1.203,4.495,0.596,5.692-1.355
					c1.199-1.951,0.594-4.507-1.354-5.708C916.904,220.818,914.357,221.426,913.157,223.377z"/>
				
					<rect x="874.026" y="220.567" transform="matrix(-0.851 -0.5252 0.5252 -0.851 1514.167 871.329)" fill="#0567A7" width="13.364" height="0.535"/>
				<polygon fill="#0567A7" points="875.001,244.908 887.184,229.403 886.766,229.072 874.582,244.575 				"/>
				
					<rect x="893.372" y="225.831" transform="matrix(0.9994 -0.0349 0.0349 0.9994 -7.3381 31.648)" fill="#0567A7" width="19.693" height="0.537"/>
				<path fill="#0567A7" d="M874.416,260.371c0.574,1.149,1.971,1.615,3.118,1.036c1.146-0.573,1.61-1.972,1.035-3.124
					c-0.576-1.147-1.972-1.612-3.12-1.036C874.303,257.824,873.841,259.224,874.416,260.371z"/>
				
					<rect x="871.478" y="254.025" transform="matrix(0.342 0.9397 -0.9397 0.342 814.4946 -654.7858)" fill="#0567A7" width="6.603" height="0.3"/>
				<circle fill="#0567A7" cx="919.847" cy="215.733" r="1.715"/>
				
					<rect x="916.004" y="219.374" transform="matrix(0.325 -0.9457 0.9457 0.325 412.406 1016.7523)" fill="#0567A7" width="4.871" height="0.222"/>
				<path fill="#0567A7" d="M892.775,241.295c-1.104-0.655-2.53-0.291-3.184,0.816c-0.653,1.107-0.288,2.536,0.817,3.192
					c1.104,0.654,2.529,0.288,3.183-0.819C894.247,243.379,893.881,241.951,892.775,241.295z"/>
				
					<rect x="885.612" y="235.582" transform="matrix(0.0525 0.9986 -0.9986 0.0525 1079.7501 -666.5735)" fill="#0567A7" width="11.081" height="0.297"/>
				<circle fill="#0567A7" cx="873.033" cy="216.22" r="2.328"/>
				
					<rect x="862.58" y="210.308" transform="matrix(0.6445 0.7646 -0.7646 0.6445 469.5468 -588.9545)" fill="#0567A7" width="11.072" height="0.3"/>
				
					<rect x="844.83" y="210.987" transform="matrix(-0.7224 0.6915 -0.6915 -0.7224 1614.9333 -226.0081)" fill="#0567A7" width="16.007" height="0.345"/>
				<path fill="#0567A7" d="M796.415,263.104c0.637-1.337,0.072-2.94-1.263-3.581c-1.335-0.638-2.936-0.072-3.572,1.266
					c-0.637,1.336-0.071,2.939,1.263,3.578C794.178,265.008,795.776,264.441,796.415,263.104z"/>
				<path fill="#0567A7" d="M806.106,248.397c0.638-1.336,0.072-2.938-1.263-3.577c-1.333-0.639-2.935-0.074-3.571,1.262
					c-0.637,1.337-0.071,2.941,1.263,3.579C803.87,250.302,805.47,249.736,806.106,248.397z"/>
				
					<rect x="795.019" y="268.023" transform="matrix(0.9019 0.432 -0.432 0.9019 195.0133 -322.1734)" fill="#0567A7" width="23.372" height="0.345"/>
				
					<rect x="792.466" y="254.457" transform="matrix(0.5313 -0.8472 0.8472 0.5313 158.6984 796.1138)" fill="#0567A7" width="12.765" height="0.347"/>
				<circle fill="#0567A7" cx="800.147" cy="239.953" r="1.504"/>
				
					<rect x="799.466" y="243.056" transform="matrix(-0.4399 -0.8981 0.8981 -0.4399 935.8483 1069.9927)" fill="#0567A7" width="4.271" height="0.191"/>
				<path fill="#0567A7" d="M790.902,252.676c0.755,0.347,1.646,0.014,1.989-0.744c0.347-0.757,0.015-1.651-0.741-1.997
					c-0.755-0.346-1.646-0.013-1.991,0.744C789.813,251.437,790.146,252.33,790.902,252.676z"/>
				
					<rect x="788.741" y="256.047" transform="matrix(-0.1575 -0.9875 0.9875 -0.1575 664.1858 1078.928)" fill="#0567A7" width="7.173" height="0.195"/>
				<path fill="#0567A7" d="M805.084,282.033c0.348-1.442-0.536-2.893-1.974-3.241c-1.438-0.348-2.886,0.537-3.233,1.979
					c-0.348,1.44,0.538,2.892,1.976,3.239C803.291,284.357,804.737,283.474,805.084,282.033z"/>
				
					<rect x="804.281" y="278.186" transform="matrix(-0.9393 0.3432 -0.3432 -0.9393 1667.6061 261.6395)" fill="#0567A7" width="12.747" height="0.346"/>
				<path fill="#0567A7" d="M891.618,270.539c2.166,0.693,4.48-0.506,5.172-2.678c0.689-2.171-0.506-4.489-2.675-5.183
					c-2.165-0.692-4.481,0.507-5.172,2.678C888.254,267.527,889.451,269.848,891.618,270.539z"/>
				
					<rect x="876.994" y="262.277" transform="matrix(0.9112 0.4119 -0.4119 0.9112 186.5347 -340.5786)" fill="#0567A7" width="12.752" height="0.345"/>
				<path fill="#0567A7" d="M918.679,274.031c-0.377,1.43,0.476,2.9,1.904,3.28s2.897-0.475,3.274-1.907
					c0.38-1.435-0.475-2.902-1.903-3.282S919.058,272.598,918.679,274.031z"/>
				<path fill="#0567A7" d="M911.886,290.284c-0.38,1.433,0.471,2.9,1.903,3.284c1.428,0.376,2.894-0.478,3.274-1.908
					c0.377-1.436-0.475-2.904-1.905-3.283C913.729,287.997,912.262,288.85,911.886,290.284z"/>
				<path fill="#0567A7" d="M935.316,268.327c-0.378,1.434,0.475,2.902,1.904,3.281c1.429,0.381,2.896-0.473,3.273-1.906
					c0.379-1.434-0.474-2.901-1.904-3.282C937.16,266.041,935.693,266.896,935.316,268.327z"/>
				
					<rect x="895.943" y="270.771" transform="matrix(-0.9665 -0.2567 0.2567 -0.9665 1715.2882 765.7894)" fill="#0567A7" width="23.363" height="0.345"/>
				
					<rect x="911.473" y="282.637" transform="matrix(-0.3645 0.9312 -0.9312 -0.3645 1515.748 -468.8375)" fill="#0567A7" width="12.77" height="0.344"/>
				
					<rect x="923.292" y="271.703" transform="matrix(0.9465 -0.3227 0.3227 0.9465 -37.9985 314.549)" fill="#0567A7" width="12.749" height="0.347"/>
				<path fill="#0567A7" d="M918.214,298.511c0.571,0.603,1.522,0.631,2.124,0.059c0.605-0.571,0.631-1.526,0.059-2.131
					c-0.571-0.604-1.521-0.631-2.124-0.061C917.669,296.951,917.644,297.906,918.214,298.511z"/>
				
					<rect x="915.147" y="294.503" transform="matrix(0.5982 0.8013 -0.8013 0.5982 604.6361 -616.6879)" fill="#0567A7" width="4.269" height="0.197"/>
				<path fill="#0567A7" d="M939.141,262.253c-0.046-0.61-0.58-1.068-1.191-1.021c-0.612,0.046-1.068,0.581-1.022,1.191
					c0.048,0.614,0.58,1.072,1.191,1.025C938.73,263.4,939.187,262.867,939.141,262.253z"/>
				
					<rect x="936.284" y="264.854" transform="matrix(0.0384 -0.9993 0.9993 0.0384 637.1295 1191.9275)" fill="#0567A7" width="3.155" height="0.145"/>
				<path fill="#0567A7" d="M926.028,283.25c-0.806-0.2-1.618,0.294-1.817,1.102s0.294,1.626,1.102,1.824
					c0.805,0.2,1.619-0.294,1.819-1.103C927.329,284.266,926.837,283.448,926.028,283.25z"/>
				
					<rect x="920.401" y="280.008" transform="matrix(0.338 0.9412 -0.9412 0.338 875.3315 -684.1777)" fill="#0567A7" width="7.169" height="0.194"/>
				<circle fill="#0567A7" cx="909.325" cy="257.181" r="2.678"/>
				
					<rect x="895.483" y="261.517" transform="matrix(0.8589 -0.5121 0.5121 0.8589 -6.7722 498.8011)" fill="#0567A7" width="12.749" height="0.347"/>
			</g>
			<g>
				<path fill="#0567A7" d="M564.11,488.458c1.778,4.019,6.473,5.827,10.487,4.043c4.013-1.787,5.828-6.494,4.051-10.51
					c-1.777-4.02-6.473-5.828-10.486-4.042C564.147,479.734,562.334,484.442,564.11,488.458z"/>
				
					<rect x="538.654" y="506.676" transform="matrix(0.5363 -0.8441 0.8441 0.5363 -169.5103 705.8528)" fill="#0567A7" width="37.898" height="1.025"/>
				<path fill="#0567A7" d="M561.719,467.294c-1.242-1.328-3.325-1.394-4.653-0.146c-1.327,1.245-1.396,3.331-0.151,4.661
					c1.24,1.326,3.322,1.394,4.652,0.147C562.895,470.708,562.963,468.622,561.719,467.294z"/>
				
					<rect x="559.04" y="475.644" transform="matrix(-0.5949 -0.8038 0.8038 -0.5949 516.5532 1212.0521)" fill="#0567A7" width="9.339" height="0.424"/>
				<path fill="#0567A7" d="M494.374,505.018c-2.501-3.584-7.43-4.452-11.011-1.941c-3.579,2.51-4.456,7.446-1.955,11.03
					c2.5,3.581,7.429,4.451,11.009,1.942C495.999,513.538,496.875,508.6,494.374,505.018z"/>
				<path fill="#0567A7" d="M572.76,440.668c3.411,2.766,8.417,2.233,11.182-1.187c2.766-3.42,2.242-8.432-1.168-11.195
					c-3.409-2.765-8.414-2.233-11.182,1.187C568.826,432.893,569.352,437.903,572.76,440.668z"/>
				
					<rect x="556.529" y="459.79" transform="matrix(0.0941 -0.9956 0.9956 0.0941 63.0374 989.8825)" fill="#0567A7" width="37.891" height="1.022"/>
				
					<ellipse transform="matrix(-0.9211 -0.3894 0.3894 -0.9211 1029.2219 1052.5332)" fill="#0567A7" cx="621.287" cy="421.954" rx="7.946" ry="7.963"/>
				<path fill="#0567A7" d="M644.259,478.811c-3.736,2.316-4.896,7.223-2.589,10.961c2.308,3.738,7.205,4.891,10.938,2.574
					c3.735-2.314,4.896-7.224,2.59-10.96C652.891,477.648,647.994,476.494,644.259,478.811z"/>
				<path fill="#0567A7" d="M596.492,499.97c-3.734,2.314-4.894,7.223-2.589,10.959c2.309,3.74,7.205,4.892,10.941,2.576
					c3.734-2.316,4.895-7.222,2.587-10.961C605.124,498.806,600.228,497.653,596.492,499.97z"/>
				<path fill="#0567A7" d="M691.715,500.486c-3.735,2.316-4.894,7.224-2.589,10.962c2.307,3.737,7.203,4.889,10.94,2.573
					c3.736-2.315,4.895-7.224,2.588-10.961C700.348,499.324,695.449,498.171,691.715,500.486z"/>
				
					<rect x="625.374" y="467.67" transform="matrix(-0.5251 -0.851 0.851 -0.5251 574.9149 1257.1661)" fill="#0567A7" width="25.663" height="1.025"/>
				
					<rect x="605.666" y="495.544" transform="matrix(-0.9049 0.4257 -0.4257 -0.9049 1400.9431 679.0337)" fill="#0567A7" width="37.861" height="1.027"/>
				
					<rect x="653.404" y="496.089" transform="matrix(0.9089 0.4169 -0.4169 0.9089 268.2802 -235.0913)" fill="#0567A7" width="37.815" height="1.025"/>
				<path fill="#0567A7" d="M712.327,495.205c1.149-1.416,0.933-3.493-0.48-4.64c-1.409-1.146-3.483-0.929-4.631,0.488
					c-1.147,1.416-0.931,3.493,0.481,4.64C709.107,496.839,711.184,496.62,712.327,495.205z"/>
				
					<rect x="699.45" y="498.144" transform="matrix(0.7142 -0.6999 0.6999 0.7142 -147.5851 635.2488)" fill="#0567A7" width="9.352" height="0.423"/>
				<path fill="#0567A7" d="M641.301,513.686c-1.331-2.072-4.091-2.672-6.167-1.335c-2.073,1.335-2.677,4.101-1.345,6.178
					c1.332,2.073,4.092,2.674,6.166,1.336C642.029,518.53,642.631,515.764,641.301,513.686z"/>
				
					<rect x="632.667" y="502.452" transform="matrix(-0.401 0.9161 -0.9161 -0.401 1361.8063 114.9951)" fill="#0567A7" width="21.277" height="0.572"/>
				
					<ellipse transform="matrix(0.3433 -0.9392 0.9392 0.3433 -13.011 888.6973)" fill="#0567A7" cx="629.007" cy="453.653" rx="4.47" ry="4.462"/>
				
					<rect x="614.902" y="439.241" transform="matrix(0.2333 0.9724 -0.9724 0.2333 906.9993 -271.2832)" fill="#0567A7" width="21.26" height="0.575"/>
				
					<rect x="583.333" y="427.239" transform="matrix(-0.9558 0.294 -0.294 -0.9558 1296.6562 660.2035)" fill="#0567A7" width="30.735" height="0.666"/>
				<path fill="#0567A7" d="M457.138,468.143c2.246-1.749,2.655-4.984,0.916-7.231c-1.741-2.247-4.973-2.653-7.217-0.906
					c-2.247,1.746-2.656,4.983-0.916,7.23C451.66,469.48,454.892,469.888,457.138,468.143z"/>
				<path fill="#0567A7" d="M486.436,451.249c2.246-1.745,2.656-4.983,0.916-7.229c-1.741-2.248-4.972-2.653-7.218-0.909
					c-2.245,1.749-2.655,4.986-0.917,7.232C480.958,452.591,484.189,452.996,486.436,451.249z"/>
				
					<rect x="447.977" y="485.41" transform="matrix(0.6123 0.7906 -0.7906 0.6123 566.3834 -183.6061)" fill="#0567A7" width="44.878" height="0.663"/>
				
					<rect x="456.358" y="455.363" transform="matrix(0.8548 -0.519 0.519 0.8548 -168.4569 309.4154)" fill="#0567A7" width="24.51" height="0.664"/>
				<path fill="#0567A7" d="M529.565,472.282c1.26-0.98,1.489-2.799,0.513-4.059c-0.977-1.263-2.791-1.489-4.051-0.511
					c-1.263,0.98-1.493,2.799-0.516,4.061C526.488,473.035,528.304,473.263,529.565,472.282z"/>
				<path fill="#0567A7" d="M491.771,475.762c1.262-0.979,1.492-2.797,0.516-4.06c-0.978-1.261-2.792-1.488-4.052-0.506
					c-1.263,0.979-1.493,2.796-0.515,4.059C488.695,476.514,490.51,476.741,491.771,475.762z"/>
				
					<rect x="512.68" y="474.592" transform="matrix(0.8548 -0.519 0.519 0.8548 -170.9578 338.6077)" fill="#0567A7" width="13.76" height="0.373"/>
				<path fill="#0567A7" d="M486.354,431.313c-0.168-1.589-1.59-2.739-3.177-2.568c-1.586,0.17-2.736,1.596-2.568,3.185
					c0.167,1.588,1.586,2.737,3.175,2.568C485.37,434.328,486.521,432.901,486.354,431.313z"/>
				
					<rect x="479.123" y="438.179" transform="matrix(0.0102 -0.9999 0.9999 0.0102 39.9609 917.0993)" fill="#0567A7" width="8.201" height="0.372"/>
				
					<rect x="492.061" y="476.233" transform="matrix(-0.948 -0.3182 0.3182 -0.948 820.3404 1086.8314)" fill="#0567A7" width="13.74" height="0.372"/>
				<path fill="#0567A7" d="M456.656,445.497c0.999,1.243,2.817,1.44,4.061,0.438c1.244-1.001,1.442-2.824,0.443-4.066
					c-1-1.244-2.816-1.44-4.06-0.438C455.857,442.432,455.657,444.255,456.656,445.497z"/>
				
					<rect x="449.228" y="452.494" transform="matrix(0.3019 -0.9533 0.9533 0.3019 -113.1458 750.8431)" fill="#0567A7" width="13.772" height="0.37"/>
				<path fill="#0567A7" d="M505.138,482.494c0.979,2.668,3.937,4.034,6.604,3.048c2.666-0.984,4.034-3.948,3.054-6.617
					c-0.98-2.672-3.937-4.036-6.603-3.051S504.156,479.825,505.138,482.494z"/>
				
					<rect x="487.892" y="493.988" transform="matrix(0.5895 -0.8078 0.8078 0.5895 -193.9801 606.9435)" fill="#0567A7" width="24.523" height="0.664"/>
				<path fill="#0567A7" d="M455.718,508.092c1.837-2.172,1.569-5.424-0.599-7.261c-2.168-1.835-5.415-1.562-7.252,0.612
					c-1.836,2.176-1.566,5.426,0.6,7.262C450.635,510.541,453.882,510.267,455.718,508.092z"/>
				
					<rect x="456.203" y="506.255" transform="matrix(-0.9934 -0.1144 0.1144 -0.9934 875.8416 1063.4467)" fill="#0567A7" width="24.478" height="0.665"/>
			</g>
		</g>
	</g>
</g>
</svg>
