<?xml version="1.0" encoding="utf-8"?>
<!-- Generator: Adobe Illustrator 16.0.0, SVG Export Plug-In . SVG Version: 6.00 Build 0)  -->
<!DOCTYPE svg PUBLIC "-//W3C//DTD SVG 1.1//EN" "http://www.w3.org/Graphics/SVG/1.1/DTD/svg11.dtd">
<svg version="1.1" id="Layer_1" xmlns="http://www.w3.org/2000/svg" xmlns:xlink="http://www.w3.org/1999/xlink" x="0px" y="0px"
	 width="400px" height="800px" viewBox="0 0 400 800" enable-background="new 0 0 400 800" xml:space="preserve">
<g id="background">
	<rect fill="#005288" stroke="#005288" width="400" height="800"/>
</g>
<g id="molecules">
	<g>
		<g>
			<g>
				<defs>
					
						<rect id="SVGID_1_" x="-1095.917" y="297.336" transform="matrix(0.8653 -0.5012 0.5012 0.8653 -394.1121 -31.097)" width="1681.989" height="840.997"/>
				</defs>
				<clipPath id="SVGID_2_">
					<use xlink:href="#SVGID_1_"  overflow="visible"/>
				</clipPath>
				<g clip-path="url(#SVGID_2_)">
					<path opacity="0.2" fill="#0567A7" enable-background="new    " d="M290.356,134.346c9.213-2.24,18.471,3.403,20.681,12.607
						c2.211,9.207-3.469,18.484-12.687,20.726c-9.208,2.238-18.467-3.407-20.676-12.61
						C275.465,145.865,281.146,136.59,290.356,134.346z"/>
					<polygon opacity="0.2" fill="#0567A7" enable-background="new    " points="255.958,-9.772 290.835,135.58 288.687,136.107 
						253.807,-9.246 					"/>
					<polygon opacity="0.2" fill="#0567A7" enable-background="new    " points="385.3,117.097 308.623,145.397 307.862,143.323 
						384.541,115.025 					"/>
					<path opacity="0.2" fill="#0567A7" enable-background="new    " d="M225.353,171.398c-5.312,0.338-9.876-3.685-10.199-8.992
						c-0.322-5.308,3.718-9.887,9.024-10.229c5.312-0.343,9.873,3.685,10.196,8.991C234.7,166.473,230.662,171.056,225.353,171.398z
						"/>
					
						<rect x="232.966" y="154.804" transform="matrix(-0.984 0.1782 -0.1782 -0.984 535.3898 262.7552)" opacity="0.2" fill="#0567A7" enable-background="new    " width="45.854" height="1.243"/>
					<path opacity="0.2" fill="#0567A7" enable-background="new    " d="M186.964-6.008c2.138,9.225-3.611,18.461-12.841,20.628
						c-9.23,2.17-18.45-3.545-20.589-12.768c-2.134-9.221,3.617-18.458,12.843-20.626C175.61-20.944,184.826-15.229,186.964-6.008z"
						/>
					<path opacity="0.2" fill="#0567A7" enable-background="new    " d="M227.239,99.047c2.135,9.224-3.614,18.455-12.85,20.625
						c-9.226,2.166-18.439-3.549-20.579-12.771c-2.138-9.216,3.61-18.452,12.841-20.622
						C215.885,84.106,225.101,89.828,227.239,99.047z"/>
					<polygon opacity="0.2" fill="#0567A7" enable-background="new    " points="203.151,88.992 175.707,12.213 177.789,11.465 
						205.233,88.245 					"/>
					
						<ellipse transform="matrix(-0.7056 -0.7086 0.7086 -0.7056 202.3091 371.457)" opacity="0.2" fill="#0567A7" enable-background="new    " cx="178.32" cy="143.701" rx="9.615" ry="9.647"/>
					
						<rect x="178.146" y="125.123" transform="matrix(-0.6232 0.7821 -0.7821 -0.6232 409.7022 54.0762)" opacity="0.2" fill="#0567A7" enable-background="new    " width="27.355" height="1.238"/>
					<path opacity="0.2" fill="#0567A7" enable-background="new    " d="M138.075,51.575c5.2-1.124,10.314,2.17,11.426,7.37
						c1.11,5.197-2.203,10.324-7.412,11.454c-5.204,1.126-10.315-2.171-11.422-7.37C129.556,57.831,132.869,52.702,138.075,51.575z"
						/>
					
						<rect x="128.877" y="31.208" transform="matrix(-0.3674 0.9301 -0.9301 -0.3674 237.1987 -97.6778)" opacity="0.2" fill="#0567A7" enable-background="new    " width="45.881" height="1.239"/>
					
						<rect x="264.954" y="-9.467" transform="matrix(0.9218 0.3878 -0.3878 0.9218 19.0893 -112.3016)" opacity="0.2" fill="#0567A7" enable-background="new    " width="45.769" height="1.242"/>
					<path opacity="0.2" fill="#0567A7" enable-background="new    " d="M269.465,244.318c8.559-4.093,18.789-0.491,22.857,8.053
						c4.068,8.539,0.424,18.784-8.13,22.887c-8.562,4.094-18.796,0.488-22.86-8.054
						C257.264,258.662,260.907,248.414,269.465,244.318z"/>
					<polygon opacity="0.2" fill="#0567A7" enable-background="new    " points="278.199,244.788 289.848,163.954 292.039,164.268 
						280.386,245.097 					"/>
				</g>
			</g>
		</g>
		<g>
			<g>
				<defs>
					
						<rect id="SVGID_3_" x="-1095.917" y="297.336" transform="matrix(0.8653 -0.5012 0.5012 0.8653 -394.1121 -31.097)" width="1681.989" height="840.997"/>
				</defs>
				<clipPath id="SVGID_4_">
					<use xlink:href="#SVGID_3_"  overflow="visible"/>
				</clipPath>
				<g opacity="0.2" clip-path="url(#SVGID_4_)">
					<path fill="#0567A7" d="M39.412,721.983c-10.749,6.019-24.314,2.202-30.3-8.516c-5.985-10.726-2.115-24.295,8.634-30.307
						c10.75-6.019,24.315-2.195,30.299,8.523C54.03,702.405,50.164,715.972,39.412,721.983z"/>
					<polygon fill="#0567A7" points="28.047,722.103 19.68,827.727 16.814,827.505 25.187,721.885 					"/>
					<path fill="#0567A7" d="M80.435,678.633c5.021-0.888,9.796,2.45,10.676,7.465c0.87,5.01-2.495,9.796-7.517,10.688
						c-5.021,0.891-9.797-2.454-10.674-7.468C72.048,684.305,75.41,679.518,80.435,678.633z"/>
					
						<rect x="48.482" y="693.909" transform="matrix(0.9582 -0.2861 0.2861 0.9582 -196.1137 46.6446)" fill="#0567A7" width="26.195" height="1.19"/>
					<path fill="#0567A7" d="M297.347,704.052c-9.459,7.891-23.507,6.643-31.377-2.781c-7.864-9.423-6.574-23.462,2.888-31.356
						c9.466-7.893,23.51-6.649,31.378,2.781C308.103,682.116,306.812,696.158,297.347,704.052z"/>
					<polygon fill="#0567A7" points="286.198,706.26 297.491,811.543 294.643,811.857 283.344,706.575 					"/>
					<path fill="#0567A7" d="M177.923,590.584c-5.508,5.764-14.636,5.987-20.385,0.498c-5.75-5.487-5.938-14.603-0.429-20.368
						c5.508-5.759,14.64-5.979,20.39-0.49C183.247,575.706,183.438,584.819,177.923,590.584z"/>
					<path fill="#0567A7" d="M122.422,667.414c-5.515,5.758-14.639,5.979-20.387,0.493c-5.748-5.489-5.939-14.604-0.429-20.366
						c5.512-5.763,14.639-5.984,20.386-0.496C127.742,652.531,127.936,661.651,122.422,667.414z"/>
					<path fill="#0567A7" d="M157.465,498.316c-5.515,5.759-14.644,5.985-20.393,0.494c-5.748-5.486-5.933-14.601-0.428-20.362
						c5.512-5.762,14.642-5.983,20.39-0.499C162.781,483.437,162.974,492.551,157.465,498.316z"/>
					
						<rect x="160.374" y="631.56" transform="matrix(0.7234 0.6904 -0.6904 0.7234 498.4102 20.9014)" fill="#0567A7" width="125.49" height="1.859"/>
					
						<rect x="105.582" y="618.134" transform="matrix(-0.6038 0.7971 -0.7971 -0.6038 717.8812 881.3348)" fill="#0567A7" width="68.693" height="1.855"/>
					
						<rect x="122.796" y="533.276" transform="matrix(-0.2181 -0.9759 0.9759 -0.2181 -330.0348 804.0029)" fill="#0567A7" width="68.504" height="1.86"/>
					<path fill="#0567A7" d="M66.965,661.516c-4.37-0.92-7.159-5.203-6.227-9.575c0.935-4.372,5.235-7.164,9.607-6.25
						c4.372,0.911,7.162,5.201,6.225,9.574C75.638,659.638,71.338,662.438,66.965,661.516z"/>
					
						<rect x="75.997" y="654.21" transform="matrix(-0.9958 -0.0917 0.0917 -0.9958 114.5468 1314.7283)" fill="#0567A7" width="22.953" height="1.046"/>
					<path fill="#0567A7" d="M174.602,463.722c2.938-1.503,6.535-0.349,8.029,2.586c1.499,2.93,0.324,6.529-2.616,8.03
						c-2.938,1.51-6.535,0.35-8.027-2.579C170.492,468.829,171.661,465.226,174.602,463.722z"/>
					
						<rect x="157.409" y="476.747" transform="matrix(0.8323 -0.5544 0.5544 0.8323 -236.6864 171.9972)" fill="#0567A7" width="16.957" height="0.766"/>
					<path fill="#0567A7" d="M115.052,582.808c3.172,3.135,3.19,8.262,0.037,11.438c-3.151,3.178-8.278,3.211-11.448,0.079
						c-3.171-3.135-3.191-8.254-0.041-11.434C106.752,579.71,111.88,579.674,115.052,582.808z"/>
					
						<rect x="115.915" y="582.886" transform="matrix(-0.979 0.2038 -0.2038 -0.979 386.4458 1127.0131)" fill="#0567A7" width="38.547" height="1.04"/>
					<path fill="#0567A7" d="M311.136,563.134c-11.032,5.472-24.388,0.987-29.83-10.025c-5.439-11.012-0.898-24.371,10.133-29.841
						c11.036-5.472,24.398-0.979,29.833,10.027C326.714,544.301,322.178,557.662,311.136,563.134z"/>
					<polygon fill="#0567A7" points="299.785,562.687 286.148,667.77 283.3,667.409 296.938,562.326 					"/>
					<path fill="#0567A7" d="M354.266,521.869c5.057-0.641,9.667,2.943,10.284,7.993c0.627,5.05-2.972,9.661-8.034,10.304
						c-5.058,0.637-9.665-2.946-10.285-7.995C345.609,527.118,349.211,522.506,354.266,521.869z"/>
					<polygon fill="#0567A7" points="347.479,534.192 322.041,540.428 321.762,539.277 347.203,533.037 					"/>
					<path fill="#0567A7" d="M280.443,403.589c-7.922,0.825-14.993-4.917-15.795-12.829c-0.802-7.918,4.973-14.998,12.896-15.825
						c7.923-0.827,14.992,4.918,15.791,12.831C294.14,395.681,288.368,402.766,280.443,403.589z"/>
					<path fill="#0567A7" d="M188.443,426.266c-7.925,0.833-14.991-4.913-15.8-12.824c-0.797-7.918,4.976-15.002,12.902-15.829
						c7.923-0.827,14.992,4.917,15.791,12.834C202.142,418.362,196.369,425.442,188.443,426.266z"/>
					<polygon fill="#0567A7" points="292.822,527.464 280.181,402.508 282.029,402.315 294.677,527.271 					"/>
					
						<rect x="198.9" y="399.735" transform="matrix(-0.9761 0.2172 -0.2172 -0.9761 547.9313 741.0941)" fill="#0567A7" width="68.663" height="1.859"/>
					
						<ellipse transform="matrix(0.7922 -0.6103 0.6103 0.7922 -199.8921 174.7045)" fill="#0567A7" cx="156.573" cy="380.854" rx="8.107" ry="8.077"/>
					
						<rect x="158.684" y="393.545" transform="matrix(-0.6977 -0.7164 0.7164 -0.6977 6.5343 790.8853)" fill="#0567A7" width="22.909" height="1.039"/>
					<path fill="#0567A7" d="M237.771,356.91c0.371,4.45-2.939,8.371-7.395,8.756c-4.456,0.385-8.368-2.903-8.741-7.36
						c-0.369-4.445,2.94-8.364,7.396-8.755C233.481,349.168,237.401,352.461,237.771,356.91z"/>
					<polygon fill="#0567A7" points="236.06,360.78 269.799,379.238 269.302,380.153 235.557,361.698 					"/>
				</g>
			</g>
		</g>
		<g>
			<g>
				<defs>
					
						<rect id="SVGID_5_" x="-1095.917" y="297.336" transform="matrix(0.8653 -0.5012 0.5012 0.8653 -394.1121 -31.097)" width="1681.989" height="840.997"/>
				</defs>
				<clipPath id="SVGID_6_">
					<use xlink:href="#SVGID_5_"  overflow="visible"/>
				</clipPath>
				<g clip-path="url(#SVGID_6_)">
					<g>
						<path fill="#0567A7" d="M369.005,153.543c4.506,5.624,3.605,13.84-2.022,18.348c-5.625,4.509-13.843,3.607-18.349-2.016
							c-4.508-5.625-3.604-13.839,2.017-18.351C356.277,147.018,364.493,147.918,369.005,153.543z"/>
						
							<rect x="370.138" y="157.263" transform="matrix(-0.9961 0.0888 -0.0888 -0.9961 814.843 279.9694)" fill="#0567A7" width="62.115" height="1.683"/>
						<path fill="#0567A7" d="M389.076,346.587c7.126-1.094,13.789,3.797,14.883,10.915c1.096,7.131-3.794,13.794-10.918,14.888
							c-7.123,1.098-13.785-3.796-14.883-10.921C377.064,354.344,381.95,347.682,389.076,346.587z"/>
						<path fill="#0567A7" d="M336.02,220.158c7.127-1.099,13.789,3.793,14.884,10.919c1.096,7.127-3.794,13.787-10.921,14.883
							c-7.124,1.095-13.789-3.793-14.882-10.92C324.007,227.914,328.894,221.251,336.02,220.158z"/>
						
							<rect x="306.984" y="295.252" transform="matrix(-0.385 -0.9229 0.9229 -0.385 230.7303 745.9396)" fill="#0567A7" width="113.844" height="1.681"/>
						
							<rect x="396.706" y="336.817" transform="matrix(0.8725 -0.4886 0.4886 0.8725 -110.446 252.0719)" fill="#0567A7" width="62.12" height="1.684"/>
						<path fill="#0567A7" d="M341.667,382.985c-3.95,0.886-7.865-1.597-8.754-5.547c-0.883-3.949,1.597-7.868,5.551-8.754
							c3.946-0.886,7.865,1.598,8.749,5.547C348.099,378.177,345.617,382.097,341.667,382.985z"/>
						
							<rect x="345.211" y="366.942" transform="matrix(-0.9441 0.3297 -0.3297 -0.9441 826.1427 594.7435)" fill="#0567A7" width="34.869" height="0.949"/>
						<path fill="#0567A7" d="M277.24,246.292c7.124-1.094,13.79,3.794,14.884,10.919c1.098,7.126-3.793,13.79-10.919,14.886
							c-7.127,1.093-13.79-3.794-14.883-10.92C265.227,254.049,270.115,247.385,277.24,246.292z"/>
						<path fill="#0567A7" d="M320.249,320.438c7.125-1.094,13.788,3.795,14.885,10.92c1.091,7.126-3.797,13.787-10.92,14.883
							c-7.125,1.094-13.786-3.794-14.883-10.92C308.236,328.198,313.121,321.532,320.249,320.438z"/>
						
							<rect x="288.589" y="245.182" transform="matrix(0.9258 -0.3779 0.3779 0.9258 -70.0155 135.2791)" fill="#0567A7" width="42.128" height="1.682"/>
						
							<rect x="269.791" y="295.29" transform="matrix(0.4818 0.8763 -0.8763 0.4818 415.3909 -110.1774)" fill="#0567A7" width="62.121" height="1.681"/>
						<path fill="#0567A7" d="M308.86,372.032c-2.378,3.274-6.964,3.992-10.236,1.607c-3.277-2.383-3.996-6.962-1.614-10.232
							c2.381-3.275,6.968-3.994,10.238-1.611C310.523,364.177,311.244,368.762,308.86,372.032z"/>
						
							<rect x="300.442" y="352.167" transform="matrix(-0.4917 0.8708 -0.8708 -0.4917 770.7368 255.3453)" fill="#0567A7" width="20.79" height="0.941"/>
						<path fill="#0567A7" d="M261.546,303.316c3.77-1.463,8.018,0.408,9.48,4.182c1.468,3.773-0.406,8.023-4.178,9.48
							c-3.773,1.47-8.021-0.405-9.481-4.177C255.905,309.028,257.773,304.78,261.546,303.316z"/>
						
							<rect x="252.028" y="286.435" transform="matrix(-0.2149 0.9766 -0.9766 -0.2149 607.5769 85.3973)" fill="#0567A7" width="34.872" height="0.946"/>
						<path fill="#0567A7" d="M388.808,238.772c4.001-0.612,7.745,2.133,8.358,6.134c0.613,4-2.131,7.743-6.133,8.356
							c-4,0.617-7.741-2.13-8.356-6.132C382.06,243.13,384.807,239.39,388.808,238.772z"/>
						
							<rect x="349.358" y="239.808" transform="matrix(0.971 0.239 -0.239 0.971 68.0724 -80.7146)" fill="#0567A7" width="34.867" height="0.942"/>
						
							<rect x="322.182" y="195.48" transform="matrix(0.2975 -0.9547 0.9547 0.2975 56.9101 469.3934)" fill="#0567A7" width="50.437" height="1.095"/>
					</g>
					<g>
						<path fill="#0567A7" d="M33.31,676.513c4.452-0.688,8.616,2.371,9.298,6.824c0.686,4.45-2.37,8.615-6.821,9.299
							c-4.453,0.687-8.619-2.371-9.303-6.823C25.802,681.359,28.855,677.195,33.31,676.513z"/>
						<circle fill="#0567A7" cx="33.597" cy="770.25" r="8.156"/>
						
							<rect x="-1.117" y="727.216" transform="matrix(-0.0131 0.9999 -0.9999 -0.0131 762.5815 702.8506)" fill="#0567A7" width="71.135" height="1.051"/>
						<path fill="#0567A7" d="M67.155,683.329c2.499-0.385,4.837,1.331,5.222,3.83c0.383,2.5-1.333,4.838-3.833,5.224
							c-2.499,0.381-4.837-1.333-5.221-3.831C62.939,686.05,64.655,683.714,67.155,683.329z"/>
						
							<rect x="41.847" y="686.796" transform="matrix(0.9974 0.0724 -0.0724 0.9974 49.8937 -2.0156)" fill="#0567A7" width="21.793" height="0.592"/>
						<circle fill="#0567A7" cx="73.795" cy="769.847" r="8.157"/>
						<path fill="#0567A7" d="M66.296,708.586c4.455-0.683,8.621,2.371,9.304,6.827c0.684,4.453-2.372,8.618-6.826,9.3
							c-4.454,0.688-8.619-2.37-9.304-6.823C58.788,713.438,61.843,709.271,66.296,708.586z"/>
						
							<rect x="39.956" y="769.307" transform="matrix(-0.9998 -0.021 0.021 -0.9998 90.0489 1540.6138)" fill="#0567A7" width="26.317" height="1.055"/>
						
							<rect x="51.225" y="742.801" transform="matrix(-0.0941 -0.9956 0.9956 -0.0941 -662.7451 883.5934)" fill="#0567A7" width="38.817" height="1.045"/>
						
							<rect x="76.586" y="784.691" transform="matrix(0.821 0.571 -0.571 0.821 465.5251 85.7672)" fill="#0567A7" width="38.821" height="1.051"/>
						<path fill="#0567A7" d="M84.8,697.778c2.176-1.283,4.989-0.563,6.274,1.619c1.283,2.175,0.561,4.982-1.617,6.269
							c-2.181,1.285-4.986,0.562-6.273-1.614C81.902,701.871,82.624,699.066,84.8,697.778z"/>
						
							<rect x="72.339" y="708.116" transform="matrix(0.7969 -0.6041 0.6041 0.7969 -411.9263 191.4818)" fill="#0567A7" width="12.991" height="0.595"/>
						<circle fill="#0567A7" cx="95.057" cy="744.354" r="4.58"/>
						
							<rect x="75.292" y="756.137" transform="matrix(0.5851 -0.811 0.811 0.5851 -577.6915 383.7641)" fill="#0567A7" width="21.791" height="0.589"/>
						<circle fill="#0567A7" cx="55.334" cy="636.513" r="8.157"/>
						
							<rect x="25.655" y="660.499" transform="matrix(0.3817 -0.9243 0.9243 0.3817 -583.1273 450.3953)" fill="#0567A7" width="38.814" height="1.056"/>
						
							<rect x="18.79" y="790.066" transform="matrix(-0.0982 0.9952 -0.9952 -0.0982 821.0142 836.8598)" fill="#0567A7" width="25.12" height="0.684"/>
						<path fill="#0567A7" d="M189.231,761.491c4.454-0.684,8.618,2.375,9.304,6.827c0.684,4.453-2.375,8.618-6.826,9.301
							c-4.452,0.685-8.616-2.371-9.301-6.822C181.724,766.343,184.778,762.178,189.231,761.491z"/>
						<path fill="#0567A7" d="M135.675,760.464c4.456-0.682,8.62,2.372,9.304,6.824c0.684,4.456-2.372,8.623-6.825,9.305
							c-4.453,0.683-8.619-2.372-9.302-6.823C128.168,765.316,131.222,761.148,135.675,760.464z"/>
						<path fill="#0567A7" d="M225.569,722.155c4.451-0.681,8.614,2.377,9.3,6.824c0.683,4.454-2.373,8.618-6.822,9.302
							c-4.453,0.683-8.618-2.369-9.304-6.822C218.061,727.008,221.115,722.84,225.569,722.155z"/>
						
							<rect x="144.306" y="768.521" transform="matrix(-0.9991 -0.042 0.042 -0.9991 294.9669 1544.2964)" fill="#0567A7" width="38.824" height="1.052"/>
						
							<rect x="189.255" y="749.147" transform="matrix(0.6774 -0.7357 0.7357 0.6774 -484.178 395.3794)" fill="#0567A7" width="38.814" height="1.055"/>
						<path fill="#0567A7" d="M120.567,748.853c-0.978-2.332,0.125-5.009,2.453-5.989c2.33-0.979,5.014,0.118,5.995,2.447
							c0.976,2.335-0.125,5.02-2.452,5.996C124.225,752.285,121.542,751.188,120.567,748.853z"/>
						
							<rect x="123.768" y="755.989" transform="matrix(-0.49 -0.8717 0.8717 -0.49 -465.1984 1240.3867)" fill="#0567A7" width="12.991" height="0.588"/>
						<path fill="#0567A7" d="M245.009,734.717c1.843-0.284,3.568,0.982,3.853,2.826c0.282,1.844-0.982,3.567-2.828,3.851
							c-1.841,0.286-3.569-0.982-3.852-2.823C241.899,736.725,243.167,734.997,245.009,734.717z"/>
						
							<rect x="233.384" y="735.179" transform="matrix(0.9297 0.3682 -0.3682 0.9297 287.5425 -36.0294)" fill="#0567A7" width="9.581" height="0.441"/>
						<circle fill="#0567A7" cx="168.106" cy="745.022" r="4.581"/>
						
							<rect x="167.971" y="755.013" transform="matrix(-0.7238 -0.69 0.69 -0.7238 -212.8393 1425.4182)" fill="#0567A7" width="21.783" height="0.588"/>
						<path fill="#0567A7" d="M133.707,705.251c4.43-0.682,8.572,2.357,9.254,6.788c0.681,4.431-2.359,8.573-6.791,9.255
							c-4.428,0.681-8.572-2.361-9.252-6.788C126.237,710.072,129.276,705.93,133.707,705.251z"/>
						<polygon fill="#0567A7" points="132.748,720.882 125.675,744.981 125.023,744.794 132.096,720.688 						"/>
						<path fill="#0567A7" d="M156.646,655.846c2.523-1.461,5.754-0.604,7.218,1.917c1.463,2.523,0.6,5.76-1.925,7.219
							c-2.521,1.463-5.753,0.6-7.216-1.922C153.261,660.53,154.127,657.309,156.646,655.846z"/>
						<path fill="#0567A7" d="M125.504,644.542c2.883-0.442,5.579,1.537,6.022,4.421c0.442,2.885-1.535,5.579-4.418,6.021
							c-2.884,0.443-5.583-1.536-6.025-4.416C120.64,647.68,122.619,644.986,125.504,644.542z"/>
						
							<rect x="124.384" y="685.401" transform="matrix(-0.4351 0.9004 -0.9004 -0.4351 828.9739 851.4003)" fill="#0567A7" width="46.051" height="0.684"/>
						
							<rect x="130.263" y="654.838" transform="matrix(-0.9445 -0.3285 0.3285 -0.9445 62.4692 1320.9115)" fill="#0567A7" width="25.128" height="0.68"/>
						<circle fill="#0567A7" cx="86.488" cy="682.176" r="2.964"/>
						<path fill="#0567A7" d="M124.699,674.631c1.619-0.25,3.134,0.859,3.382,2.481c0.249,1.619-0.861,3.133-2.482,3.38
							c-1.619,0.251-3.133-0.862-3.381-2.48C121.969,676.393,123.078,674.878,124.699,674.631z"/>
						
							<rect x="88.665" y="685.093" transform="matrix(-0.9445 -0.3286 0.3286 -0.9445 -39.0854 1363.9636)" fill="#0567A7" width="14.106" height="0.383"/>
						<path fill="#0567A7" d="M122.349,631.283c1.618-0.25,3.131,0.86,3.38,2.476c0.249,1.618-0.862,3.133-2.482,3.384
							c-1.619,0.249-3.129-0.863-3.378-2.482C119.62,633.045,120.73,631.529,122.349,631.283z"/>
						
							<rect x="120.302" y="640.725" transform="matrix(-0.2175 -0.9761 0.9761 -0.2175 -473.9977 901.8161)" fill="#0567A7" width="8.404" height="0.38"/>
						
							<rect x="109.773" y="682.163" transform="matrix(0.8607 -0.5091 0.5091 0.8607 -331.1064 154.5161)" fill="#0567A7" width="14.103" height="0.382"/>
						<path fill="#0567A7" d="M152.665,642.368c-0.741,1.457-2.521,2.046-3.982,1.31c-1.462-0.738-2.044-2.522-1.308-3.989
							c0.737-1.456,2.521-2.045,3.98-1.305C152.82,639.121,153.408,640.901,152.665,642.368z"/>
						
							<rect x="147.655" y="649.185" transform="matrix(-0.4939 -0.8695 0.8695 -0.4939 -333.5546 1104.5952)" fill="#0567A7" width="14.099" height="0.381"/>
						<circle fill="#0567A7" cx="106.653" cy="689.086" r="5.28"/>
						
							<rect x="106.795" y="700.283" transform="matrix(-0.7451 -0.6669 0.6669 -0.7451 -258.9672 1302.2776)" fill="#0567A7" width="25.124" height="0.68"/>
						<path fill="#0567A7" d="M169.341,695.511c2.884-0.443,5.577,1.533,6.023,4.417c0.44,2.881-1.536,5.576-4.418,6.018
							c-2.882,0.444-5.576-1.532-6.019-4.412C164.483,698.649,166.461,695.953,169.341,695.511z"/>
						
							<rect x="141.23" y="705.7" transform="matrix(0.9477 -0.3191 0.3191 0.9477 -217.2455 85.979)" fill="#0567A7" width="25.121" height="0.674"/>
					</g>
					<g>
						<circle fill="#0567A7" cx="358.754" cy="135.872" r="4.451"/>
						<path fill="#0567A7" d="M336.959,89.537c2.228-1.04,4.876-0.084,5.916,2.146c1.044,2.225,0.081,4.874-2.139,5.912
							c-2.23,1.047-4.879,0.09-5.925-2.137C333.767,93.229,334.732,90.578,336.959,89.537z"/>
						
							<rect x="329.208" y="114.384" transform="matrix(-0.4239 -0.9057 0.9057 -0.4239 392.5551 479.0241)" fill="#0567A7" width="38.819" height="0.575"/>
						<circle fill="#0567A7" cx="341.62" cy="142.182" r="2.499"/>
						
							<rect x="343.259" y="138.817" transform="matrix(-0.9292 0.3695 -0.3695 -0.9292 725.0497 139.0847)" fill="#0567A7" width="11.891" height="0.323"/>
						<path fill="#0567A7" d="M323.242,101.47c1.028,2.233,0.045,4.875-2.186,5.898c-2.237,1.029-4.879,0.045-5.903-2.183
							c-1.027-2.241-0.042-4.88,2.188-5.907C319.573,98.254,322.217,99.237,323.242,101.47z"/>
						<path fill="#0567A7" d="M338.974,126.107c1.02,2.232,0.043,4.876-2.189,5.901c-2.238,1.024-4.88,0.043-5.905-2.189
							c-1.023-2.236-0.039-4.875,2.192-5.902C335.303,122.893,337.945,123.874,338.974,126.107z"/>
						<path fill="#0567A7" d="M289.663,94.316c2.429-0.375,4.704,1.292,5.077,3.724c0.371,2.428-1.294,4.702-3.727,5.074
							c-2.426,0.375-4.697-1.293-5.073-3.723C285.567,96.962,287.232,94.689,289.663,94.316z"/>
						
							<rect x="322.192" y="98.165" transform="matrix(0.9089 -0.417 0.417 0.9089 -11.0485 146.3329)" fill="#0567A7" width="14.361" height="0.573"/>
						
							<rect x="316.41" y="115.32" transform="matrix(0.5188 0.8549 -0.8549 0.5188 256.1879 -223.923)" fill="#0567A7" width="21.186" height="0.577"/>
						
							<rect x="294.129" y="100.731" transform="matrix(-0.9877 -0.1562 0.1562 -0.9877 589.9164 248.3947)" fill="#0567A7" width="21.18" height="0.571"/>
						<path fill="#0567A7" d="M328.471,137.487c1.364-0.208,2.642,0.728,2.849,2.092c0.211,1.366-0.724,2.638-2.089,2.847
							c-1.363,0.212-2.639-0.726-2.845-2.089C326.174,138.973,327.109,137.697,328.471,137.487z"/>
						
							<rect x="327.89" y="134.592" transform="matrix(-0.4547 0.8906 -0.8906 -0.4547 602.1516 -99.1683)" fill="#0567A7" width="7.088" height="0.319"/>
						<circle fill="#0567A7" cx="288.244" cy="87.843" r="1.843"/>
						
							<rect x="286.644" y="91.918" transform="matrix(-0.2076 -0.9782 0.9782 -0.2076 259.2928 394.1023)" fill="#0567A7" width="5.23" height="0.236"/>
						<circle fill="#0567A7" cx="314.816" cy="120.903" r="2.499"/>
						
							<rect x="310.32" y="112.769" transform="matrix(-0.1734 0.9849 -0.9849 -0.1734 482.3273 -178.9649)" fill="#0567A7" width="11.894" height="0.318"/>
						<circle fill="#0567A7" cx="359.971" cy="164.423" r="4.449"/>
						
							<rect x="348.59" y="149.755" transform="matrix(0.0593 0.9982 -0.9982 0.0593 487.6682 -217.4027)" fill="#0567A7" width="21.185" height="0.574"/>
						<circle fill="#0567A7" cx="331.444" cy="72.653" r="4.428"/>
						
							<rect x="328.23" y="82.967" transform="matrix(-0.3455 -0.9384 0.9384 -0.3455 372.8272 426.3332)" fill="#0567A7" width="13.708" height="0.375"/>
						<circle fill="#0567A7" cx="266.719" cy="82.608" r="4.454"/>
						
							<rect x="267.861" y="90.92" transform="matrix(-0.8084 -0.5887 0.5887 -0.8084 449.8556 328.8498)" fill="#0567A7" width="21.179" height="0.575"/>
						<circle fill="#0567A7" cx="245.364" cy="96.254" r="4.451"/>
						<circle fill="#0567A7" cx="224.405" cy="89.774" r="4.449"/>
						<circle fill="#0567A7" cx="218.804" cy="118.462" r="4.45"/>
						<path fill="#0567A7" d="M206.011,62.136c2.426-0.373,4.699,1.293,5.07,3.723c0.376,2.429-1.291,4.7-3.721,5.073
							c-2.428,0.373-4.7-1.293-5.072-3.722C201.915,64.781,203.581,62.509,206.011,62.136z"/>
						
							<rect x="227.959" y="92.919" transform="matrix(0.9458 0.3248 -0.3248 0.9458 43.0289 -71.329)" fill="#0567A7" width="14.364" height="0.572"/>
						
							<rect x="211.009" y="103.779" transform="matrix(-0.214 0.9768 -0.9768 -0.214 370.6721 -90.1325)" fill="#0567A7" width="21.181" height="0.574"/>
						
							<rect x="204.778" y="77.842" transform="matrix(-0.6077 -0.7942 0.7942 -0.6077 284.2029 296.6471)" fill="#0567A7" width="21.181" height="0.575"/>
						<circle fill="#0567A7" cx="206.139" cy="122.956" r="2.498"/>
						
							<rect x="208.025" y="120.712" transform="matrix(-0.9433 0.3318 -0.3318 -0.9433 451.2541 164.6892)" fill="#0567A7" width="7.082" height="0.322"/>
						<path fill="#0567A7" d="M212.384,55.392c1.004-0.155,1.949,0.536,2.104,1.543c0.152,1.007-0.539,1.95-1.543,2.104
							c-1.009,0.155-1.951-0.537-2.104-1.544C210.686,56.488,211.376,55.547,212.384,55.392z"/>
						
							<rect x="207.928" y="60.844" transform="matrix(0.5235 -0.852 0.852 0.5235 48.381 208.4353)" fill="#0567A7" width="5.229" height="0.237"/>
						<circle fill="#0567A7" cx="209.111" cy="99.48" r="2.499"/>
						
							<rect x="209.739" y="94.583" transform="matrix(-0.8046 0.5938 -0.5938 -0.8046 445.4877 42.9066)" fill="#0567A7" width="11.892" height="0.32"/>
						<circle fill="#0567A7" cx="261.962" cy="131.217" r="4.451"/>
						<path fill="#0567A7" d="M287.834,114.586c2.43-0.373,4.701,1.294,5.073,3.726c0.373,2.428-1.294,4.699-3.723,5.072
							c-2.429,0.372-4.7-1.296-5.074-3.722C283.737,117.23,285.405,114.959,287.834,114.586z"/>
						<path fill="#0567A7" d="M252.185,154.919c2.352-0.712,4.836,0.619,5.552,2.971c0.703,2.354-0.623,4.838-2.973,5.545
							c-2.355,0.715-4.841-0.617-5.547-2.97C248.502,158.117,249.83,155.632,252.185,154.919z"/>
						
							<rect x="251.389" y="120.235" transform="matrix(-0.2892 -0.9573 0.9573 -0.2892 217.9797 402.8983)" fill="#0567A7" width="14.365" height="0.572"/>
						
							<rect x="264.624" y="124.794" transform="matrix(0.9175 -0.3977 0.3977 0.9175 -27.0436 119.7565)" fill="#0567A7" width="21.182" height="0.575"/>
						
							<rect x="247.204" y="144.984" transform="matrix(-0.2888 0.9574 -0.9574 -0.2888 471.3251 -59.5862)" fill="#0567A7" width="21.183" height="0.578"/>
						<circle fill="#0567A7" cx="299.563" cy="126.636" r="2.5"/>
						
							<rect x="291.168" y="123.225" transform="matrix(0.8207 0.5714 -0.5714 0.8207 123.3355 -146.2611)" fill="#0567A7" width="7.085" height="0.319"/>
						<path fill="#0567A7" d="M242.14,157.959c1.005-0.157,1.943,0.537,2.1,1.541c0.153,1.008-0.535,1.947-1.541,2.102
							c-1.009,0.153-1.948-0.535-2.103-1.541C240.441,159.054,241.129,158.114,242.14,157.959z"/>
						
							<rect x="244.021" y="159.242" transform="matrix(-0.9974 0.0727 -0.0727 -0.9974 504.1997 300.3721)" fill="#0567A7" width="5.227" height="0.236"/>
						<path fill="#0567A7" d="M278.405,135.476c1.362-0.209,2.638,0.727,2.851,2.093c0.208,1.363-0.729,2.641-2.092,2.849
							c-1.367,0.211-2.643-0.726-2.852-2.092C276.1,136.963,277.038,135.686,278.405,135.476z"/>
						
							<rect x="265.143" y="135.272" transform="matrix(0.9522 0.3056 -0.3056 0.9522 54.3577 -76.3662)" fill="#0567A7" width="11.892" height="0.321"/>
						<path fill="#0567A7" d="M255.401,108.764c1.365-0.208,2.642,0.725,2.853,2.09c0.208,1.363-0.729,2.64-2.092,2.848
							c-1.365,0.21-2.638-0.725-2.848-2.09C253.103,110.249,254.038,108.971,255.401,108.764z"/>
						
							<rect x="245.22" y="104.42" transform="matrix(0.574 0.8189 -0.8189 0.574 192.6449 -161.1201)" fill="#0567A7" width="11.895" height="0.323"/>
						
							<rect x="247.497" y="88.618" transform="matrix(0.8524 -0.5229 0.5229 0.8524 -8.6348 147.0171)" fill="#0567A7" width="17.201" height="0.372"/>
						<path fill="#0567A7" d="M324.504,38.718c1.574-0.241,3.046,0.837,3.284,2.411c0.244,1.573-0.837,3.043-2.409,3.285
							c-1.571,0.242-3.042-0.837-3.285-2.41C321.853,40.431,322.932,38.959,324.504,38.718z"/>
						<path fill="#0567A7" d="M307.559,50.451c-1.562,0.296-3.071-0.731-3.365-2.293c-0.3-1.565,0.726-3.073,2.289-3.365
							c1.563-0.3,3.071,0.728,3.365,2.293C310.149,48.647,309.124,50.154,307.559,50.451z"/>
						
							<rect x="315.37" y="56.295" transform="matrix(0.1867 0.9824 -0.9824 0.1867 322.196 -276.2287)" fill="#0567A7" width="25.123" height="0.375"/>
						
							<rect x="309.139" y="44.43" transform="matrix(-0.9544 0.2984 -0.2984 -0.9544 630.9067 -7.0847)" fill="#0567A7" width="13.71" height="0.372"/>
						<circle fill="#0567A7" cx="300.101" cy="74.766" r="1.618"/>
						<circle fill="#0567A7" cx="315.548" cy="60.181" r="1.619"/>
						<polygon fill="#0567A7" points="301.389,74.165 308.731,71.87 308.79,72.068 301.454,74.365 						"/>
						<circle fill="#0567A7" cx="300.432" cy="41.941" r="1.618"/>
						<polygon fill="#0567A7" points="301.719,42.663 305.185,45.665 305.051,45.821 301.579,42.819 						"/>
						
							<rect x="309.549" y="64.899" transform="matrix(0.3885 -0.9214 0.9214 0.3885 131.7355 328.5213)" fill="#0567A7" width="7.699" height="0.206"/>
						<path fill="#0567A7" d="M314.336,34.486c0.882-0.135,1.706,0.47,1.844,1.354c0.134,0.883-0.471,1.709-1.353,1.844
							c-0.887,0.135-1.713-0.47-1.849-1.354C312.845,35.448,313.449,34.621,314.336,34.486z"/>
						
							<rect x="315.555" y="38.198" transform="matrix(-0.9143 -0.4049 0.4049 -0.9143 595.9346 202.6601)" fill="#0567A7" width="7.693" height="0.208"/>
						<circle fill="#0567A7" cx="311.189" cy="71.243" r="2.881"/>
						
							<rect x="313.74" y="72.002" transform="matrix(-0.9958 -0.092 0.092 -0.9958 633.1769 173.5752)" fill="#0567A7" width="13.702" height="0.369"/>
						<path fill="#0567A7" d="M307.045,145.431c0.122,2.441-1.755,4.521-4.197,4.643c-2.444,0.127-4.525-1.757-4.646-4.199
							c-0.125-2.441,1.754-4.523,4.198-4.643C304.841,141.108,306.92,142.992,307.045,145.431z"/>
						
							<rect x="294.116" y="134.47" transform="matrix(0.1649 0.9863 -0.9863 0.1649 384.1378 -184.4008)" fill="#0567A7" width="13.706" height="0.374"/>
						<path fill="#0567A7" d="M302.796,174.561c1.572-0.242,3.041,0.839,3.284,2.411c0.241,1.571-0.839,3.039-2.407,3.282
							c-1.572,0.243-3.044-0.838-3.281-2.409C300.146,176.273,301.224,174.802,302.796,174.561z"/>
						<circle fill="#0567A7" cx="321.967" cy="174.792" r="2.881"/>
						
							<rect x="290.427" y="162.03" transform="matrix(-6.219585e-04 -1 1 -6.219585e-04 140.9644 465.3035)" fill="#0567A7" width="25.124" height="0.367"/>
						
							<rect x="305.768" y="175.836" transform="matrix(0.9933 -0.1156 0.1156 0.9933 -18.2589 37.3355)" fill="#0567A7" width="13.709" height="0.369"/>
						<path fill="#0567A7" d="M333.568,147.805c0.884-0.136,1.709,0.47,1.845,1.353c0.137,0.882-0.471,1.707-1.353,1.84
							c-0.886,0.137-1.709-0.468-1.842-1.349C332.081,148.765,332.688,147.939,333.568,147.805z"/>
						<path fill="#0567A7" d="M315.677,159.267c0.883-0.135,1.707,0.471,1.842,1.353c0.134,0.884-0.468,1.707-1.35,1.843
							c-0.886,0.134-1.709-0.47-1.842-1.351C314.189,160.229,314.796,159.403,315.677,159.267z"/>
						
							<rect x="324.688" y="150.039" transform="matrix(0.9933 -0.1156 0.1156 0.9933 -15.1523 38.9793)" fill="#0567A7" width="7.697" height="0.212"/>
						<path fill="#0567A7" d="M327.14,180c0.883-0.136,1.708,0.468,1.844,1.352c0.136,0.882-0.468,1.707-1.355,1.844
							c-0.88,0.134-1.703-0.472-1.84-1.354C325.654,180.958,326.258,180.136,327.14,180z"/>
						
							<rect x="322.663" y="178.581" transform="matrix(0.6212 0.7836 -0.7836 0.6212 263.103 -186.9651)" fill="#0567A7" width="4.589" height="0.206"/>
						
							<rect x="314.897" y="156.361" transform="matrix(-0.5531 0.8331 -0.8331 -0.5531 625.3865 -22.559)" fill="#0567A7" width="7.693" height="0.21"/>
						<path fill="#0567A7" d="M312.148,183.126c0.884-0.136,1.711,0.47,1.846,1.352c0.135,0.881-0.472,1.705-1.352,1.841
							c-0.882,0.136-1.71-0.468-1.846-1.352C310.662,184.086,311.271,183.263,312.148,183.126z"/>
						
							<rect x="304.236" y="181.547" transform="matrix(0.8233 0.5676 -0.5676 0.8233 157.5414 -142.7699)" fill="#0567A7" width="7.69" height="0.206"/>
						<circle fill="#0567A7" cx="220.95" cy="31.924" r="4.451"/>
						
							<rect x="205.893" y="45.462" transform="matrix(0.2987 -0.9544 0.9544 0.2987 108.1661 238.6875)" fill="#0567A7" width="21.184" height="0.572"/>
						<path fill="#0567A7" d="M157.112,39.301c2.43-0.373,4.702,1.295,5.076,3.725c0.374,2.429-1.297,4.703-3.726,5.076
							c-2.428,0.372-4.702-1.295-5.075-3.725S154.684,39.674,157.112,39.301z"/>
						<circle fill="#0567A7" cx="154.42" cy="16.311" r="4.449"/>
						<circle fill="#0567A7" cx="201.178" cy="16.068" r="4.452"/>
						
							<rect x="158.535" y="15.786" transform="matrix(1 -0.0032 0.0032 1 -0.0501 0.564)" fill="#0567A7" width="38.825" height="0.579"/>
						
							<rect x="145.861" y="30.42" transform="matrix(0.118 0.993 -0.993 0.118 168.4838 -128.2744)" fill="#0567A7" width="21.18" height="0.573"/>
						
							<rect x="149.674" y="6.255" transform="matrix(0.0563 -0.9984 0.9984 0.0563 140.446 161.4287)" fill="#0567A7" width="11.891" height="0.325"/>
						
							<rect x="193.622" y="5.202" transform="matrix(-0.0046 1 -1 -0.0046 207.2099 -195.2879)" fill="#0567A7" width="14.366" height="0.576"/>
						<circle fill="#0567A7" cx="190.327" cy="30.743" r="2.499"/>
						
							<rect x="189.292" y="24.063" transform="matrix(-0.5919 0.806 -0.806 -0.5919 330.3176 -118.8128)" fill="#0567A7" width="11.895" height="0.321"/>
						
							<rect x="203.028" y="23.683" transform="matrix(0.7686 0.6397 -0.6397 0.7686 64.2438 -129.8645)" fill="#0567A7" width="17.199" height="0.37"/>
						<path fill="#0567A7" d="M180.723,54.294c-0.697,1.432-2.416,2.032-3.846,1.336c-1.438-0.689-2.033-2.415-1.344-3.845
							c0.693-1.433,2.419-2.033,3.85-1.339C180.819,51.14,181.418,52.86,180.723,54.294z"/>
						<path fill="#0567A7" d="M174.904,72.294c-0.693,1.43-2.413,2.029-3.846,1.339c-1.43-0.694-2.031-2.418-1.34-3.848
							c0.697-1.434,2.417-2.032,3.848-1.337C175,69.138,175.599,70.86,174.904,72.294z"/>
						
							<rect x="179.444" y="59.393" transform="matrix(0.9002 0.4355 -0.4355 0.9002 45.1032 -77.6636)" fill="#0567A7" width="25.122" height="0.37"/>
						
							<rect x="168.333" y="61.78" transform="matrix(-0.3291 0.9443 -0.9443 -0.3291 291.3478 -83.0764)" fill="#0567A7" width="13.708" height="0.368"/>
						<circle fill="#0567A7" cx="163.826" cy="72.949" r="1.617"/>
						
							<rect x="165.235" y="71.951" transform="matrix(-0.9761 0.2174 -0.2174 -0.9761 346.714 105.9676)" fill="#0567A7" width="4.586" height="0.21"/>
						<circle fill="#0567A7" cx="167.554" cy="58.095" r="1.616"/>
						
							<rect x="168.21" y="55.382" transform="matrix(-0.8697 0.4935 -0.4935 -0.8697 349.0853 18.8246)" fill="#0567A7" width="7.696" height="0.208"/>
						<path fill="#0567A7" d="M321.83,147.959c1.573-0.242,3.042,0.837,3.282,2.409c0.24,1.573-0.836,3.044-2.408,3.287
							c-1.574,0.239-3.043-0.839-3.284-2.412C319.176,149.671,320.256,148.201,321.83,147.959z"/>
						
							<rect x="306.461" y="148.004" transform="matrix(0.9613 0.2756 -0.2756 0.9613 52.9679 -80.6017)" fill="#0567A7" width="13.707" height="0.375"/>
						<path fill="#0567A7" d="M287.882,157.34c1.572-0.242,3.044,0.837,3.284,2.408c0.24,1.574-0.838,3.044-2.409,3.285
							c-1.571,0.239-3.042-0.839-3.285-2.409C285.232,159.052,286.311,157.582,287.882,157.34z"/>
						
							<rect x="288.168" y="153.486" transform="matrix(-0.7136 0.7005 -0.7005 -0.7136 613.2095 56.6748)" fill="#0567A7" width="13.706" height="0.37"/>
					</g>
					<g>
						<path fill="#0567A7" d="M176.43,676.065c-4.329,1.307-8.893-1.145-10.197-5.477c-1.297-4.33,1.149-8.887,5.479-10.195
							c4.328-1.302,8.892,1.148,10.194,5.478C183.211,670.204,180.758,674.764,176.43,676.065z"/>
						<path fill="#0567A7" d="M193.885,663.801c1.853-0.286,3.583,0.985,3.865,2.832c0.286,1.855-0.982,3.584-2.834,3.87
							c-1.852,0.281-3.582-0.988-3.868-2.839C190.765,665.816,192.034,664.082,193.885,663.801z"/>
						
							<rect x="181.723" y="667.689" transform="matrix(0.9974 -0.0726 0.0726 0.9974 -47.9955 15.3039)" fill="#0567A7" width="9.618" height="0.439"/>
						<path fill="#0567A7" d="M239.804,644.282c4.467-0.689,8.645,2.378,9.33,6.844c0.688,4.472-2.378,8.65-6.847,9.336
							c-4.468,0.686-8.647-2.38-9.333-6.851C232.268,649.144,235.332,644.969,239.804,644.282z"/>
						<polygon fill="#0567A7" points="234.373,655.028 197.406,667.284 197.075,666.291 234.041,654.029 						"/>
						<circle fill="#0567A7" cx="155.668" cy="570.724" r="8.183"/>
						<path fill="#0567A7" d="M197.736,542.923c-3.656,2.658-8.777,1.837-11.427-1.823c-2.645-3.664-1.833-8.784,1.827-11.425
							c3.667-2.655,8.779-1.841,11.429,1.824C202.22,535.159,201.401,540.277,197.736,542.923z"/>
						<circle fill="#0567A7" cx="243.492" cy="605.834" r="8.186"/>
						
							<rect x="182.938" y="570.469" transform="matrix(0.5864 0.81 -0.81 0.5864 552.9547 59.0803)" fill="#0567A7" width="71.374" height="1.057"/>
						
							<rect x="154.158" y="554.378" transform="matrix(-0.7373 0.6756 -0.6756 -0.7373 676.5317 846.7279)" fill="#0567A7" width="38.948" height="1.056"/>
						<path fill="#0567A7" d="M221.018,514.456c2.506-0.382,4.849,1.338,5.233,3.843c0.384,2.506-1.333,4.848-3.842,5.232
							c-2.506,0.384-4.851-1.331-5.235-3.839C216.79,517.189,218.511,514.84,221.018,514.456z"/>
						<polygon fill="#0567A7" points="218.473,521.801 200.032,533.546 199.714,533.047 218.153,521.295 						"/>
						<path fill="#0567A7" d="M274.365,573.342c4.466-0.688,8.645,2.379,9.33,6.849c0.687,4.47-2.379,8.646-6.848,9.332
							c-4.468,0.687-8.645-2.38-9.331-6.85C266.829,578.204,269.894,574.028,274.365,573.342z"/>
						<path fill="#0567A7" d="M237.461,534.275c4.468-0.684,8.646,2.38,9.331,6.846s-2.376,8.644-6.847,9.33
							c-4.463,0.687-8.641-2.378-9.326-6.847C229.933,539.142,232.997,534.967,237.461,534.275z"/>
						
							<rect x="245.765" y="593.276" transform="matrix(-0.8146 0.5801 -0.5801 -0.8146 814.379 927.2592)" fill="#0567A7" width="26.415" height="1.055"/>
						
							<rect x="237.716" y="561.558" transform="matrix(-0.6699 -0.7424 0.7424 -0.6699 12.1782 1129.59)" fill="#0567A7" width="38.944" height="1.059"/>
						<path fill="#0567A7" d="M244.838,514.07c2.513-0.388,4.854,1.332,5.242,3.844c0.385,2.509-1.335,4.854-3.848,5.238
							c-2.506,0.386-4.853-1.333-5.236-3.843C240.609,516.799,242.33,514.456,244.838,514.07z"/>
						
							<rect x="236.275" y="528.721" transform="matrix(0.2788 -0.9603 0.9603 0.2788 -332.9454 614.6676)" fill="#0567A7" width="13.028" height="0.592"/>
						<path fill="#0567A7" d="M280.051,551.965c-2.09,1.435-4.948,0.904-6.385-1.187c-1.438-2.099-0.904-4.953,1.19-6.388
							c2.087-1.441,4.95-0.908,6.386,1.187C282.678,547.666,282.143,550.528,280.051,551.965z"/>
						<polygon fill="#0567A7" points="277.733,552.206 278.049,574.059 277.458,574.069 277.143,552.211 						"/>
						<path fill="#0567A7" d="M209.246,600.851c2.509-0.386,4.852,1.334,5.238,3.841c0.385,2.51-1.335,4.85-3.844,5.234
							c-2.507,0.385-4.85-1.335-5.236-3.838C205.019,603.581,206.738,601.235,209.246,600.851z"/>
						
							<rect x="213.876" y="605.269" transform="matrix(-0.9999 -0.01 0.01 -0.9999 443.5461 1213.3518)" fill="#0567A7" width="21.863" height="0.596"/>
						
							<rect x="227.244" y="629.459" transform="matrix(-0.0708 0.9975 -0.9975 -0.0708 888.4939 431.9621)" fill="#0567A7" width="31.628" height="0.685"/>
						<circle fill="#0567A7" cx="163.562" cy="611.113" r="5.297"/>
						<path fill="#0567A7" d="M129.644,616.516c2.89-0.444,5.593,1.541,6.037,4.431c0.443,2.894-1.54,5.596-4.431,6.041
							c-2.891,0.442-5.595-1.539-6.04-4.434C124.766,619.662,126.749,616.958,129.644,616.516z"/>
						
							<rect x="145.626" y="638.255" transform="matrix(0.172 0.9851 -0.9851 0.172 768.7801 362.5412)" fill="#0567A7" width="46.195" height="0.687"/>
						
							<rect x="134.524" y="616.149" transform="matrix(-0.9588 0.2841 -0.2841 -0.9588 463.3355 1165.782)" fill="#0567A7" width="25.203" height="0.687"/>
						<circle fill="#0567A7" cx="118.487" cy="611.129" r="2.975"/>
						
							<rect x="119.541" y="615.368" transform="matrix(-0.7455 -0.6665 0.6665 -0.7455 -194.2675 1156.9387)" fill="#0567A7" width="8.435" height="0.385"/>
						<path fill="#0567A7" d="M144.212,597.812c1.622-0.249,3.14,0.863,3.389,2.487c0.249,1.619-0.863,3.137-2.486,3.387
							c-1.621,0.249-3.139-0.865-3.388-2.485C141.479,599.581,142.591,598.062,144.212,597.812z"/>
						
							<rect x="146.316" y="604.665" transform="matrix(-0.9085 -0.418 0.418 -0.9085 39.9148 1218.4597)" fill="#0567A7" width="14.147" height="0.388"/>
					</g>
					<g>
						<path fill="#0567A7" d="M226.336,492.581c-0.637,3.708,1.851,7.226,5.553,7.871c3.705,0.646,7.223-1.837,7.855-5.54
							c0.637-3.702-1.853-7.229-5.552-7.874C230.489,486.394,226.971,488.877,226.336,492.581z"/>
						<path fill="#0567A7" d="M238.376,467.543c3.707,0.616,7.206-1.891,7.811-5.594c0.604-3.716-1.904-7.216-5.615-7.83
							c-3.707-0.614-7.206,1.894-7.81,5.603C232.155,463.427,234.669,466.932,238.376,467.543z"/>
						<path fill="#0567A7" d="M281.047,480.857c3.704,0.612,7.203-1.896,7.814-5.605c0.604-3.712-1.912-7.213-5.617-7.828
							c-3.712-0.613-7.205,1.897-7.81,5.606C274.825,476.733,277.34,480.241,281.047,480.857z"/>
						<path fill="#0567A7" d="M219.905,426.819c3.711,0.612,7.209-1.9,7.814-5.605c0.606-3.709-1.909-7.21-5.617-7.829
							c-3.706-0.612-7.202,1.894-7.812,5.606C213.685,422.694,216.199,426.199,219.905,426.819z"/>
						
							<rect x="225.377" y="477.446" transform="matrix(-0.1614 0.9869 -0.9869 -0.1614 746.1301 321.7838)" fill="#0567A7" width="21.957" height="0.878"/>
						
							<rect x="244.494" y="467.07" transform="matrix(0.9612 0.2759 -0.2759 0.9612 139.104 -53.7779)" fill="#0567A7" width="32.387" height="0.879"/>
						<polygon fill="#0567A7" points="223.929,425.324 237.268,454.867 236.471,455.229 223.131,425.68 						"/>
						<path fill="#0567A7" d="M295.446,457.047c1.829-1.056,4.164-0.437,5.222,1.392c1.057,1.828,0.435,4.163-1.391,5.221
							c-1.826,1.063-4.166,0.439-5.223-1.386C292.996,460.443,293.622,458.108,295.446,457.047z"/>
						
							<rect x="285.232" y="465.96" transform="matrix(0.7394 -0.6733 0.6733 0.7394 -238.148 317.2052)" fill="#0567A7" width="10.823" height="0.492"/>
						<path fill="#0567A7" d="M203.647,418.594c-1.532,0.266-2.556,1.723-2.289,3.26c0.269,1.535,1.729,2.563,3.266,2.297
							c1.53-0.265,2.554-1.727,2.282-3.261C206.642,419.354,205.18,418.327,203.647,418.594z"/>
						
							<rect x="206.755" y="420.977" transform="matrix(-0.9984 0.0561 -0.0561 -0.9984 444.7877 829.8374)" fill="#0567A7" width="7.994" height="0.364"/>
						<path fill="#0567A7" d="M259.825,446.745c-0.302,2.089,1.144,4.032,3.232,4.341c2.087,0.305,4.023-1.139,4.332-3.225
							c0.301-2.09-1.147-4.032-3.233-4.338C262.072,443.216,260.131,444.655,259.825,446.745z"/>
						
							<rect x="243.395" y="452.474" transform="matrix(0.9044 -0.4267 0.4267 0.9044 -169.0477 151.0309)" fill="#0567A7" width="18.166" height="0.489"/>
						<path fill="#0567A7" d="M246.129,514.859c-2.091-0.252-3.997,1.232-4.251,3.331c-0.251,2.092,1.239,3.997,3.336,4.257
							c2.091,0.26,3.993-1.231,4.25-3.325C249.716,517.025,248.226,515.116,246.129,514.859z"/>
						<polygon fill="#0567A7" points="243.864,515.874 235.687,499.61 236.121,499.395 244.3,515.652 						"/>
						<path fill="#0567A7" d="M199.017,484.457c-3.732,0.111-6.67,3.225-6.551,6.967c0.112,3.738,3.231,6.683,6.97,6.577
							c3.732-0.108,6.67-3.224,6.554-6.963C205.873,487.3,202.753,484.354,199.017,484.457z"/>
						
							<rect x="205.791" y="492.205" transform="matrix(-0.9962 -0.0866 0.0866 -0.9962 389.0881 1001.8477)" fill="#0567A7" width="20.95" height="0.566"/>
						<path fill="#0567A7" d="M189.791,398.198c3.576-1.136,5.545-4.965,4.397-8.552c-1.148-3.581-4.977-5.562-8.558-4.415
							c-3.574,1.136-5.546,4.966-4.397,8.547C182.382,397.365,186.208,399.346,189.791,398.198z"/>
						<polygon fill="#0567A7" points="192.71,394.934 218.014,415.19 217.464,415.871 192.158,395.616 						"/>
						<path fill="#0567A7" d="M204.819,350.963c2.096,3.124,1.262,7.352-1.857,9.444c-3.12,2.089-7.346,1.249-9.439-1.881
							c-2.093-3.124-1.262-7.354,1.859-9.442C198.501,346.995,202.725,347.836,204.819,350.963z"/>
						<path fill="#0567A7" d="M250.619,364.968c-0.089,3.759,2.874,6.889,6.627,6.995c3.755,0.106,6.878-2.856,6.974-6.612
							c0.099-3.756-2.866-6.888-6.62-6.993C253.841,358.248,250.722,361.21,250.619,364.968z"/>
						<path fill="#0567A7" d="M243.338,409.059c-0.1,3.761,2.864,6.892,6.623,6.998c3.759,0.105,6.877-2.857,6.977-6.612
							c0.094-3.764-2.869-6.892-6.626-6.997C246.558,402.34,243.432,405.303,243.338,409.059z"/>
						<path fill="#0567A7" d="M288.397,341.206c-0.094,3.756,2.869,6.89,6.622,6.993c3.758,0.108,6.878-2.853,6.973-6.611
							c0.099-3.76-2.864-6.896-6.623-6.998C291.613,334.487,288.495,337.446,288.397,341.206z"/>
						
							<rect x="229.184" y="363.924" transform="matrix(-0.9996 -0.0278 0.0278 -0.9996 470.1093 735.2534)" fill="#0567A7" width="21.95" height="0.879"/>
						<polygon fill="#0567A7" points="251.892,403.224 256.439,371.154 255.574,371.027 251.019,403.096 						"/>
						
							<rect x="260.352" y="352.798" transform="matrix(0.8473 -0.5312 0.5312 0.8473 -145.3965 200.8388)" fill="#0567A7" width="32.348" height="0.882"/>
						<path fill="#0567A7" d="M263.79,425.684c1.761,1.156,4.126,0.675,5.283-1.094c1.159-1.759,0.664-4.13-1.099-5.295
							c-1.764-1.154-4.133-0.667-5.287,1.1C261.529,422.154,262.028,424.525,263.79,425.684z"/>
						<polygon fill="#0567A7" points="263.265,420.221 254.948,413.259 255.262,412.88 263.579,419.84 						"/>
						<path fill="#0567A7" d="M291.182,322.05c1.541-0.236,2.979,0.817,3.214,2.356s-0.817,2.977-2.356,3.212
							c-1.538,0.236-2.977-0.817-3.211-2.354C288.591,323.724,289.646,322.287,291.182,322.05z"/>
						
							<rect x="288.771" y="331.149" transform="matrix(-0.1929 -0.9812 0.9812 -0.1929 24.1552 682.531)" fill="#0567A7" width="8.002" height="0.365"/>
						<path fill="#0567A7" d="M274.178,383.451c-2.107-0.019-3.834,1.671-3.854,3.783c-0.02,2.114,1.678,3.839,3.792,3.869
							c2.105,0.019,3.831-1.678,3.85-3.786C277.986,385.202,276.29,383.479,274.178,383.451z"/>
						
							<rect x="258.145" y="376.601" transform="matrix(0.546 0.8378 -0.8378 0.546 437.0299 -52.8142)" fill="#0567A7" width="18.203" height="0.486"/>
						<path fill="#0567A7" d="M224.892,360.285c2.089-0.318,4.041,1.113,4.359,3.201c0.322,2.086-1.108,4.037-3.196,4.357
							c-2.089,0.325-4.04-1.108-4.36-3.199C221.373,362.561,222.805,360.606,224.892,360.285z"/>
						
							<rect x="204.66" y="359.663" transform="matrix(0.941 0.3385 -0.3385 0.941 134.4402 -51.1075)" fill="#0567A7" width="18.188" height="0.493"/>
						
							<rect x="179.456" y="373.248" transform="matrix(-0.2786 0.9604 -0.9604 -0.2786 605.0004 292.6103)" fill="#0567A7" width="26.292" height="0.567"/>
						<path fill="#0567A7" d="M155.169,493.782c-0.195-2.425-2.316-4.236-4.743-4.047c-2.421,0.188-4.231,2.31-4.033,4.737
							c0.195,2.426,2.318,4.241,4.741,4.046C153.559,498.332,155.363,496.212,155.169,493.782z"/>
						<path fill="#0567A7" d="M156.838,464.902c-0.194-2.425-2.314-4.236-4.739-4.045c-2.424,0.189-4.234,2.309-4.039,4.735
							c0.197,2.427,2.32,4.235,4.74,4.046C155.227,469.453,157.034,467.328,156.838,464.902z"/>
						
							<rect x="154.795" y="492.263" transform="matrix(0.9969 -0.0782 0.0782 0.9969 -38.0057 15.1239)" fill="#0567A7" width="38.391" height="0.566"/>
						
							<rect x="141.152" y="479.453" transform="matrix(0.0349 -0.9994 0.9994 0.0349 -333.1051 614.5275)" fill="#0567A7" width="20.97" height="0.572"/>
						<path fill="#0567A7" d="M141.04,455.364c1.349-0.205,2.609,0.721,2.814,2.066c0.209,1.348-0.717,2.609-2.063,2.816
							c-1.351,0.209-2.612-0.718-2.816-2.064C138.767,456.834,139.693,455.574,141.04,455.364z"/>
						
							<rect x="142.59" y="460.938" transform="matrix(-0.8308 -0.5566 0.5566 -0.8308 10.8329 925.4789)" fill="#0567A7" width="7.016" height="0.31"/>
						<path fill="#0567A7" d="M138.75,483.498c1.36-0.126,2.353-1.331,2.215-2.697c-0.129-1.36-1.335-2.355-2.696-2.224
							c-1.36,0.13-2.352,1.337-2.219,2.695C136.18,482.637,137.393,483.632,138.75,483.498z"/>
						
							<rect x="137.778" y="487.136" transform="matrix(-0.6312 -0.7756 0.7756 -0.6312 -143.6048 906.3071)" fill="#0567A7" width="11.785" height="0.319"/>
						<path fill="#0567A7" d="M183.076,513.552c-0.693-2.336-3.144-3.672-5.476-2.98c-2.329,0.686-3.659,3.14-2.964,5.473
							c0.689,2.333,3.145,3.67,5.473,2.977C182.442,518.332,183.771,515.887,183.076,513.552z"/>
						
							<rect x="177.468" y="503.544" transform="matrix(-0.6408 0.7677 -0.7677 -0.6408 695.1667 682.3885)" fill="#0567A7" width="20.94" height="0.571"/>
						<path fill="#0567A7" d="M296.609,425.976c3.648-0.803,5.952-4.407,5.146-8.069c-0.808-3.65-4.414-5.959-8.068-5.161
							c-3.649,0.799-5.951,4.41-5.148,8.062C289.349,424.462,292.961,426.771,296.609,425.976z"/>
						
							<rect x="267.682" y="420.962" transform="matrix(0.9949 -0.1006 0.1006 0.9949 -40.9744 30.1259)" fill="#0567A7" width="20.944" height="0.566"/>
						<path fill="#0567A7" d="M337.945,408.658c0.643,2.343,3.066,3.73,5.404,3.092c2.344-0.634,3.73-3.061,3.088-5.405
							c-0.643-2.353-3.068-3.734-5.407-3.099C338.689,403.88,337.304,406.306,337.945,408.658z"/>
						<path fill="#0567A7" d="M341.672,437.353c0.64,2.351,3.057,3.732,5.408,3.099c2.34-0.642,3.719-3.062,3.083-5.407
							c-0.646-2.352-3.069-3.738-5.407-3.094C342.41,432.584,341.025,435.003,341.672,437.353z"/>
						<path fill="#0567A7" d="M356.9,386.855c0.64,2.347,3.065,3.731,5.401,3.092c2.349-0.634,3.73-3.057,3.086-5.403
							c-0.643-2.35-3.061-3.73-5.41-3.094C357.636,382.085,356.254,384.511,356.9,386.855z"/>
						
							<rect x="300.481" y="413.064" transform="matrix(-0.965 0.2623 -0.2623 -0.965 736.5542 728.3915)" fill="#0567A7" width="38.375" height="0.568"/>
						
							<rect x="333.471" y="421.513" transform="matrix(0.1515 0.9885 -0.9885 0.1515 708.7771 17.9065)" fill="#0567A7" width="20.976" height="0.566"/>
						
							<rect x="341.319" y="396.284" transform="matrix(0.6572 -0.7537 0.7537 0.6572 -178.3071 401.0673)" fill="#0567A7" width="20.939" height="0.568"/>
						<path fill="#0567A7" d="M357.44,443.836c1.308,0.387,2.683-0.354,3.067-1.666c0.389-1.309-0.36-2.689-1.667-3.076
							c-1.31-0.393-2.685,0.353-3.069,1.658C355.38,442.063,356.131,443.447,357.44,443.836z"/>
						
							<rect x="349.362" y="438.821" transform="matrix(0.9194 0.3934 -0.3934 0.9194 201.1476 -103.4219)" fill="#0567A7" width="7.013" height="0.324"/>
						<path fill="#0567A7" d="M357.337,375.072c-0.573-0.833-1.71-1.039-2.536-0.472c-0.834,0.57-1.039,1.703-0.472,2.533
							c0.571,0.836,1.707,1.048,2.532,0.476C357.694,377.042,357.905,375.904,357.337,375.072z"/>
						<polygon fill="#0567A7" points="356.628,377.513 359.049,382.095 358.843,382.202 356.419,377.626 						"/>
						<path fill="#0567A7" d="M355.981,415.713c-1.312,0.375-2.057,1.748-1.678,3.057c0.384,1.317,1.76,2.076,3.071,1.688
							c1.309-0.375,2.057-1.748,1.672-3.06C358.667,416.085,357.293,415.327,355.981,415.713z"/>
						
							<rect x="344.653" y="412.793" transform="matrix(0.7641 0.6451 -0.6451 0.7641 349.0909 -128.7189)" fill="#0567A7" width="11.777" height="0.313"/>
						<circle fill="#0567A7" cx="310.78" cy="392.409" r="4.399"/>
						
							<rect x="293.425" y="404.736" transform="matrix(0.4865 -0.8737 0.8737 0.4865 -197.8085 473.4816)" fill="#0567A7" width="20.94" height="0.568"/>
					</g>
				</g>
			</g>
		</g>
	</g>
</g>
</svg>
