<?xml version="1.0" encoding="utf-8"?>
<!-- Generator: Adobe Illustrator 16.0.0, SVG Export Plug-In . SVG Version: 6.00 Build 0)  -->
<!DOCTYPE svg PUBLIC "-//W3C//DTD SVG 1.1//EN" "http://www.w3.org/Graphics/SVG/1.1/DTD/svg11.dtd">
<svg version="1.1" xmlns="http://www.w3.org/2000/svg" xmlns:xlink="http://www.w3.org/1999/xlink" x="0px" y="0px" width="1024px"
	 height="512px" viewBox="0 0 1024 512" enable-background="new 0 0 1024 512" xml:space="preserve">
<g id="background">
	<rect fill="#005288" stroke="#005288" width="1024" height="512"/>
</g>
<g id="molecules">
	<g>
		<defs>
			<rect id="SVGID_1_" width="1024" height="512"/>
		</defs>
		<clipPath id="SVGID_2_">
			<use xlink:href="#SVGID_1_"  overflow="visible"/>
		</clipPath>
		<g opacity="0.2" clip-path="url(#SVGID_2_)">
			<path fill="#0567A7" d="M826.904,388.463c-5.519-0.678-10.546,3.261-11.232,8.797c-0.688,5.535,3.23,10.573,8.747,11.249
				c5.519,0.68,10.546-3.26,11.233-8.794C836.339,394.178,832.421,389.141,826.904,388.463z"/>
			<path fill="#0567A7" d="M840.171,283.196c-5.518-0.679-10.547,3.259-11.232,8.796c-0.686,5.536,3.229,10.573,8.747,11.251
				c5.518,0.679,10.547-3.261,11.233-8.796C849.604,288.911,845.689,283.872,840.171,283.196z"/>
			<path fill="#0567A7" d="M757.818,365.765c-8.482-1.042-16.212,5.011-17.266,13.52c-1.055,8.51,4.965,16.251,13.445,17.295
				c8.481,1.042,16.21-5.012,17.266-13.521S766.3,366.807,757.818,365.765z"/>
			
				<rect x="788.723" y="344.938" transform="matrix(0.123 -0.9924 0.9924 0.123 387.3751 1129.5227)" fill="#0567A7" width="88.089" height="1.296"/>
			
				<rect x="769.908" y="389.254" transform="matrix(-0.9718 -0.2357 0.2357 -0.9718 1473.4751 955.9015)" fill="#0567A7" width="47.898" height="1.301"/>
			<path fill="#0567A7" d="M655.428,371.812c0.412-5.562-3.749-10.398-9.292-10.802c-5.547-0.403-10.374,3.78-10.786,9.344
				c-0.413,5.562,3.749,10.398,9.293,10.801C650.188,381.556,655.017,377.374,655.428,371.812z"/>
			<path fill="#0567A7" d="M669.35,306.958c0.413-5.565-3.748-10.399-9.293-10.803c-5.545-0.401-10.374,3.78-10.786,9.343
				s3.749,10.399,9.294,10.802C664.109,316.703,668.938,312.521,669.35,306.958z"/>
			<path fill="#0567A7" d="M597.885,404.539c0.412-5.564-3.749-10.4-9.294-10.802c-5.546-0.403-10.373,3.779-10.786,9.342
				c-0.411,5.563,3.749,10.398,9.295,10.802C592.644,414.284,597.473,410.1,597.885,404.539z"/>
			
				<rect x="654.504" y="374.829" transform="matrix(0.9974 0.0724 -0.0724 0.9974 29.0382 -49.6114)" fill="#0567A7" width="87.791" height="1.301"/>
			
				<rect x="628.383" y="338.128" transform="matrix(0.1876 -0.9822 0.9822 0.1876 197.2513 916.0464)" fill="#0567A7" width="48.068" height="1.295"/>
			<polygon fill="#0567A7" points="595.759,399.854 637.508,376.2 636.87,375.068 595.123,398.721 			"/>
			<path fill="#0567A7" d="M756.471,271.572c0.232-3.122-2.104-5.838-5.217-6.064c-3.111-0.225-5.824,2.125-6.055,5.246
				c-0.23,3.122,2.104,5.839,5.218,6.063C753.529,277.044,756.241,274.697,756.471,271.572z"/>
			<path fill="#0567A7" d="M711.935,331.263c0.231-3.123-2.104-5.839-5.217-6.063c-3.114-0.227-5.824,2.121-6.055,5.245
				c-0.232,3.123,2.104,5.838,5.217,6.063C708.992,336.733,711.704,334.387,711.935,331.263z"/>
			
				<rect x="733.474" y="289.072" transform="matrix(0.1876 -0.9822 0.9822 0.1876 322.5101 968.8259)" fill="#0567A7" width="26.985" height="0.73"/>
			<path fill="#0567A7" d="M640.302,280.977c-2.525-1.835-6.06-1.267-7.894,1.27c-1.835,2.537-1.274,6.082,1.251,7.917
				c2.526,1.837,6.06,1.266,7.895-1.271C643.388,286.356,642.828,282.812,640.302,280.977z"/>
			
				<rect x="638.412" y="294.409" transform="matrix(-0.7358 -0.6772 0.6772 -0.7358 922.4727 949.4221)" fill="#0567A7" width="16.036" height="0.729"/>
			<path fill="#0567A7" d="M587.937,429.668c0.595,2.231,2.88,3.553,5.106,2.951c2.225-0.603,3.546-2.898,2.949-5.128
				c-0.595-2.23-2.881-3.552-5.106-2.951C588.661,425.143,587.341,427.438,587.937,429.668z"/>
			
				<rect x="584.89" y="418.623" transform="matrix(0.1454 0.9894 -0.9894 0.1454 919.3577 -226.5554)" fill="#0567A7" width="11.861" height="0.537"/>
			<path fill="#0567A7" d="M867.221,405.67c3.118-0.165,5.517-2.833,5.356-5.958c-0.158-3.128-2.813-5.529-5.931-5.363
				c-3.118,0.164-5.518,2.832-5.356,5.959C861.447,403.436,864.104,405.836,867.221,405.67z"/>
			
				<rect x="834.937" y="398.104" transform="matrix(0.998 0.0627 -0.0627 0.998 26.6428 -52.3904)" fill="#0567A7" width="26.893" height="0.732"/>
			<polygon fill="#0567A7" points="710.74,328.634 734.181,315.354 733.822,314.719 710.386,327.997 			"/>
			<path fill="#0567A7" d="M621.926,342.868c3.116,0.173,5.787-2.223,5.963-5.35c0.177-3.125-2.205-5.8-5.322-5.971
				c-3.116-0.173-5.785,2.223-5.963,5.35C616.427,340.023,618.809,342.698,621.926,342.868z"/>
			
				<rect x="618.174" y="352.697" transform="matrix(-0.5049 -0.8632 0.8632 -0.5049 645.8015 1076.5414)" fill="#0567A7" width="26.935" height="0.729"/>
			<path fill="#0567A7" d="M878.007,299.26c-0.642,5.543,3.313,10.548,8.836,11.184c5.521,0.637,10.521-3.341,11.165-8.882
				c0.644-5.54-3.312-10.547-8.835-11.183S878.652,293.72,878.007,299.26z"/>
			<path fill="#0567A7" d="M861.396,363.479c-0.646,5.541,3.311,10.548,8.834,11.182c5.522,0.637,10.521-3.341,11.165-8.882
				c0.643-5.541-3.312-10.548-8.836-11.183C867.036,353.96,862.037,357.938,861.396,363.479z"/>
			<path fill="#0567A7" d="M936.862,268.977c-0.645,5.54,3.312,10.546,8.836,11.183c5.521,0.635,10.52-3.343,11.164-8.884
				c0.644-5.541-3.312-10.547-8.835-11.182C942.504,259.458,937.506,263.436,936.862,268.977z"/>
			
				<rect x="846.463" y="296.301" transform="matrix(-0.9935 -0.1142 0.1142 -0.9935 1685.8312 690.5208)" fill="#0567A7" width="32.481" height="1.3"/>
			
				<rect x="855.604" y="331.746" transform="matrix(-0.2284 0.9736 -0.9736 -0.2284 1404.1824 -448.0556)" fill="#0567A7" width="48.069" height="1.297"/>
			<polygon fill="#0567A7" points="938.79,273.745 896.095,295.627 896.684,296.785 939.38,274.904 			"/>
			<path fill="#0567A7" d="M889.331,390.658c2.445,1.939,6.001,1.519,7.938-0.938c1.938-2.458,1.527-6.023-0.92-7.963
				c-2.445-1.939-6.001-1.52-7.939,0.938S886.885,388.719,889.331,390.658z"/>
			
				<rect x="875.764" y="376.25" transform="matrix(0.7067 0.7075 -0.7075 0.7067 525.6211 -514.8065)" fill="#0567A7" width="16.038" height="0.729"/>
			<path fill="#0567A7" d="M947.851,244.283c-0.502-2.254-2.731-3.671-4.979-3.164c-2.249,0.508-3.664,2.747-3.161,5
				c0.5,2.254,2.729,3.669,4.978,3.162C946.938,248.776,948.354,246.538,947.851,244.283z"/>
			
				<rect x="938.589" y="254.662" transform="matrix(-0.1039 -0.9946 0.9946 -0.1039 789.1005 1220.825)" fill="#0567A7" width="11.862" height="0.538"/>
			<path fill="#0567A7" d="M910.271,329.586c-3.106-0.303-5.873,1.979-6.181,5.096c-0.307,3.117,1.962,5.888,5.068,6.191
				c3.105,0.302,5.874-1.98,6.181-5.097C915.647,332.66,913.379,329.888,910.271,329.586z"/>
			<polygon fill="#0567A7" points="907.62,330.724 895.004,306.92 894.361,307.266 906.977,331.066 			"/>
			<path fill="#0567A7" d="M808.668,314.131c0.231-3.123-2.104-5.839-5.218-6.064c-3.112-0.226-5.823,2.122-6.054,5.245
				c-0.232,3.123,2.104,5.838,5.218,6.064C805.727,319.601,808.438,317.254,808.668,314.131z"/>
			<polygon fill="#0567A7" points="807.476,311.501 830.912,298.222 830.556,297.586 807.117,310.864 			"/>
			<path fill="#0567A7" d="M739.245,320.574c5.16,2.066,11.022-0.46,13.089-5.641c2.068-5.182-0.439-11.054-5.601-13.12
				c-5.161-2.065-11.02,0.461-13.09,5.643C731.575,312.639,734.084,318.512,739.245,320.574z"/>
			<polygon fill="#0567A7" points="744.343,319.95 754.131,366.975 755.4,366.707 745.612,319.681 			"/>
			<path fill="#0567A7" d="M846.27,451.357c-5.256-1.809-10.987,1.002-12.799,6.278c-1.813,5.275,0.979,11.019,6.234,12.827
				c5.258,1.81,10.986-1.001,12.801-6.277C854.318,458.909,851.526,453.166,846.27,451.357z"/>
			<polygon fill="#0567A7" points="841.209,452.231 829.136,405.749 827.88,406.081 839.953,452.562 			"/>
			<path fill="#0567A7" d="M711.562,426.184c-0.746-5.524-5.819-9.389-11.327-8.631c-5.511,0.759-9.372,5.854-8.626,11.379
				c0.746,5.526,5.817,9.39,11.327,8.631C708.447,436.804,712.308,431.71,711.562,426.184z"/>
			<polygon fill="#0567A7" points="708.514,422.045 744.484,390.235 743.628,389.26 707.657,421.069 			"/>
			<path fill="#0567A7" d="M850.215,242.112c-0.424-5.53-5.237-9.662-10.752-9.225c-5.516,0.436-9.641,5.273-9.216,10.805
				c0.424,5.53,5.238,9.661,10.752,9.224C846.514,252.481,850.641,247.643,850.215,242.112z"/>
			
				<rect x="824.005" y="267.761" transform="matrix(0.0383 -0.9993 0.9993 0.0383 539.4384 1096.8564)" fill="#0567A7" width="31.102" height="0.838"/>
			<path fill="#0567A7" d="M701.038,489.777c0.286-5.571-3.982-10.311-9.535-10.587c-5.553-0.277-10.286,4.014-10.574,9.584
				c-0.286,5.571,3.983,10.31,9.535,10.587C696.018,499.641,700.751,495.349,701.038,489.777z"/>
			<path fill="#0567A7" d="M806.639,495.263c0.287-5.571-3.983-10.311-9.535-10.588s-10.287,4.015-10.572,9.585
				c-0.288,5.571,3.982,10.311,9.535,10.588C801.618,505.124,806.353,500.833,806.639,495.263z"/>
			
				<rect x="700.185" y="491.821" transform="matrix(0.9988 0.0498 -0.0498 0.9988 25.459 -36.4587)" fill="#0567A7" width="87.797" height="1.301"/>
			
				<rect x="673.25" y="456.173" transform="matrix(0.1655 -0.9862 0.9862 0.1655 131.3744 1068.8962)" fill="#0567A7" width="48.067" height="1.296"/>
			<polygon fill="#0567A7" points="692.975,514 692.855,498.515 692.127,498.522 692.246,514 			"/>
			<polygon fill="#0567A7" points="795.404,514 795.904,502.572 794.608,502.517 794.106,514 			"/>
			<path fill="#0567A7" d="M773.668,466.034c3.121,0,5.656-2.538,5.662-5.669c0.007-3.132-2.52-5.67-5.641-5.67
				c-3.121-0.002-5.655,2.537-5.662,5.668C768.021,463.493,770.546,466.034,773.668,466.034z"/>
			<polygon fill="#0567A7" points="776.199,464.646 791.048,487.112 791.655,486.707 776.807,464.241 			"/>
			<path fill="#0567A7" d="M639.803,514c0.019-0.065,0.039-0.129,0.057-0.194c1.43-5.393-1.768-10.92-7.142-12.344
				c-5.372-1.423-10.888,1.796-12.316,7.188c-0.483,1.822-0.437,3.66,0.044,5.35H639.803z"/>
			<polygon fill="#0567A7" points="638.636,508.805 684.006,493.287 683.589,492.056 638.217,507.575 			"/>
			<polygon fill="#0567A7" points="836.332,466.134 805.263,489.678 805.769,490.351 836.836,466.805 			"/>
			<path fill="#0567A7" d="M976.986,222.28c1.941,5.223,7.739,7.871,12.949,5.913c5.21-1.957,7.861-7.777,5.919-12.999
				s-7.739-7.87-12.948-5.914C977.695,211.237,975.045,217.058,976.986,222.28z"/>
			<polygon fill="#0567A7" points="980.87,225.643 952.75,264.604 953.802,265.366 981.921,226.405 			"/>
			<path fill="#0567A7" d="M1030.415,310.113c-5.556,0.122-9.973,4.743-9.86,10.318c0.114,5.577,4.711,9.997,10.271,9.872
				c5.559-0.123,9.974-4.744,9.861-10.32C1040.571,314.407,1035.975,309.988,1030.415,310.113z"/>
			<path fill="#0567A7" d="M964.763,302.449c-5.56,0.125-9.975,4.745-9.86,10.32c0.113,5.577,4.711,9.996,10.27,9.871
				c5.56-0.122,9.974-4.743,9.86-10.319C974.921,306.746,970.321,302.326,964.763,302.449z"/>
			<polygon fill="#0567A7" points="973.999,314.713 1021.692,319.178 1021.816,317.882 974.123,313.417 			"/>
			<path fill="#0567A7" d="M941.664,333.958c-1.587,2.698-0.696,6.173,1.99,7.761c2.688,1.588,6.154,0.688,7.741-2.012
				c1.589-2.698,0.697-6.173-1.99-7.761C946.717,330.357,943.251,331.261,941.664,333.958z"/>
			
				<rect x="946.753" y="326.146" transform="matrix(-0.6026 0.798 -0.798 -0.6026 1790.7461 -238.6568)" fill="#0567A7" width="16.075" height="0.728"/>
			<path fill="#0567A7" d="M1004.79,346.354c-0.117-3.128-2.742-5.563-5.861-5.44c-3.12,0.124-5.554,2.761-5.436,5.889
				c0.119,3.13,2.742,5.565,5.862,5.44C1002.474,352.119,1004.908,349.482,1004.79,346.354z"/>
			<polygon fill="#0567A7" points="1003.312,343.875 1025.128,328.057 1024.705,327.465 1002.884,343.283 			"/>
			
				<rect x="994.223" y="224.263" transform="matrix(-0.9725 -0.2329 0.2329 -0.9725 1947.1228 679.3017)" fill="#0567A7" width="38.894" height="0.842"/>
			<path fill="#0567A7" d="M833.315,177.762c3.568-0.462,6.096-3.738,5.643-7.318c-0.454-3.581-3.716-6.107-7.285-5.646
				c-3.57,0.461-6.094,3.738-5.642,7.318C826.484,175.695,829.746,178.223,833.315,177.762z"/>
			<path fill="#0567A7" d="M876.099,178.179c3.568-0.461,6.096-3.737,5.643-7.316c-0.454-3.581-3.716-6.108-7.285-5.647
				c-3.569,0.462-6.096,3.738-5.643,7.317C869.268,176.115,872.528,178.642,876.099,178.179z"/>
			<path fill="#0567A7" d="M805.274,145.411c3.57-0.461,6.097-3.738,5.644-7.318c-0.455-3.579-3.717-6.107-7.286-5.645
				c-3.57,0.461-6.097,3.737-5.644,7.317C798.442,143.346,801.704,145.873,805.274,145.411z"/>
			
				<rect x="807.992" y="205.157" transform="matrix(0.1257 0.9921 -0.9921 0.1257 935.2842 -650.1136)" fill="#0567A7" width="56.985" height="0.84"/>
			<polygon fill="#0567A7" points="869.315,170.923 838.312,171.329 838.319,172.171 869.324,171.766 			"/>
			<polygon fill="#0567A7" points="807.964,143.45 828.253,166.932 828.887,166.379 808.599,142.897 			"/>
			<path fill="#0567A7" d="M909.599,229.001c2.003-0.259,3.421-2.099,3.167-4.11c-0.256-2.008-2.086-3.429-4.09-3.168
				c-2.004,0.259-3.423,2.098-3.167,4.108C905.764,227.842,907.594,229.261,909.599,229.001z"/>
			<path fill="#0567A7" d="M866.17,208.433c2.005-0.258,3.421-2.098,3.168-4.107c-0.255-2.008-2.085-3.43-4.089-3.169
				c-2.006,0.258-3.423,2.097-3.169,4.106C862.336,207.274,864.167,208.692,866.17,208.433z"/>
			
				<rect x="888.387" y="225.041" transform="matrix(0.9999 -0.0131 0.0131 0.9999 -2.8799 11.7957)" fill="#0567A7" width="17.408" height="0.473"/>
			<path fill="#0567A7" d="M888.815,156.32c0.837-1.846,0.027-4.02-1.812-4.856c-1.839-0.838-4.009-0.021-4.846,1.825
				c-0.838,1.846-0.027,4.021,1.812,4.856C885.807,158.983,887.978,158.166,888.815,156.32z"/>
			
				<rect x="875.671" y="161.778" transform="matrix(0.5149 -0.8572 0.8572 0.5149 288.4183 833.7155)" fill="#0567A7" width="10.406" height="0.471"/>
			<path fill="#0567A7" d="M788.115,142.352c-1.335,0.669-1.879,2.295-1.213,3.631c0.663,1.337,2.284,1.88,3.617,1.21
				c1.336-0.668,1.878-2.294,1.213-3.633C791.068,142.226,789.448,141.683,788.115,142.352z"/>
			
				<rect x="791.466" y="142.61" transform="matrix(-0.9396 0.3424 -0.3424 -0.9396 1591.4189 4.6692)" fill="#0567A7" width="7.663" height="0.349"/>
			
				<rect x="864.842" y="213.532" transform="matrix(-0.6537 -0.7567 0.7567 -0.6537 1282.8721 1014.5489)" fill="#0567A7" width="17.422" height="0.473"/>
			<path fill="#0567A7" d="M847.335,152.683c0.289,2.004,2.145,3.391,4.146,3.097c1.998-0.293,3.384-2.158,3.095-4.162
				c-0.289-2.005-2.146-3.392-4.144-3.099C848.433,148.813,847.046,150.678,847.335,152.683z"/>
			
				<rect x="833.409" y="159.954" transform="matrix(0.743 -0.6693 0.6693 0.743 109.2279 604.8228)" fill="#0567A7" width="17.446" height="0.471"/>
			<path fill="#0567A7" d="M876.415,224.417c-0.646,3.551,1.7,6.951,5.238,7.593c3.54,0.642,6.936-1.719,7.582-5.27
				c0.646-3.552-1.7-6.951-5.241-7.593C880.455,218.505,877.061,220.864,876.415,224.417z"/>
			<polygon fill="#0567A7" points="877.462,227.578 848.979,239.923 849.312,240.698 877.793,228.352 			"/>
			<path fill="#0567A7" d="M806.107,220.546c3.399-1.193,5.193-4.922,4.011-8.329c-1.184-3.407-4.897-5.2-8.296-4.007
				c-3.399,1.194-5.194,4.922-4.011,8.329C798.995,219.946,802.71,221.739,806.107,220.546z"/>
			<polygon fill="#0567A7" points="808.336,218.068 833.042,236.813 833.549,236.141 808.843,217.396 			"/>
			<path fill="#0567A7" d="M943.575,382.643c1.442,5.354,6.938,8.512,12.278,7.057c5.34-1.457,8.5-6.977,7.058-12.33
				c-1.44-5.354-6.939-8.513-12.278-7.058C945.293,371.769,942.134,377.289,943.575,382.643z"/>
			
				<rect x="933.678" y="354.63" transform="matrix(0.1475 0.9891 -0.9891 0.1475 1160.3379 -636.1682)" fill="#0567A7" width="31.089" height="0.839"/>
			<path fill="#0567A7" d="M972.11,442.699c-3.423,1.119-5.299,4.808-4.189,8.24c1.107,3.431,4.782,5.306,8.207,4.188
				c3.424-1.12,5.298-4.809,4.19-8.239C979.208,443.455,975.532,441.58,972.11,442.699z"/>
			<path fill="#0567A7" d="M929.982,450.264c-3.425,1.12-5.301,4.809-4.191,8.239c1.109,3.434,4.783,5.308,8.207,4.188
				c3.423-1.119,5.299-4.808,4.188-8.239C937.078,451.021,933.405,449.145,929.982,450.264z"/>
			<path fill="#0567A7" d="M1005.669,469.245c-3.424,1.119-5.3,4.809-4.192,8.241c1.11,3.432,4.784,5.307,8.208,4.187
				c3.424-1.119,5.298-4.809,4.189-8.24C1012.765,470.002,1009.091,468.128,1005.669,469.245z"/>
			
				<rect x="935.366" y="415.548" transform="matrix(-0.3076 -0.9515 0.9515 -0.3076 864.4738 1461.0283)" fill="#0567A7" width="56.954" height="0.841"/>
			
				<rect x="937.6" y="452.203" transform="matrix(-0.98 0.1991 -0.1991 -0.98 1977.2593 706.4105)" fill="#0567A7" width="31.022" height="0.843"/>
			
				<rect x="975.473" y="461.942" transform="matrix(0.7832 0.6217 -0.6217 0.7832 502.2543 -515.884)" fill="#0567A7" width="31.013" height="0.843"/>
			<path fill="#0567A7" d="M887.638,406.591c-1.923,0.63-2.976,2.7-2.353,4.627c0.622,1.926,2.685,2.979,4.606,2.352
				c1.922-0.628,2.975-2.7,2.352-4.627C891.621,407.017,889.559,405.964,887.638,406.591z"/>
			<path fill="#0567A7" d="M934.135,418.697c-1.923,0.627-2.975,2.698-2.353,4.626c0.623,1.927,2.685,2.979,4.606,2.351
				c1.922-0.629,2.976-2.698,2.352-4.625C938.119,419.121,936.056,418.068,934.135,418.697z"/>
			
				<rect x="891.913" y="407.681" transform="matrix(-0.98 0.1992 -0.1992 -0.98 1864.4424 628.2888)" fill="#0567A7" width="17.416" height="0.473"/>
			
				<ellipse transform="matrix(-0.9714 -0.2376 0.2376 -0.9714 1710.8018 1156.1736)" fill="#0567A7" cx="925.085" cy="474.975" rx="3.658" ry="3.67"/>
			
				<rect x="923.078" y="466.798" transform="matrix(-0.3474 0.9377 -0.9377 -0.3474 1688.6969 -241.2034)" fill="#0567A7" width="10.41" height="0.471"/>
			<path fill="#0567A7" d="M1023.102,469.052c1.188-0.905,1.421-2.604,0.521-3.794c-0.901-1.189-2.595-1.419-3.782-0.514
				c-1.188,0.906-1.421,2.604-0.521,3.793C1020.222,469.729,1021.914,469.958,1023.102,469.052z"/>
			
				<rect x="1012.128" y="469.792" transform="matrix(0.8595 -0.5111 0.5111 0.8595 -97.4733 585.3289)" fill="#0567A7" width="7.667" height="0.349"/>
			
				<rect x="917.183" y="414.597" transform="matrix(0.7832 0.6217 -0.6217 0.7832 458.6008 -485.7211)" fill="#0567A7" width="17.412" height="0.472"/>
			<path fill="#0567A7" d="M962.977,469.946c-0.654-1.915-2.735-2.933-4.646-2.271c-1.91,0.663-2.928,2.751-2.271,4.668
				c0.656,1.914,2.736,2.931,4.647,2.27C962.615,473.951,963.634,471.861,962.977,469.946z"/>
			
				<rect x="957.972" y="461.365" transform="matrix(-0.6061 0.7954 -0.7954 -0.6061 1919.7452 -27.5717)" fill="#0567A7" width="17.457" height="0.473"/>
			<path fill="#0567A7" d="M570.448,486.524c1.311-3.364-0.343-7.15-3.695-8.46c-3.353-1.308-7.131,0.358-8.44,3.724
				c-1.311,3.365,0.344,7.15,3.695,8.46C565.359,491.556,569.139,489.889,570.448,486.524z"/>
			<path fill="#0567A7" d="M591.363,449.046c1.311-3.366-0.345-7.153-3.695-8.461c-3.352-1.309-7.132,0.358-8.44,3.723
				c-1.312,3.364,0.343,7.151,3.694,8.46C586.274,454.074,590.052,452.409,591.363,449.046z"/>
			<path fill="#0567A7" d="M528.664,495.79c1.311-3.362-0.343-7.151-3.694-8.459c-3.353-1.308-7.131,0.359-8.44,3.722
				c-1.312,3.365,0.344,7.153,3.694,8.461C523.575,500.822,527.354,499.155,528.664,495.79z"/>
			
				<rect x="567.912" y="496.58" transform="matrix(0.9316 0.3636 -0.3636 0.9316 221.5249 -182.8041)" fill="#0567A7" width="56.81" height="0.841"/>
			
				<rect x="559.304" y="465.084" transform="matrix(0.4673 -0.8841 0.8841 0.4673 -105.3278 756.1986)" fill="#0567A7" width="31.104" height="0.839"/>
			
				<rect x="527.787" y="488.319" transform="matrix(-0.9766 0.2149 -0.2149 -0.9766 1178.9235 849.328)" fill="#0567A7" width="31.023" height="0.844"/>
			<path fill="#0567A7" d="M578.336,427.417c-1.212-1.616-3.506-1.94-5.121-0.721c-1.615,1.221-1.941,3.52-0.729,5.14
				c1.213,1.617,3.506,1.939,5.121,0.72C579.222,431.337,579.55,429.035,578.336,427.417z"/>
			
				<rect x="574.311" y="436.891" transform="matrix(-0.5037 -0.8639 0.8639 -0.5037 493.7791 1157.9314)" fill="#0567A7" width="10.39" height="0.473"/>
			<path fill="#0567A7" d="M517.746,509.445c-0.058,1.493,1.106,2.748,2.596,2.8c1.489,0.054,2.742-1.116,2.797-2.609
				c0.056-1.495-1.107-2.748-2.597-2.802C519.053,506.782,517.801,507.951,517.746,509.445z"/>
			
				<rect x="517.734" y="503.152" transform="matrix(-0.1512 0.9885 -0.9885 -0.1512 1097.9766 63.855)" fill="#0567A7" width="7.679" height="0.347"/>
			
				<ellipse transform="matrix(-0.3467 0.938 -0.938 -0.3467 1179.7664 95.8533)" fill="#0567A7" cx="556.503" cy="458.772" rx="3.67" ry="3.657"/>
			
				<rect x="550.577" y="470.144" transform="matrix(-0.2289 -0.9734 0.9734 -0.2289 229.4694 1122.5173)" fill="#0567A7" width="17.45" height="0.47"/>
			<polygon fill="#0567A7" points="1010.134,514 1009.096,480.677 1007.799,480.718 1008.836,514 			"/>
			<path fill="#0567A7" d="M921.104,404.908c-0.024-3.609-2.96-6.512-6.558-6.481c-3.6,0.03-6.496,2.979-6.475,6.589
				c0.024,3.61,2.959,6.513,6.558,6.481C918.227,411.468,921.126,408.518,921.104,404.908z"/>
			
				<rect x="916.576" y="392.512" transform="matrix(-0.8276 0.5613 -0.5613 -0.8276 1924.0784 194.9091)" fill="#0567A7" width="31.063" height="0.839"/>
			<path fill="#0567A7" d="M990.927,395.602c-3.12,1.806-4.193,5.805-2.398,8.929c1.795,3.125,5.778,4.194,8.896,2.389
				c3.119-1.805,4.194-5.804,2.398-8.929C998.028,394.865,994.045,393.797,990.927,395.602z"/>
			
				<rect x="959.629" y="391.504" transform="matrix(0.8954 0.4453 -0.4453 0.8954 276.5496 -393.2301)" fill="#0567A7" width="31" height="0.843"/>
		</g>
		<g clip-path="url(#SVGID_2_)">
			<circle fill="#0567A7" cx="940.062" cy="287.934" r="8.543"/>
			<circle fill="#0567A7" cx="851.312" cy="274.66" r="8.543"/>
			<circle fill="#0567A7" cx="941.885" cy="226.959" r="13.131"/>
			
				<rect x="858.109" y="281.071" transform="matrix(-0.9887 -0.15 0.15 -0.9887 1738.3679 694.3253)" fill="#0567A7" width="74.507" height="1.1"/>
			
				<rect x="920.008" y="259.424" transform="matrix(0.0353 -0.9994 0.9994 0.0353 647.3375 1190.5492)" fill="#0567A7" width="40.652" height="1.101"/>
			<path fill="#0567A7" d="M957.199,142.695c-4.625-0.938-7.611-5.446-6.674-10.068c0.938-4.626,5.445-7.613,10.07-6.675
				c4.624,0.938,7.611,5.445,6.673,10.07C966.332,140.646,961.823,143.634,957.199,142.695z"/>
			<circle fill="#0567A7" cx="902.908" cy="130.843" r="8.543"/>
			<circle fill="#0567A7" cx="998.684" cy="94.792" r="8.543"/>
			
				<rect x="913.126" y="178.105" transform="matrix(-0.1988 0.98 -0.98 -0.1988 1314.3795 -717.2456)" fill="#0567A7" width="74.504" height="1.101"/>
			
				<rect x="910.66" y="132.116" transform="matrix(-0.9964 -0.0848 0.0848 -0.9964 1847.3749 343.7774)" fill="#0567A7" width="40.653" height="1.101"/>
			
				<rect x="958.545" y="113.764" transform="matrix(0.7082 -0.706 0.706 0.7082 204.9124 724.4339)" fill="#0567A7" width="40.654" height="1.102"/>
			<circle fill="#0567A7" cx="853.46" cy="197.611" r="4.795"/>
			<path fill="#0567A7" d="M911.281,179.588c-2.596-0.527-4.273-3.059-3.749-5.653c0.529-2.597,3.06-4.275,5.655-3.748
				s4.273,3.058,3.747,5.654C916.407,178.436,913.877,180.113,911.281,179.588z"/>
			
				<rect x="857.811" y="198.326" transform="matrix(-0.9964 -0.0847 0.0847 -0.9964 1718.4871 470.2148)" fill="#0567A7" width="22.823" height="0.618"/>
			<circle fill="#0567A7" cx="891.182" cy="107.861" r="4.796"/>
			
				<rect x="889.719" y="117.383" transform="matrix(-0.4522 -0.8919 0.8919 -0.4522 1196.917 970.5472)" fill="#0567A7" width="13.602" height="0.619"/>
			<circle fill="#0567A7" cx="1017.915" cy="103.834" r="3.538"/>
			
				<rect x="1005.268" y="100.451" transform="matrix(0.9129 0.4082 -0.4082 0.9129 129.0959 -403.6207)" fill="#0567A7" width="10.037" height="0.456"/>
			<circle fill="#0567A7" cx="931.88" cy="322.013" r="4.796"/>
			
				<rect x="923.449" y="306.191" transform="matrix(-0.2083 0.9781 -0.9781 -0.2083 1429.4011 -543.9921)" fill="#0567A7" width="22.823" height="0.619"/>
			
				<rect x="889.7" y="185.538" transform="matrix(0.7082 -0.706 0.706 0.7082 131.7208 690.4059)" fill="#0567A7" width="22.824" height="0.618"/>
			<circle fill="#0567A7" cx="936.596" cy="107.649" r="4.796"/>
			
				<rect x="935.949" y="118.651" transform="matrix(-0.6935 -0.7204 0.7204 -0.6935 1518.6733 883.9735)" fill="#0567A7" width="22.823" height="0.617"/>
			<circle fill="#0567A7" cx="845.964" cy="316.418" r="8.542"/>
			<circle fill="#0567A7" cx="902.051" cy="317.553" r="8.542"/>
			<circle fill="#0567A7" cx="807.867" cy="357.58" r="8.543"/>
			
				<rect x="835.139" y="294.393" transform="matrix(0.1576 -0.9875 0.9875 0.1576 423.9023 1086.79)" fill="#0567A7" width="27.568" height="1.102"/>
			
				<rect x="853.594" y="316.355" transform="matrix(0.9991 0.043 -0.043 0.9991 14.4261 -37.2635)" fill="#0567A7" width="40.654" height="1.102"/>
			
				<rect x="806.517" y="336.695" transform="matrix(-0.6781 0.735 -0.735 -0.6781 1635.3711 -41.8216)" fill="#0567A7" width="40.655" height="1.102"/>
			<circle fill="#0567A7" cx="914.728" cy="340.024" r="4.796"/>
			
				<rect x="902.182" y="330.115" transform="matrix(0.4892 0.8722 -0.8722 0.4892 752.5425 -624.0165)" fill="#0567A7" width="13.602" height="0.618"/>
			<circle fill="#0567A7" cx="788.275" cy="349.352" r="3.538"/>
			
				<rect x="791.01" y="351.956" transform="matrix(-0.9292 -0.3696 0.3696 -0.9292 1405.5051 973.6614)" fill="#0567A7" width="10.037" height="0.456"/>
			<circle fill="#0567A7" cx="869.362" cy="342.136" r="4.796"/>
			
				<rect x="846.722" y="330.977" transform="matrix(0.7231 0.6907 -0.6907 0.7231 466.4297 -501.0068)" fill="#0567A7" width="22.822" height="0.618"/>
			<circle fill="#0567A7" cx="876.201" cy="250.02" r="4.796"/>
			
				<rect x="853.667" y="260.67" transform="matrix(0.7082 -0.706 0.706 0.7082 68.1517 686.8646)" fill="#0567A7" width="22.823" height="0.618"/>
			<circle fill="#0567A7" cx="887.85" cy="200.37" r="8.543"/>
			
				<rect x="892.121" y="212.805" transform="matrix(-0.887 -0.4618 0.4618 -0.887 1623.2461 823.9663)" fill="#0567A7" width="40.652" height="1.102"/>
			<circle fill="#0567A7" cx="986.941" cy="316.395" r="8.542"/>
			
				<rect x="942.683" y="301.669" transform="matrix(0.8633 0.5047 -0.5047 0.8633 284.1372 -444.6782)" fill="#0567A7" width="40.653" height="1.102"/>
			<circle fill="#0567A7" cx="992.059" cy="193.19" r="8.543"/>
			
				<rect x="948.305" y="207.632" transform="matrix(0.8391 -0.5439 0.5439 0.8391 42.5746 560.327)" fill="#0567A7" width="40.652" height="1.101"/>
			<circle fill="#0567A7" cx="810.04" cy="264.197" r="8.498"/>
			
				<rect x="817.624" y="269.08" transform="matrix(-0.9723 -0.2336 0.2336 -0.9723 1575.6199 725.5081)" fill="#0567A7" width="26.309" height="0.713"/>
			<circle fill="#0567A7" cx="1025.099" cy="286.227" r="8.542"/>
			
				<rect x="996.543" y="195.827" transform="matrix(-0.9942 -0.1072 0.1072 -0.9942 2006.817 500.6732)" fill="#0567A7" width="40.654" height="1.101"/>
			<circle fill="#0567A7" cx="1002.317" cy="259.625" r="4.796"/>
			
				<rect x="1001.035" y="271.2" transform="matrix(-0.6531 -0.7573 0.7573 -0.6531 1468.0815 1215.5233)" fill="#0567A7" width="22.822" height="0.619"/>
			
				<rect x="989.556" y="302.081" transform="matrix(-0.7957 0.6058 -0.6058 -0.7957 1989.738 -66.3534)" fill="#0567A7" width="33.01" height="0.712"/>
			<circle fill="#0567A7" cx="756.99" cy="378.136" r="8.544"/>
			
				<rect x="762.819" y="368.121" transform="matrix(-0.9383 0.3457 -0.3457 -0.9383 1645.4545 443.8715)" fill="#0567A7" width="40.652" height="1.101"/>
			<circle fill="#0567A7" cx="756.028" cy="426.771" r="8.543"/>
			<circle fill="#0567A7" cx="723.357" cy="453.324" r="8.543"/>
			<circle fill="#0567A7" cx="763.192" cy="492.823" r="8.542"/>
			<circle fill="#0567A7" cx="667.384" cy="456.861" r="8.541"/>
			
				<rect x="726.526" y="439.262" transform="matrix(0.7951 -0.6065 0.6065 0.7951 -115.0458 539.1149)" fill="#0567A7" width="27.568" height="1.101"/>
			
				<rect x="722.942" y="472.406" transform="matrix(0.6939 0.7201 -0.7201 0.6939 568.1285 -390.4442)" fill="#0567A7" width="40.651" height="1.101"/>
			
				<rect x="674.823" y="454.671" transform="matrix(-0.9979 0.0647 -0.0647 -0.9979 1418.2812 864.5358)" fill="#0567A7" width="40.653" height="1.1"/>
			
				<rect x="752.535" y="506.615" transform="matrix(-0.2473 0.9689 -0.9689 -0.2473 1438.3186 -103.4422)" fill="#0567A7" width="13.602" height="0.619"/>
			<circle fill="#0567A7" cx="658.87" cy="437.391" r="3.538"/>
			
				<rect x="657.512" y="444.561" transform="matrix(-0.418 -0.9084 0.9084 -0.418 535.4179 1232.5878)" fill="#0567A7" width="10.036" height="0.457"/>
			<circle fill="#0567A7" cx="722.567" cy="488.083" r="4.796"/>
			
				<rect x="710.507" y="472.172" transform="matrix(0.0472 0.9989 -0.9989 0.0472 1159.7671 -270.9514)" fill="#0567A7" width="22.821" height="0.618"/>
			<circle fill="#0567A7" cx="829.531" cy="437.508" r="8.543"/>
			<circle fill="#0567A7" cx="838.279" cy="382.096" r="8.542"/>
			<circle fill="#0567A7" cx="865.132" cy="480.845" r="8.543"/>
			
				<rect x="794.875" y="431.106" transform="matrix(-0.9569 -0.2903 0.2903 -0.9569 1457.1562 1079.505)" fill="#0567A7" width="27.567" height="1.101"/>
			
				<rect x="813.488" y="409.327" transform="matrix(0.1784 -0.984 0.984 0.1784 281.7527 1157.1877)" fill="#0567A7" width="40.653" height="1.101"/>
			
				<rect x="827.24" y="458.729" transform="matrix(0.6361 0.7716 -0.7716 0.6361 662.8661 -486.8657)" fill="#0567A7" width="40.651" height="1.102"/>
			<circle fill="#0567A7" cx="862.265" cy="372.591" r="4.796"/>
			
				<rect x="845.173" y="376.669" transform="matrix(0.9306 -0.366 0.366 0.9306 -78.8575 337.929)" fill="#0567A7" width="13.602" height="0.617"/>
			<circle fill="#0567A7" cx="854.316" cy="499.138" r="3.538"/>
			
				<rect x="853.159" y="491.613" transform="matrix(-0.4924 0.8704 -0.8704 -0.4924 1708.824 -12.9123)" fill="#0567A7" width="10.037" height="0.458"/>
			<circle fill="#0567A7" cx="858.191" cy="417.823" r="4.796"/>
			
				<rect x="834.503" y="427.163" transform="matrix(0.7826 -0.6225 0.6225 0.7826 -82.2162 619.5067)" fill="#0567A7" width="22.823" height="0.618"/>
			<circle fill="#0567A7" cx="791.043" cy="426.09" r="4.796"/>
			
				<rect x="764.019" y="426.048" transform="matrix(0.9997 -0.0229 0.0229 0.9997 -9.5571 17.8633)" fill="#0567A7" width="22.822" height="0.618"/>
			
				<rect x="739.108" y="401.415" transform="matrix(0.0381 -0.9993 0.9993 0.0381 325.3643 1141.5383)" fill="#0567A7" width="33.01" height="0.711"/>
			<circle fill="#0567A7" cx="753.482" cy="241.465" r="5.528"/>
			<circle fill="#0567A7" cx="744.057" cy="276.526" r="5.529"/>
			<circle fill="#0567A7" cx="733.54" cy="211.136" r="5.528"/>
			
				<rect x="756.39" y="252.226" transform="matrix(0.9208 0.39 -0.39 0.9208 160.3062 -284.3883)" fill="#0567A7" width="48.219" height="0.713"/>
			
				<rect x="735.678" y="258.596" transform="matrix(-0.2815 0.9596 -0.9596 -0.2815 1208.1162 -386.6982)" fill="#0567A7" width="26.309" height="0.713"/>
			
				<rect x="730.212" y="225.861" transform="matrix(-0.5508 -0.8346 0.8346 -0.5508 964.0011 971.2594)" fill="#0567A7" width="26.31" height="0.712"/>
			<circle fill="#0567A7" cx="780.027" cy="316.493" r="3.104"/>
			<circle fill="#0567A7" cx="773.191" cy="276.288" r="3.104"/>
			
				<rect x="775.324" y="306.427" transform="matrix(-0.2815 0.9596 -0.9596 -0.2815 1297.2561 -358.1237)" fill="#0567A7" width="14.769" height="0.401"/>
			<circle fill="#0567A7" cx="727.969" cy="280.999" r="3.103"/>
			
				<rect x="730.493" y="278.681" transform="matrix(-0.9641 0.2655 -0.2655 -0.9641 1517.4568 352.6223)" fill="#0567A7" width="8.801" height="0.4"/>
			<circle fill="#0567A7" cx="741.753" cy="200.105" r="2.291"/>
			
				<rect x="735.521" y="204.388" transform="matrix(0.5818 -0.8133 0.8133 0.5818 142.6099 686.4167)" fill="#0567A7" width="6.494" height="0.296"/>
			
				<rect x="771.324" y="284.554" transform="matrix(-0.5508 -0.8346 0.8346 -0.5508 969.9583 1091.5366)" fill="#0567A7" width="14.771" height="0.401"/>
			<circle fill="#0567A7" cx="733.689" cy="252.171" r="3.104"/>
			
				<rect x="734.866" y="246.601" transform="matrix(-0.8441 0.5361 -0.5361 -0.8441 1501.1245 57.1749)" fill="#0567A7" width="14.77" height="0.4"/>
			<circle fill="#0567A7" cx="786.21" cy="295.038" r="5.528"/>
			
				<rect x="784.462" y="280.756" transform="matrix(-0.6292 0.7772 -0.7772 -0.6292 1517.9865 -161.9272)" fill="#0567A7" width="26.309" height="0.712"/>
			<circle fill="#0567A7" cx="795.09" cy="228.022" r="5.529"/>
			
				<rect x="788.424" y="244.458" transform="matrix(-0.3658 -0.9307 0.9307 -0.3658 866.9868 1080.3879)" fill="#0567A7" width="26.309" height="0.713"/>
			<circle fill="#0567A7" cx="895.889" cy="387.969" r="8.498"/>
			
				<rect x="863.331" y="378.609" transform="matrix(0.912 0.4103 -0.4103 0.912 232.6406 -326.2335)" fill="#0567A7" width="26.309" height="0.713"/>
			<circle fill="#0567A7" cx="947.236" cy="420.817" r="5.529"/>
			<circle fill="#0567A7" cx="963.013" cy="388.118" r="5.528"/>
			<circle fill="#0567A7" cx="961.194" cy="454.324" r="5.529"/>
			
				<rect x="898.646" y="404.515" transform="matrix(-0.8323 -0.5544 0.5544 -0.8323 1466.3052 1253.3701)" fill="#0567A7" width="48.219" height="0.712"/>
			
				<rect x="941.899" y="404.141" transform="matrix(0.4549 -0.8905 0.8905 0.4549 160.3426 1070.9661)" fill="#0567A7" width="26.31" height="0.712"/>
			
				<rect x="941.186" y="437.321" transform="matrix(0.3861 0.9225 -0.9225 0.3861 989.6427 -611.6464)" fill="#0567A7" width="26.309" height="0.713"/>
			<circle fill="#0567A7" cx="935.098" cy="342.162" r="3.104"/>
			<circle fill="#0567A7" cx="934.341" cy="382.936" r="3.104"/>
			
				<rect x="923.245" y="351.156" transform="matrix(0.455 -0.8905 0.8905 0.455 194.3152 1020.2092)" fill="#0567A7" width="14.771" height="0.401"/>
			<circle fill="#0567A7" cx="979.652" cy="386.713" r="3.103"/>
			
				<rect x="968.055" y="387.309" transform="matrix(0.9967 -0.0816 0.0816 0.9967 -28.3931 80.6948)" fill="#0567A7" width="8.803" height="0.399"/>
			<circle fill="#0567A7" cx="951.073" cy="463.636" r="2.29"/>
			
				<rect x="951.581" y="459.689" transform="matrix(-0.7229 0.691 -0.691 -0.7229 1962.7823 132.4581)" fill="#0567A7" width="6.495" height="0.296"/>
			
				<rect x="923.108" y="373.392" transform="matrix(0.3861 0.9225 -0.9225 0.3861 915.8597 -628.9929)" fill="#0567A7" width="14.771" height="0.4"/>
			<circle fill="#0567A7" cx="968.673" cy="413.977" r="3.104"/>
			
				<rect x="951.878" y="417.462" transform="matrix(0.9291 -0.3699 0.3699 0.9291 -86.4556 384.5031)" fill="#0567A7" width="14.77" height="0.4"/>
			<circle fill="#0567A7" cx="1022.546" cy="90.546" r="3.103"/>
			<circle fill="#0567A7" cx="627.318" cy="397.228" r="8.542"/>
			
				<rect x="624.339" y="418.416" transform="matrix(-0.6282 -0.778 0.778 -0.6282 723.7083 1183.7419)" fill="#0567A7" width="40.653" height="1.103"/>
			<path fill="#0567A7" d="M586.687,514c1.363-3.16,0.728-6.971-1.889-9.514c-3.383-3.289-8.791-3.212-12.08,0.17
				c-2.482,2.555-3.046,6.265-1.718,9.344H586.687z"/>
			<circle fill="#0567A7" cx="531.529" cy="486.812" r="8.543"/>
			<circle fill="#0567A7" cx="580.94" cy="411.905" r="8.543"/>
			
				<rect x="518.824" y="448.376" transform="matrix(0.5523 -0.8336 0.8336 0.5523 -125.3 664.5241)" fill="#0567A7" width="74.506" height="1.101"/>
			
				<rect x="536.447" y="498.284" transform="matrix(0.8916 0.4529 -0.4529 0.8916 286.262 -198.0563)" fill="#0567A7" width="40.654" height="1.099"/>
			<circle fill="#0567A7" cx="504.064" cy="465.042" r="4.796"/>
			
				<rect x="505.468" y="473.969" transform="matrix(-0.7994 -0.6008 0.6008 -0.7994 645.134 1163.9547)" fill="#0567A7" width="22.821" height="0.617"/>
			<circle fill="#0567A7" cx="545.317" cy="389.47" r="8.542"/>
			<circle fill="#0567A7" cx="520.67" cy="439.864" r="8.543"/>
			
				<rect x="549.764" y="400.645" transform="matrix(0.8293 0.5587 -0.5587 0.8293 320.3317 -246.4071)" fill="#0567A7" width="27.567" height="1.102"/>
			
				<rect x="512.775" y="414.072" transform="matrix(-0.4597 0.8881 -0.8881 -0.4597 1146.3779 131.7761)" fill="#0567A7" width="40.653" height="1.101"/>
			<circle fill="#0567A7" cx="494.951" cy="441.899" r="4.796"/>
			
				<rect x="499.276" y="440.422" transform="matrix(-0.9971 0.0763 -0.0763 -0.9971 1044.2864 841.5895)" fill="#0567A7" width="13.601" height="0.618"/>
			<circle fill="#0567A7" cx="512.137" cy="399.863" r="4.796"/>
			
				<rect x="515.297" y="393.939" transform="matrix(-0.931 0.365 -0.365 -0.931 1160.9833 569.0271)" fill="#0567A7" width="22.823" height="0.618"/>
			<circle fill="#0567A7" cx="592.81" cy="444.856" r="4.797"/>
			
				<rect x="576.141" y="429.843" transform="matrix(0.3421 0.9397 -0.9397 0.3421 790.7462 -269.105)" fill="#0567A7" width="22.822" height="0.619"/>
			<path fill="#0567A7" d="M493.833,514c-0.863-2.026-2.504-3.722-4.715-4.596c-4.318-1.708-9.192,0.349-11,4.596H493.833z"/>
			
				<rect x="488.582" y="501.061" transform="matrix(-0.8213 0.5705 -0.5705 -0.8213 1213.0485 623.2195)" fill="#0567A7" width="40.654" height="1.1"/>
			
				<rect x="963.559" y="466.807" transform="matrix(-0.9537 -0.3007 0.3007 -0.9537 1814.7322 1214.0709)" fill="#0567A7" width="74.505" height="1.102"/>
			
				<rect x="587.983" y="403.142" transform="matrix(0.9587 -0.2843 0.2843 0.9587 -89.7618 188.4778)" fill="#0567A7" width="33.011" height="0.713"/>
			<circle fill="#0567A7" cx="615.42" cy="488.081" r="5.529"/>
			<path fill="#0567A7" d="M642.871,514c-0.046-0.089-0.094-0.176-0.145-0.263c-1.548-2.632-4.938-3.51-7.569-1.961
				c-0.931,0.549-1.644,1.329-2.104,2.224H642.871z"/>
			
				<rect x="616.337" y="472.65" transform="matrix(0.8619 -0.5072 0.5072 0.8619 -151.413 390.1451)" fill="#0567A7" width="48.219" height="0.714"/>
			
				<rect x="613.54" y="501.878" transform="matrix(0.6028 0.7979 -0.7979 0.6028 649.6104 -300.5485)" fill="#0567A7" width="26.309" height="0.712"/>
			<circle fill="#0567A7" cx="612.224" cy="510.354" r="3.104"/>
			
				<rect x="605.628" y="500.08" transform="matrix(-0.0723 0.9974 -0.9974 -0.0723 1156.3228 -74.9417)" fill="#0567A7" width="14.77" height="0.398"/>
			<circle fill="#0567A7" cx="925.036" cy="362.093" r="5.529"/>
			
				<rect x="898.084" y="373.3" transform="matrix(0.7627 -0.6467 0.6467 0.7627 -25.4281 678.0084)" fill="#0567A7" width="26.31" height="0.712"/>
			<circle fill="#0567A7" cx="903.854" cy="426.292" r="5.528"/>
			
				<rect x="887.445" y="408.231" transform="matrix(0.1865 0.9825 -0.9825 0.1865 1134.0854 -552.4062)" fill="#0567A7" width="26.311" height="0.712"/>
		</g>
	</g>
</g>
</svg>
