<?xml version="1.0" encoding="utf-8"?>
<!-- Generator: Adobe Illustrator 16.0.0, SVG Export Plug-In . SVG Version: 6.00 Build 0)  -->
<!DOCTYPE svg PUBLIC "-//W3C//DTD SVG 1.1//EN" "http://www.w3.org/Graphics/SVG/1.1/DTD/svg11.dtd">
<svg version="1.1" id="Layer_1" xmlns="http://www.w3.org/2000/svg" xmlns:xlink="http://www.w3.org/1999/xlink" x="0px" y="0px"
	 width="14px" height="14px" viewBox="0 0 14 14" enable-background="new 0 0 14 14" xml:space="preserve">
<path fill="#404148" d="M238.068,310.212H89.407c-14.65,0-26.569-11.92-26.569-26.569V147.189H-38.853v136.453
	c0,14.649-11.919,26.569-26.569,26.569h-148.662c-14.91,0-27.04-12.129-27.04-27.038V59.451h-63.547
	c-9.7,0-18.464-4.697-23.441-12.566c-7.008-11.11-5.077-25.58,4.579-34.424l315.61-292.503c5.047-4.637,11.539-7.166,18.328-7.166
	c6.715,0,13.16,2.479,18.148,6.983l67.837,62.25v-36.941h141.17v166.488L347.484,12.426c9.67,8.757,11.656,23.251,4.648,34.394
	c-4.939,7.896-13.719,12.631-23.463,12.631h-63.562v223.723C265.107,298.083,252.979,310.212,238.068,310.212z M94.126,278.923
	h139.693V28.163h84.536L206.271-74.673v-148.955h-78.593v76.83L10.43-254.392L-294.446,28.163h84.612v250.76h139.693V145.318
	c0-16.221,13.197-29.417,29.418-29.417H64.708c16.222,0,29.418,13.196,29.418,29.417V278.923z"/>
<path fill="#009DDC" d="M11.596,13.072H8.574c-0.298,0-0.54-0.242-0.54-0.54V9.759H5.966v2.773c0,0.298-0.242,0.54-0.54,0.54H2.403
	c-0.303,0-0.549-0.246-0.549-0.549V7.975H0.562c-0.197,0-0.375-0.095-0.477-0.255c-0.143-0.226-0.104-0.521,0.093-0.7l6.417-5.947
	C6.698,0.979,6.83,0.928,6.968,0.928c0.136,0,0.268,0.05,0.369,0.141l1.379,1.267V1.584h2.87v3.385l2.235,2.051
	c0.196,0.178,0.236,0.472,0.094,0.698c-0.101,0.161-0.278,0.257-0.477,0.257h-1.292v4.549
	C12.146,12.826,11.899,13.072,11.596,13.072z M8.67,12.437h2.84V7.339h1.719L10.95,5.248V2.22H9.352v1.562L6.968,1.595L0.77,7.339
	H2.49v5.098h2.84V9.721c0-0.33,0.269-0.599,0.598-0.599h2.144c0.329,0,0.598,0.269,0.598,0.599V12.437z"/>
</svg>
