<?xml version="1.0" encoding="utf-8"?>
<!-- Generator: Adobe Illustrator 16.0.0, SVG Export Plug-In . SVG Version: 6.00 Build 0)  -->
<!DOCTYPE svg PUBLIC "-//W3C//DTD SVG 1.1//EN" "http://www.w3.org/Graphics/SVG/1.1/DTD/svg11.dtd">
<svg version="1.1" id="Layer_1" xmlns="http://www.w3.org/2000/svg" xmlns:xlink="http://www.w3.org/1999/xlink" x="0px" y="0px"
	 width="24px" height="24px" viewBox="0 0 24 24" enable-background="new 0 0 24 24" xml:space="preserve">
<path fill="#FF5E15" d="M12,22.994C5.937,22.994,1.004,18.062,1.004,12C1.004,5.938,5.937,1.006,12,1.006S22.996,5.938,22.996,12
	C22.996,18.062,18.063,22.994,12,22.994z M12,3.006c-4.96,0-8.996,4.035-8.996,8.994S7.04,20.994,12,20.994
	c4.961,0,8.996-4.035,8.996-8.994S16.961,3.006,12,3.006z"/>
<path fill="#FF5E15" d="M18.026,14.531c-0.047,0-0.096-0.007-0.143-0.021c-0.226-0.067-0.368-0.28-0.356-0.505
	c-0.14-0.225-0.774-0.7-1.123-0.963c-0.466-0.349-0.76-0.573-0.927-0.783c-0.214-0.268-0.42-0.54-0.626-0.812
	c-0.387-0.511-0.787-1.04-1.232-1.521c-0.429-0.463-0.832-0.948-1.235-1.433c-0.503-0.605-1.023-1.231-1.583-1.791
	c-0.106-0.106-0.215-0.223-0.327-0.342c-0.315-0.337-0.642-0.686-0.951-0.838c-0.248-0.122-0.35-0.421-0.228-0.669
	c0.121-0.248,0.419-0.351,0.669-0.228c0.474,0.233,0.881,0.668,1.24,1.053c0.104,0.111,0.205,0.219,0.304,0.318
	c0.592,0.592,1.127,1.236,1.645,1.859c0.392,0.471,0.783,0.942,1.2,1.393c0.479,0.518,0.895,1.066,1.296,1.597
	c0.2,0.265,0.401,0.53,0.609,0.791c0.097,0.121,0.456,0.39,0.745,0.607c0.911,0.683,1.698,1.273,1.502,1.93
	C18.44,14.392,18.242,14.531,18.026,14.531z"/>
<path fill="#FF5E15" d="M13.076,14.822c-0.727,0-1.442-0.062-2.053-0.163c-1.646-0.274-3.291-0.331-5.253-0.331
	c-0.276,0-0.5-0.224-0.5-0.5s0.224-0.5,0.5-0.5c2.012,0,3.704,0.059,5.417,0.345c1.325,0.22,3.299,0.237,4.499-0.24
	c0.255-0.104,0.547,0.022,0.649,0.278c0.103,0.257-0.021,0.547-0.278,0.649C15.233,14.69,14.143,14.822,13.076,14.822z"/>
<path fill="#FF5E15" d="M14.929,18.438c-0.185,0-0.363-0.104-0.449-0.281c-0.097-0.197-0.498-0.481-0.791-0.689
	c-0.189-0.134-0.367-0.262-0.502-0.379c-0.124-0.107-0.25-0.211-0.376-0.314c-0.315-0.259-0.64-0.526-0.954-0.865
	c-0.762-0.829-1.515-1.647-2.068-2.562c-0.143-0.235-0.067-0.543,0.168-0.687c0.236-0.142,0.544-0.067,0.687,0.168
	c0.502,0.829,1.188,1.575,1.914,2.365c0.3,0.324,0.586,0.56,0.889,0.808c0.132,0.109,0.264,0.218,0.396,0.332
	c0.114,0.1,0.266,0.205,0.424,0.317c0.424,0.3,0.904,0.641,1.112,1.068c0.121,0.248,0.018,0.547-0.23,0.668
	C15.077,18.421,15.003,18.438,14.929,18.438z"/>
<path fill="#FF5E15" d="M17.758,16c-0.001,0-0.001,0-0.002,0c-1.852,0-2.956-0.66-4.313-1.402c-0.69-0.378-1.428-0.639-2.208-0.85
	c-0.32-0.086-0.642-0.203-0.961-0.302c-0.379-0.118-0.763-0.241-1.147-0.349c-0.625-0.174-1.272-0.362-1.897-0.588
	c-0.284-0.103-0.565-0.233-0.848-0.36c-0.512-0.23-0.995-0.45-1.485-0.517c-0.273-0.037-0.465-0.291-0.427-0.564
	c0.037-0.273,0.288-0.462,0.563-0.428c0.633,0.087,1.206,0.345,1.76,0.594c0.26,0.117,0.518,0.233,0.778,0.327
	c0.589,0.213,1.218,0.389,1.826,0.558c0.393,0.109,0.786,0.219,1.174,0.339c0.307,0.095,0.616,0.178,0.924,0.261
	c0.803,0.215,1.634,0.438,2.43,0.874c1.478,0.808,2.337,1.146,3.837,1.151c0.276,0.001,0.499,0.354,0.498,0.63
	C18.257,15.649,18.033,16,17.758,16z"/>
<path fill="#FF5E15" d="M9.609,18.977c-0.204,0-0.395-0.125-0.469-0.328c-0.095-0.259,0.038-0.546,0.297-0.642
	c0.467-0.171,0.798-0.505,1.182-0.892c0.304-0.307,0.619-0.624,1.029-0.879c0.553-0.344,1.145-0.532,1.717-0.716
	c0.304-0.097,0.608-0.193,0.9-0.314l0.335-0.14c0.554-0.232,1.127-0.474,1.734-0.655c0.179-0.053,0.407-0.096,0.648-0.141
	c0.315-0.059,0.844-0.155,0.983-0.278c0.207-0.183,0.523-0.162,0.705,0.045c0.183,0.207,0.163,0.522-0.045,0.705
	c-0.347,0.306-0.914,0.41-1.462,0.512c-0.203,0.037-0.395,0.071-0.544,0.116c-0.556,0.166-1.079,0.386-1.634,0.618l-0.339,0.142
	c-0.318,0.132-0.648,0.237-0.979,0.344c-0.538,0.172-1.046,0.334-1.493,0.611c-0.31,0.193-0.571,0.456-0.847,0.734
	c-0.428,0.433-0.872,0.879-1.547,1.127C9.725,18.967,9.667,18.977,9.609,18.977z"/>
<path fill="#FF5E15" d="M16.23,9.577c-0.457,0-0.916-0.029-1.374-0.118l-0.6-0.12c-0.867-0.177-1.616-0.33-2.494-0.33
	c-0.909,0-1.82-0.021-2.727-0.003C8.304,9.02,7.576,9,6.852,9C6.851,9,6.85,9,6.849,9c-0.275,0-0.498-0.184-0.5-0.459
	C6.347,8.265,6.569,8.059,6.845,8.057c0.72-0.005,1.444-0.009,2.171-0.022c0.913-0.017,1.831-0.03,2.746-0.03
	c0.979,0,1.812,0.172,2.693,0.353l0.591,0.12c0.761,0.147,1.553-0.139,2.39-0.188C17.837,8.265,18.236,8,18.632,8
	c0,0,0.001,0,0.002,0c0.275,0,0.499,0.462,0.5,0.737c0.001,0.276-0.222,0.621-0.498,0.623c-0.377,0.002-0.758,0.084-1.141,0.107
	C17.079,9.492,16.655,9.577,16.23,9.577z"/>
<path fill="#FF5E15" d="M19.037,13.791c-0.054,0-0.109-0.009-0.163-0.027c-2.091-0.723-2.857-2.809-3.6-4.827
	C14.757,7.53,14.269,6.2,13.377,5.373c-0.203-0.188-0.215-0.504-0.026-0.707c0.189-0.203,0.506-0.214,0.706-0.027
	c1.067,0.991,1.621,2.496,2.156,3.952c0.691,1.882,1.345,3.659,2.987,4.227c0.261,0.09,0.399,0.375,0.31,0.636
	C19.438,13.661,19.244,13.791,19.037,13.791z"/>
<path fill="#FF5E15" d="M17.449,11.898c-1.841,0-4.657-1.395-5.02-1.578c-0.557-0.281-1.079-0.612-1.584-0.933
	C10.183,8.968,9.558,8.571,8.862,8.28C8.568,8.157,8.248,7.985,7.918,7.807C7.339,7.494,6.74,7.17,6.257,7.12
	C5.983,7.091,5.784,6.845,5.812,6.57c0.028-0.274,0.272-0.478,0.549-0.445c0.68,0.071,1.367,0.442,2.032,0.801
	c0.299,0.162,0.588,0.319,0.855,0.431c0.773,0.324,1.463,0.762,2.131,1.185c0.507,0.321,0.986,0.625,1.5,0.884
	c1.554,0.787,4.146,1.743,5.038,1.408c0.126-0.048,0.163-0.105,0.184-0.156c0.103-0.257,0.394-0.379,0.65-0.277
	c0.256,0.103,0.381,0.394,0.277,0.65c-0.134,0.333-0.396,0.582-0.76,0.718C18.034,11.859,17.755,11.898,17.449,11.898z"/>
<path fill="#FF5E15" d="M17.22,15.205c-0.06,0-0.119-0.011-0.178-0.032c-1.08-0.411-2.135-1.077-3.155-1.721
	c-0.597-0.376-1.16-0.731-1.723-1.036c-0.84-0.454-1.742-0.876-2.614-1.285c-1.479-0.692-3.007-1.407-4.396-2.343
	c-0.229-0.154-0.29-0.465-0.135-0.694c0.154-0.23,0.465-0.29,0.694-0.135c1.325,0.892,2.817,1.59,4.261,2.267
	c0.885,0.414,1.8,0.842,2.666,1.311c0.592,0.321,1.196,0.702,1.78,1.07c0.979,0.617,1.991,1.256,2.978,1.631
	c0.258,0.099,0.388,0.388,0.289,0.646C17.611,15.082,17.421,15.205,17.22,15.205z"/>
<path fill="#FF5E15" d="M10.551,19.379c-0.229,0-0.436-0.158-0.488-0.392c-0.08-0.36-0.248-0.785-0.426-1.235
	c-0.168-0.427-0.343-0.867-0.46-1.301c-0.183-0.675-0.398-1.298-0.626-1.958l-0.104-0.304c-0.069-0.202-0.138-0.438-0.209-0.687
	c-0.162-0.565-0.347-1.206-0.584-1.539c-0.16-0.225-0.108-0.537,0.117-0.697c0.226-0.159,0.538-0.107,0.697,0.117
	c0.337,0.473,0.546,1.201,0.731,1.843c0.066,0.231,0.129,0.451,0.193,0.64l0.104,0.301c0.234,0.677,0.455,1.315,0.646,2.022
	c0.103,0.379,0.267,0.794,0.425,1.194c0.193,0.488,0.375,0.949,0.473,1.387c0.06,0.27-0.11,0.537-0.38,0.597
	C10.624,19.375,10.587,19.379,10.551,19.379z"/>
<path fill="#FF5E15" d="M12.572,18.773c-0.103,0-0.206-0.031-0.295-0.097c-0.878-0.646-1.7-1.426-2.494-2.182
	c-0.395-0.376-0.786-0.747-1.176-1.095c-0.403-0.357-0.733-0.763-1.052-1.154c-0.333-0.409-0.647-0.795-1.026-1.11
	c-0.212-0.176-0.242-0.491-0.065-0.704c0.177-0.213,0.491-0.242,0.704-0.065c0.454,0.377,0.814,0.82,1.163,1.249
	c0.307,0.377,0.597,0.733,0.94,1.038c0.398,0.354,0.797,0.734,1.2,1.117c0.771,0.734,1.569,1.492,2.396,2.1
	c0.223,0.164,0.271,0.477,0.107,0.699C12.877,18.703,12.726,18.773,12.572,18.773z"/>
<path fill="#FF5E15" d="M11.145,10.908c-0.306,0-0.609-0.003-0.91-0.006l-0.897-0.007c-0.433,0-0.901-0.063-1.397-0.129
	c-0.807-0.108-1.643-0.221-2.215-0.03c-0.262,0.086-0.545-0.054-0.632-0.317c-0.087-0.262,0.055-0.545,0.317-0.632
	c0.79-0.262,1.743-0.135,2.663-0.012c0.843,0.113,1.5,0.12,2.172,0.127c0.877,0.008,1.787,0.02,2.652-0.058
	c0.514-0.046,1.023-0.102,1.53-0.157c1.231-0.134,2.488-0.267,3.806-0.264c0.276,0.002,0.498,0.228,0.496,0.504
	c-0.002,0.275-0.226,0.496-0.5,0.496c-0.03,0.004-0.092,0-0.137,0c-1.194,0-2.343,0.125-3.556,0.258
	c-0.515,0.056-1.029,0.113-1.55,0.159C12.376,10.895,11.757,10.908,11.145,10.908z"/>
</svg>
