<?xml version="1.0" encoding="utf-8"?>
<!-- Generator: Adobe Illustrator 16.0.0, SVG Export Plug-In . SVG Version: 6.00 Build 0)  -->
<!DOCTYPE svg PUBLIC "-//W3C//DTD SVG 1.1//EN" "http://www.w3.org/Graphics/SVG/1.1/DTD/svg11.dtd">
<svg version="1.1" id="Layer_1" xmlns="http://www.w3.org/2000/svg" xmlns:xlink="http://www.w3.org/1999/xlink" x="0px" y="0px"
	 width="24px" height="24px" viewBox="0 0 24 24" enable-background="new 0 0 24 24" xml:space="preserve">
<g>
	<rect fill="#D34836" width="24" height="24"/>
	<path fill="#FFFFFF" d="M10.136,11.067c0,0.031-0.004,0.057-0.004,0.082c0,0.622,0.001,1.967,0.001,1.967s2.589,0,2.729,0
		c0,0.202-0.24,1.017-1.001,1.533c-0.447,0.303-0.95,0.443-1.481,0.477c-0.376,0.022-0.746-0.015-1.105-0.13
		c-1.139-0.364-1.987-1.395-2.103-2.648c-0.027-0.31-0.007-0.62,0.062-0.925C7.573,9.94,8.978,8.84,10.587,9.079
		c0.713,0.103,1.123,0.401,1.497,0.72c0.494-0.494,0.981-0.981,1.481-1.484c-0.122-0.088-0.402-0.373-0.902-0.661
		c-0.748-0.434-1.556-0.649-2.418-0.658c-0.161-0.003-0.323,0.007-0.487,0.014c-0.286,0.011-0.564,0.06-0.84,0.131
		C7.817,7.421,6.901,8,6.185,8.883c-0.69,0.848-1.06,1.825-1.128,2.912c-0.029,0.462,0.007,0.921,0.108,1.372
		c0.288,1.264,0.949,2.282,1.994,3.046c0.809,0.593,1.721,0.909,2.72,0.963c0.563,0.03,1.122-0.02,1.671-0.164
		c1.021-0.268,1.87-0.801,2.506-1.648c0.924-1.228,1.146-2.802,0.875-4.296C13.327,11.067,11.735,11.067,10.136,11.067z"/>
	<polygon fill="#FFFFFF" points="21.095,11.132 19.367,11.132 19.367,9.407 19.367,9.356 19.315,9.356 18.026,9.356 17.976,9.356 
		17.976,9.407 17.976,11.132 16.249,11.132 16.198,11.132 16.198,11.185 16.198,12.474 16.198,12.525 16.249,12.525 17.976,12.525 
		17.976,14.251 17.976,14.303 18.026,14.303 19.315,14.303 19.367,14.303 19.367,14.251 19.367,12.525 21.095,12.525 21.145,12.525 
		21.145,12.474 21.145,11.185 21.145,11.132 	"/>
</g>
</svg>
