<?xml version="1.0" encoding="utf-8"?>
<!-- Generator: Adobe Illustrator 16.0.0, SVG Export Plug-In . SVG Version: 6.00 Build 0)  -->
<!DOCTYPE svg PUBLIC "-//W3C//DTD SVG 1.1//EN" "http://www.w3.org/Graphics/SVG/1.1/DTD/svg11.dtd">
<svg version="1.1" id="Layer_1" xmlns="http://www.w3.org/2000/svg" xmlns:xlink="http://www.w3.org/1999/xlink" x="0px" y="0px"
	 width="24px" height="24px" viewBox="0 0 24 24" enable-background="new 0 0 24 24" xml:space="preserve">
<path fill="#2797CF" d="M12,0.504C5.65,0.504,0.504,5.651,0.504,12C0.504,18.35,5.65,23.496,12,23.496
	c6.349,0,11.496-5.146,11.496-11.496C23.496,5.651,18.349,0.504,12,0.504z M8.663,11.02v7.206H5.484v-6.67V9.146h3.179V11.02z
	 M7.074,7.785c-0.878,0-1.59-0.711-1.59-1.589s0.712-1.589,1.59-1.589c0.877,0,1.589,0.711,1.589,1.589S7.951,7.785,7.074,7.785z
	 M19.103,18.226h-2.725v-4.423c0-1.056-0.116-2.413-1.562-2.413c-1.468,0-1.691,1.148-1.691,2.335v4.5h-2.646v-7.337V9.146h2.53
	v1.225h0.04c0.376-0.715,1.298-1.225,2.67-1.225c2.313,0,3.099,1.077,3.314,2.788c0.05,0.401,0.069,0.837,0.069,1.302V18.226z"/>
</svg>
