<?xml version="1.0" encoding="utf-8"?>
<!-- Generator: Adobe Illustrator 16.0.0, SVG Export Plug-In . SVG Version: 6.00 Build 0)  -->
<!DOCTYPE svg PUBLIC "-//W3C//DTD SVG 1.1//EN" "http://www.w3.org/Graphics/SVG/1.1/DTD/svg11.dtd">
<svg version="1.1" id="Layer_1" xmlns="http://www.w3.org/2000/svg" xmlns:xlink="http://www.w3.org/1999/xlink" x="0px" y="0px"
	 width="24px" height="24px" viewBox="0 0 24 24" enable-background="new 0 0 24 24" xml:space="preserve">
<path fill="#FFFFFF" d="M12,0.504C5.651,0.504,0.504,5.651,0.504,12c0,6.35,5.147,11.496,11.497,11.496
	c6.349,0,11.496-5.146,11.496-11.496C23.496,5.651,18.35,0.504,12,0.504z M12.481,15.188c-0.59,0.629-1.345,0.934-2.19,1.027
	c-1.729,0.189-3.35-0.791-3.977-2.402c-0.258-0.665-0.312-1.354-0.199-2.001c0.265-1.518,1.45-2.815,3.1-3.084
	c1.146-0.188,2.17,0.089,3.061,0.841c0.033,0.027,0.068,0.053,0.093,0.071c-0.381,0.384-0.737,0.744-1.104,1.114
	c-0.27-0.235-0.583-0.413-0.949-0.492c-1.021-0.224-2.054,0.334-2.472,1.251c-0.072,0.16-0.128,0.33-0.16,0.509
	c-0.225,1.266,0.562,2.436,1.824,2.643c1.017,0.168,1.965-0.288,2.275-1.206c0.022-0.069,0.039-0.14,0.066-0.237
	c-0.68,0-1.339,0-2.019,0c0-0.502-0.002-0.977,0.006-1.452c0-0.03,0.08-0.084,0.125-0.086c0.235-0.009,0.472-0.005,0.707-0.005
	c0.824,0,1.648,0.006,2.473-0.005c0.189-0.002,0.271,0.036,0.295,0.241C13.573,13.141,13.351,14.262,12.481,15.188z M17.941,12.02
	c0,0.243,0,0.48,0,0.731c-0.432,0-0.855,0-1.305,0c0,0.45,0,0.874,0,1.306c-0.328,0-0.63,0-0.955,0c0-0.424,0-0.848,0-1.303
	c-0.216,0-0.41,0.004-0.605,0c-0.234-0.005-0.468-0.016-0.701-0.024c-0.01-0.238-0.021-0.478-0.031-0.717
	c-0.003-0.065,0-0.133,0-0.231c0.456,0,0.882,0,1.324,0c0-0.072,0-0.144,0-0.216c0-0.365,0-0.725,0-1.104
	c0.305,0,0.594-0.004,0.882,0.007c0.032,0.001,0.086,0.095,0.087,0.146c0.008,0.316,0.004,0.632,0.003,0.948
	c0,0.054,0,0.107,0,0.173c0,0.016,0,0.031,0,0.049c0.084,0,0.165,0,0.249,0c0.354,0,0.702,0,1.053,0
	C17.941,11.864,17.941,11.942,17.941,12.02z"/>
</svg>
