<?xml version="1.0" encoding="utf-8"?>
<!-- Generator: Adobe Illustrator 16.0.0, SVG Export Plug-In . SVG Version: 6.00 Build 0)  -->
<!DOCTYPE svg PUBLIC "-//W3C//DTD SVG 1.1//EN" "http://www.w3.org/Graphics/SVG/1.1/DTD/svg11.dtd">
<svg version="1.1" id="Layer_1" xmlns="http://www.w3.org/2000/svg" xmlns:xlink="http://www.w3.org/1999/xlink" x="0px" y="0px"
	 width="24px" height="24px" viewBox="0 0 24 24" enable-background="new 0 0 24 24" xml:space="preserve">
<path fill="#FF5E15" d="M12,22.994C5.937,22.994,1.003,18.062,1.003,12S5.937,1.006,12,1.006c6.064,0,10.996,4.932,10.996,10.994
	S18.064,22.994,12,22.994z M12,3.006c-4.961,0-8.997,4.035-8.997,8.994S7.039,20.994,12,20.994s8.996-4.035,8.996-8.994
	S16.961,3.006,12,3.006z"/>
<path fill="#FF5E15" d="M4.629,17.874c-0.769,0-1.458-0.29-1.995-0.838c-1.349-1.377-0.562-3.594-0.528-3.688l0.106-0.172
	l7.079-7.495c0.096-0.082,0.983-0.754,2.029-0.754c0.651,0,1.238,0.262,1.699,0.756c1.215,1.306,0.553,2.952,0.033,3.641
	c-0.545,0.713-5.333,6.976-6.215,7.739C6.384,17.455,5.565,17.874,4.629,17.874z M3.017,13.78c-0.109,0.367-0.454,1.755,0.332,2.557
	c0.349,0.356,0.78,0.537,1.281,0.537c0.62,0,1.227-0.285,1.554-0.567c0.609-0.527,3.965-4.827,6.073-7.588
	c0.038-0.051,0.975-1.34,0.031-2.354c-0.273-0.294-0.59-0.438-0.966-0.438c-0.701,0-1.356,0.489-1.362,0.494L3.017,13.78z"/>
<path fill="#FF5E15" d="M13.498,20.294c-0.129,0-0.262-0.005-0.398-0.015c-1.618-0.119-2.196-1.579-2.276-2.335l0.158-7.305
	c0.006-0.275,0.19-0.504,0.511-0.488c0.276,0.006,0.495,0.234,0.489,0.511l-0.161,7.24c0.013,0.073,0.188,1.294,1.353,1.379
	c0.754,0.06,1.312-0.078,1.613-0.389c0.316-0.325,0.285-0.777,0.285-0.782l0.193-10.388c-0.002-0.036-0.094-1.628-1.465-1.816
	c-0.406-0.058-0.75,0.039-1.047,0.291c-0.21,0.179-0.525,0.153-0.705-0.058c-0.179-0.21-0.153-0.525,0.057-0.704
	c0.511-0.435,1.141-0.615,1.831-0.52c1.764,0.241,2.295,1.935,2.328,2.797l-0.197,10.356c0.008,0.031,0.072,0.864-0.564,1.521
	C15.049,20.058,14.375,20.294,13.498,20.294z"/>
<path fill="#FF5E15" d="M9.4,13.719c-0.176,0-0.347-0.094-0.438-0.259c-0.134-0.242-0.046-0.546,0.196-0.68l1.904-1.051
	c0.242-0.135,0.546-0.046,0.679,0.195c0.134,0.242,0.046,0.546-0.196,0.68l-1.904,1.052C9.564,13.698,9.481,13.719,9.4,13.719z"/>
<path fill="#FF5E15" d="M6.117,20.579c-0.17,0-0.336-0.087-0.43-0.244c-0.142-0.237-0.064-0.544,0.173-0.686l5.223-3.115
	c0.239-0.142,0.544-0.063,0.686,0.174c0.142,0.237,0.064,0.544-0.173,0.686l-5.223,3.115C6.292,20.557,6.204,20.579,6.117,20.579z"
	/>
<path fill="#FF5E15" d="M15.672,13.117c-0.094,0-0.189-0.026-0.273-0.082c-0.23-0.151-0.295-0.461-0.145-0.692l4.328-6.61
	c0.152-0.232,0.463-0.295,0.691-0.145c0.232,0.151,0.297,0.462,0.145,0.692l-4.328,6.61C15.994,13.037,15.834,13.117,15.672,13.117z
	"/>
<path fill="#FF5E15" d="M15.24,6.718c-0.102,0-0.205-0.031-0.295-0.097c-0.223-0.163-0.271-0.476-0.107-0.698l1.941-2.652
	c0.164-0.222,0.477-0.27,0.697-0.107c0.225,0.163,0.271,0.476,0.109,0.698l-1.941,2.652C15.547,6.647,15.395,6.718,15.24,6.718z"/>
<path fill="#FF5E15" d="M18.42,18.785c-0.934,0-2.02-0.346-2.469-1.573c-0.611-1.675,0.637-2.935,1.383-3.367l4.438-2.239
	c0.244-0.125,0.547-0.026,0.672,0.222c0.123,0.246,0.025,0.547-0.221,0.671l-4.412,2.226c-0.031,0.02-1.395,0.844-0.92,2.145
	c0.463,1.27,2.1,0.869,2.168,0.852l0.896-0.401c0.254-0.108,0.547,0.004,0.66,0.257c0.109,0.253-0.004,0.548-0.258,0.659
	l-0.973,0.428C19.115,18.734,18.779,18.785,18.42,18.785z"/>
<path fill="#FF5E15" d="M17.414,10.458c-0.154,0-0.307-0.072-0.404-0.208c-0.162-0.224-0.111-0.536,0.113-0.698
	c0.307-0.222,0.498-0.332,0.674-0.335c0.482-0.238,1.43-0.63,3.293-1.398c0.256-0.103,0.547,0.017,0.652,0.272
	c0.105,0.255-0.016,0.547-0.271,0.652c-1.807,0.745-3.314,1.37-3.467,1.434c-0.037,0.019-0.152,0.082-0.297,0.187
	C17.619,10.427,17.516,10.458,17.414,10.458z"/>
<path fill="#FF5E15" d="M18.396,14c-0.008,0-0.016,0-0.025,0c-1.266,0-2.129-0.549-2.43-1.626c-0.096-0.341-0.125-0.605-0.086-0.928
	c0.033-0.275,0.291-0.429,0.557-0.401c0.273,0.032,0.469,0.3,0.436,0.574c-0.021,0.193-0.004,0.408,0.057,0.622
	c0.182,0.648,0.691,1.004,1.518,1.047c0.277,0.015,0.488,0.105,0.475,0.381C18.883,13.937,18.662,14,18.396,14z"/>
<path fill="none" stroke="#FF5E15" stroke-linecap="round" stroke-miterlimit="40" d="M18.396,13.792"/>
</svg>
