<?xml version="1.0" encoding="utf-8"?>
<!-- Generator: Adobe Illustrator 16.0.0, SVG Export Plug-In . SVG Version: 6.00 Build 0)  -->
<!DOCTYPE svg PUBLIC "-//W3C//DTD SVG 1.1//EN" "http://www.w3.org/Graphics/SVG/1.1/DTD/svg11.dtd">
<svg version="1.1" id="Layer_1" xmlns="http://www.w3.org/2000/svg" xmlns:xlink="http://www.w3.org/1999/xlink" x="0px" y="0px"
	 width="24px" height="24px" viewBox="0 0 24 24" enable-background="new 0 0 24 24" xml:space="preserve">
<path fill="#6081C4" d="M12,0.504C5.651,0.504,0.504,5.651,0.504,12c0,6.35,5.147,11.496,11.496,11.496
	c6.35,0,11.496-5.146,11.496-11.496C23.496,5.651,18.35,0.504,12,0.504z M15.027,10.964l-0.098,1.069h-2.021
	c0,3.049,0,6.809,0,6.809h-2.724c0,0,0-3.723,0-6.809H8.823v-1.078V9.31h1.351V8.078c0-1.113,0.53-2.854,2.866-2.854l2.104,0.009
	v2.334c0,0-1.279,0-1.527,0s-0.602,0.123-0.602,0.654V9.31h2.164L15.027,10.964z"/>
</svg>
