<?xml version="1.0" encoding="utf-8"?>
<!-- Generator: Adobe Illustrator 16.0.0, SVG Export Plug-In . SVG Version: 6.00 Build 0)  -->
<!DOCTYPE svg PUBLIC "-//W3C//DTD SVG 1.1//EN" "http://www.w3.org/Graphics/SVG/1.1/DTD/svg11.dtd">
<svg version="1.1" id="Layer_1" xmlns="http://www.w3.org/2000/svg" xmlns:xlink="http://www.w3.org/1999/xlink" x="0px" y="0px"
	 width="100px" height="99.999px" viewBox="0 0 100 99.999" enable-background="new 0 0 100 99.999" xml:space="preserve">
<g>
	<g>
		<path fill="#00A1DF" d="M15.982,86.638l3.016-4.875C10.742,73.702,5.613,62.45,5.613,50C5.613,25.485,25.485,5.613,50,5.613
			c5.113,0,10.022,0.866,14.592,2.457l3.018-4.876C62.133,1.131,56.199,0,50,0C22.386,0,0,22.385,0,50
			C0,64.474,6.152,77.507,15.982,86.638z"/>
		<path fill="#00A1DF" d="M83.314,12.719l-3.005,4.857c8.662,8.1,14.077,19.628,14.077,32.424c0,24.514-19.872,44.386-44.387,44.386
			c-5.451,0-10.67-0.982-15.493-2.781l-3.005,4.858c5.722,2.28,11.963,3.536,18.499,3.536c27.613,0,50-22.385,50-49.999
			C100,35.184,93.553,21.875,83.314,12.719z"/>
	</g>
	<g>
		<path fill="#003764" d="M13.886,44.476c0,1.299,1.012,1.805,2.161,1.805c0.751,0,1.9-0.218,1.9-1.216
			c0-1.052-1.463-1.23-2.898-1.612c-1.449-0.384-2.912-0.944-2.912-2.776c0-1.996,1.887-2.954,3.65-2.954
			c2.038,0,3.911,0.889,3.911,3.146H17.62c-0.068-1.176-0.903-1.477-1.929-1.477c-0.684,0-1.476,0.288-1.476,1.108
			c0,0.751,0.465,0.847,2.911,1.477c0.711,0.177,2.898,0.628,2.898,2.843c0,1.791-1.408,3.131-4.06,3.131
			c-2.16,0-4.184-1.066-4.156-3.473H13.886z"/>
		<path fill="#003764" d="M27.805,41.237c-0.137-0.971-1.068-1.709-2.134-1.709c-1.927,0-2.652,1.641-2.652,3.35
			c0,1.626,0.725,3.267,2.652,3.267c1.313,0,2.051-0.902,2.214-2.188h2.079c-0.219,2.434-1.9,3.992-4.293,3.992
			c-3.021,0-4.799-2.255-4.799-5.072c0-2.898,1.778-5.155,4.799-5.155c2.147,0,3.952,1.258,4.211,3.515H27.805z"/>
		<path fill="#003764" d="M31.428,37.956h2.146v9.762h-2.146V37.956z"/>
		<path fill="#003764" d="M35.461,37.956h7.3v1.804h-5.154v2.093h4.73v1.668h-4.73v2.392h5.264v1.805h-7.41V37.956z"/>
		<path fill="#003764" d="M44.321,37.956h2.132l4.074,6.548h0.027v-6.548h2.01v9.762h-2.146l-4.06-6.535h-0.027v6.535h-2.01V37.956z
			"/>
		<path fill="#003764" d="M56.611,39.76h-2.926v-1.804h7.998v1.804h-2.926v7.958h-2.146V39.76z"/>
		<path fill="#003764" d="M62.806,37.956h2.146v9.762h-2.146V37.956z"/>
		<path fill="#003764" d="M66.838,37.956h6.863v1.804h-4.716v2.257h4.087v1.667h-4.087v4.033h-2.147V37.956z"/>
		<path fill="#003764" d="M74.947,37.956h2.145v9.762h-2.145V37.956z"/>
		<path fill="#003764" d="M85.486,41.237c-0.137-0.971-1.065-1.709-2.133-1.709c-1.926,0-2.651,1.641-2.651,3.35
			c0,1.626,0.726,3.267,2.651,3.267c1.312,0,2.052-0.902,2.216-2.188h2.078c-0.219,2.434-1.901,3.992-4.294,3.992
			c-3.02,0-4.797-2.255-4.797-5.072c0-2.898,1.777-5.155,4.797-5.155c2.146,0,3.952,1.258,4.211,3.515H85.486z"/>
	</g>
	<g>
		<path fill="#00A1DF" d="M12.701,56.715c-0.035,1.724,1.208,2.253,2.734,2.253c0.881,0,2.218-0.481,2.218-1.703
			c0-0.949-0.951-1.324-1.725-1.513l-1.866-0.458c-0.986-0.246-1.89-0.716-1.89-2.018c0-0.822,0.528-2.359,2.888-2.359
			c1.654,0,3.109,0.892,3.097,2.605H17.36c-0.047-1.279-1.103-1.925-2.289-1.925c-1.092,0-2.1,0.423-2.1,1.666
			c0,0.786,0.587,1.115,1.267,1.279l2.042,0.505c1.186,0.317,2.171,0.833,2.171,2.205c0,0.576-0.235,2.395-3.204,2.395
			c-1.982,0-3.438-0.892-3.344-2.933H12.701z"/>
		<path fill="#00A1DF" d="M19.777,51.094h5.785v0.681h-4.987v3.027h4.67v0.68h-4.67v3.31h5.046v0.681h-5.844V51.094z"/>
		<path fill="#00A1DF" d="M26.794,51.094h3.837c1.386,0,2.547,0.669,2.547,2.183c0,1.055-0.552,1.924-1.632,2.135v0.024
			c1.092,0.14,1.409,0.891,1.467,1.888c0.036,0.576,0.036,1.727,0.387,2.148h-0.879c-0.2-0.328-0.2-0.95-0.223-1.303
			c-0.071-1.174-0.165-2.476-1.678-2.417h-3.028v3.72h-0.798V51.094z M27.592,55.071h2.981c0.974,0,1.807-0.61,1.807-1.631
			c0-1.021-0.609-1.666-1.807-1.666h-2.981V55.071z"/>
		<path fill="#00A1DF" d="M33.821,51.094h0.857l2.722,7.499h0.024l2.698-7.499h0.846l-3.11,8.378h-0.927L33.821,51.094z"/>
		<path fill="#00A1DF" d="M41.824,51.094h0.799v8.378h-0.799V51.094z"/>
		<path fill="#00A1DF" d="M50.554,53.628c-0.281-1.291-1.349-2.03-2.569-2.03c-2.219,0-3.158,1.854-3.158,3.685
			c0,1.832,0.939,3.686,3.158,3.686c1.548,0,2.534-1.197,2.687-2.688h0.798c-0.223,2.053-1.526,3.367-3.484,3.367
			c-2.641,0-3.955-2.077-3.955-4.365s1.313-4.365,3.955-4.365c1.583,0,3.157,0.951,3.366,2.71H50.554z"/>
		<path fill="#00A1DF" d="M52.749,51.094h5.784v0.681h-4.986v3.027h4.67v0.68h-4.67v3.31h5.046v0.681h-5.844V51.094z"/>
		<path fill="#00A1DF" d="M60.142,56.715c-0.035,1.724,1.208,2.253,2.733,2.253c0.881,0,2.219-0.481,2.219-1.703
			c0-0.949-0.951-1.324-1.726-1.513l-1.866-0.458c-0.984-0.246-1.889-0.716-1.889-2.018c0-0.822,0.528-2.359,2.887-2.359
			c1.654,0,3.11,0.892,3.098,2.605h-0.797c-0.047-1.279-1.104-1.925-2.289-1.925c-1.092,0-2.101,0.423-2.101,1.666
			c0,0.786,0.587,1.115,1.269,1.279l2.041,0.505c1.186,0.317,2.171,0.833,2.171,2.205c0,0.576-0.235,2.395-3.204,2.395
			c-1.982,0-3.438-0.892-3.344-2.933H60.142z"/>
		<path fill="#00A1DF" d="M70.539,51.094h0.797v7.697h4.694v0.681h-5.491V51.094z"/>
		<path fill="#00A1DF" d="M74.918,51.094h6.642v0.681h-2.923v7.697H77.84v-7.697h-2.922V51.094z"/>
		<path fill="#00A1DF" d="M82.404,51.094h2.898c2.523,0.058,3.849,1.442,3.849,4.188s-1.325,4.131-3.849,4.189h-2.898V51.094z
			 M83.202,58.791h1.701c2.405,0.012,3.45-1.009,3.45-3.509c0-2.498-1.045-3.52-3.45-3.508h-1.701V58.791z"/>
	</g>
</g>
</svg>
