<?xml version="1.0" encoding="utf-8"?>
<!-- Generator: Adobe Illustrator 16.0.0, SVG Export Plug-In . SVG Version: 6.00 Build 0)  -->
<!DOCTYPE svg PUBLIC "-//W3C//DTD SVG 1.1//EN" "http://www.w3.org/Graphics/SVG/1.1/DTD/svg11.dtd">
<svg version="1.1" id="Layer_1" xmlns="http://www.w3.org/2000/svg" xmlns:xlink="http://www.w3.org/1999/xlink" x="0px" y="0px"
	 width="60px" height="40px" viewBox="0 0 60 40" enable-background="new 0 0 60 40" xml:space="preserve">
<g>
	<path fill="#FFFFFF" d="M59.299,28.549c0.02-0.01,0.039-0.021,0.058-0.031c0.017-0.01,0.033-0.02,0.05-0.029
		c0.019-0.012,0.036-0.023,0.055-0.035c0.016-0.012,0.031-0.021,0.047-0.035c0.017-0.012,0.031-0.025,0.047-0.039
		c0.017-0.014,0.031-0.025,0.047-0.039c0.014-0.016,0.028-0.029,0.043-0.045c0.014-0.014,0.029-0.029,0.043-0.045
		c0.014-0.018,0.027-0.035,0.041-0.053c0.012-0.014,0.025-0.029,0.035-0.043c0.021-0.029,0.039-0.059,0.057-0.088
		c0.004-0.006,0.008-0.012,0.012-0.018c0.003-0.006,0.006-0.012,0.008-0.018c0.018-0.029,0.033-0.061,0.048-0.092
		c0.009-0.02,0.015-0.037,0.022-0.057s0.016-0.039,0.023-0.059c0.006-0.021,0.012-0.041,0.018-0.064
		c0.006-0.018,0.012-0.035,0.016-0.053c0.006-0.021,0.009-0.045,0.012-0.064c0.004-0.02,0.008-0.039,0.011-0.059
		s0.003-0.039,0.005-0.061s0.004-0.041,0.006-0.061c0-0.021-0.002-0.041-0.002-0.062c0-0.02,0-0.041-0.001-0.061
		c-0.001-0.023-0.005-0.047-0.008-0.072c-0.003-0.018-0.003-0.033-0.007-0.051c-0.006-0.041-0.016-0.082-0.025-0.123L53,1.131
		c-0.18-0.672-0.869-1.07-1.54-0.891L13.196,10.494c-0.011,0.002-0.021,0.006-0.031,0.01c-0.023,0.008-0.045,0.014-0.069,0.023
		c-0.018,0.006-0.036,0.012-0.053,0.02c-0.02,0.008-0.04,0.016-0.059,0.025c-0.018,0.01-0.036,0.018-0.054,0.027
		c-0.019,0.01-0.036,0.02-0.054,0.031c-0.018,0.01-0.035,0.021-0.051,0.031c-0.018,0.012-0.035,0.023-0.051,0.037
		c-0.016,0.012-0.031,0.023-0.046,0.035c-0.017,0.014-0.034,0.027-0.049,0.041c-0.015,0.014-0.028,0.027-0.041,0.041
		c-0.016,0.014-0.031,0.029-0.046,0.047c-0.013,0.014-0.025,0.027-0.037,0.043c-0.014,0.016-0.028,0.033-0.041,0.051
		c-0.012,0.018-0.023,0.033-0.036,0.049c-0.01,0.018-0.021,0.033-0.032,0.051c-0.012,0.02-0.023,0.041-0.034,0.061
		c-0.005,0.01-0.012,0.02-0.017,0.029c-0.003,0.006-0.004,0.014-0.007,0.02c-0.011,0.021-0.021,0.043-0.03,0.066
		c-0.007,0.016-0.013,0.033-0.02,0.049c-0.007,0.021-0.014,0.043-0.021,0.064c-0.006,0.02-0.012,0.037-0.016,0.055
		c-0.005,0.021-0.009,0.043-0.013,0.062c-0.004,0.02-0.008,0.039-0.011,0.059c-0.003,0.02-0.005,0.041-0.006,0.062
		c-0.002,0.02-0.004,0.039-0.006,0.059c0,0.021-0.001,0.041,0,0.062c0,0.02-0.001,0.041,0,0.061c0.001,0.02,0.003,0.039,0.004,0.059
		c0.003,0.021,0.004,0.045,0.007,0.064c0.002,0.02,0.006,0.039,0.01,0.057c0.005,0.023,0.009,0.047,0.015,0.068
		c0.001,0.008,0.003,0.014,0.004,0.02l2.007,7.492c0.18,0.67,0.869,1.068,1.541,0.889c0.67-0.18,1.068-0.869,0.889-1.541
		l-1.285-4.793l13.362,6.668c-0.045,0.055-0.088,0.113-0.125,0.178l-7.788,13.49l-2.139-7.984c-0.18-0.67-0.869-1.068-1.54-0.889
		s-1.069,0.869-0.889,1.541l0.397,1.484l-6.276,1.682c-0.671,0.18-1.069,0.869-0.889,1.539c0.18,0.672,0.869,1.07,1.54,0.889
		l6.276-1.682l1.876,7.002c0.18,0.672,0.869,1.07,1.54,0.891l38.265-10.254c0.039-0.01,0.078-0.023,0.117-0.037
		c0.019-0.008,0.035-0.016,0.053-0.023C59.258,28.566,59.28,28.559,59.299,28.549L59.299,28.549z M56.743,24.814l-13.49-7.789
		c-0.009-0.004-0.018-0.008-0.026-0.014l6.181-8.928c0.395-0.572,0.252-1.355-0.319-1.75c-0.569-0.396-1.354-0.254-1.749,0.318
		L36.778,21.908l-19.727-9.844l33.846-9.068L56.743,24.814z M30.875,22.184c0.062-0.109,0.107-0.225,0.136-0.342l5.621,2.805
		c0.283,0.143,0.599,0.166,0.887,0.09c0.279-0.074,0.533-0.246,0.709-0.5l3.576-5.168c0.06,0.049,0.123,0.096,0.191,0.137
		l13.49,7.787l-32.399,8.682L30.875,22.184z M30.875,22.184"/>
	<path fill="#FFFFFF" d="M1.583,28.434l20.515-5.498c0.671-0.18,1.069-0.869,0.89-1.539c-0.18-0.672-0.869-1.07-1.541-0.891
		L0.933,26.004c-0.671,0.18-1.069,0.869-0.89,1.539C0.223,28.215,0.913,28.611,1.583,28.434L1.583,28.434z M1.583,28.434"/>
	<path fill="#FFFFFF" d="M1.916,21.17l9.212-2.469c0.67-0.18,1.069-0.869,0.889-1.539c-0.18-0.672-0.87-1.07-1.54-0.891L1.265,18.74
		c-0.67,0.18-1.069,0.869-0.889,1.539C0.555,20.951,1.245,21.35,1.916,21.17L1.916,21.17z M1.916,21.17"/>
	<path fill="#FFFFFF" d="M12.915,35.09l-8.908,2.387c-0.671,0.18-1.069,0.869-0.889,1.539c0.179,0.672,0.869,1.07,1.54,0.891
		l8.908-2.389c0.67-0.18,1.069-0.869,0.89-1.539C14.275,35.309,13.585,34.91,12.915,35.09L12.915,35.09z M12.915,35.09"/>
</g>
</svg>
